M48
; DRILL file {KiCad (5.1.5)-3} date 2020/2/11 15:58:49
; FORMAT={-:-/ absolute / metric / decimal}
; #@! TF.CreationDate,2020-02-11T15:58:49+08:00
; #@! TF.GenerationSoftware,Kicad,Pcbnew,(5.1.5)-3
; #@! TF.FileFunction,Plated,1,2,PTH
FMAT,2
METRIC
T1C0.305
T2C0.406
T3C0.500
T4C0.700
T5C1.000
T6C3.000
%
G90
G05
T1
X145.542Y-111.735
X145.847Y-110.693
X145.847Y-126.771
X145.999Y-126.009
X148.412Y-112.37
X148.514Y-118.72
X148.531Y-122.691
X148.535Y-126.664
X148.641Y-111.658
X148.75Y-110.15
X148.819Y-125.984
X149.027Y-122.146
X149.119Y-119.215
X149.148Y-112.394
X149.149Y-114.452
X149.454Y-118.151
X149.475Y-116.074
X149.576Y-121.651
X149.606Y-111.443
X149.606Y-126.009
X149.614Y-112.964
X149.829Y-119.469
X150.241Y-121.158
X150.266Y-117.646
X150.27Y-115.98
X150.368Y-125.997
X150.81Y-119.619
X150.825Y-120.651
X151.0Y-106.51
X151.067Y-115.883
X151.079Y-117.151
X151.643Y-119.487
X152.625Y-116.378
X152.644Y-114.625
X153.294Y-114.13
X153.314Y-116.637
X153.645Y-119.761
X154.487Y-119.992
X155.055Y-123.276
X155.194Y-121.058
X155.468Y-122.664
X156.032Y-123.742
X157.436Y-123.934
X158.394Y-123.52
X158.725Y-124.231
X158.911Y-122.925
X159.06Y-106.505
X159.642Y-122.834
X161.442Y-127.178
X162.077Y-126.632
X162.433Y-122.987
X163.187Y-123.015
X163.85Y-106.51
X165.989Y-126.949
X166.07Y-122.409
X166.231Y-123.457
X166.681Y-121.996
X166.802Y-126.695
X168.93Y-125.501
X170.51Y-104.191
X170.581Y-110.027
X170.612Y-102.997
X170.688Y-109.22
X171.374Y-125.247
X172.872Y-113.683
X173.228Y-110.058
X173.685Y-108.991
X173.965Y-110.198
X174.355Y-109.573
X174.447Y-113.937
X175.057Y-106.985
X175.083Y-109.69
X175.164Y-114.191
X175.59Y-111.214
X175.819Y-106.959
X175.819Y-108.877
X176.352Y-107.518
X176.632Y-114.097
X177.013Y-106.439
X177.013Y-109.385
X177.297Y-114.473
X177.724Y-107.493
X177.902Y-106.477
X178.149Y-114.122
X183.756Y-107.798
X183.769Y-106.325
X183.947Y-108.839
X184.709Y-120.955
X185.503Y-122.218
X187.35Y-126.823
T2
X145.44Y-127.94
X145.491Y-124.892
X148.565Y-115.113
X148.786Y-123.919
X148.869Y-108.89
X148.895Y-106.985
X150.038Y-108.839
X151.765Y-120.752
X152.425Y-121.945
X153.867Y-107.514
X154.483Y-124.308
X155.829Y-122.022
X155.942Y-124.473
X159.563Y-115.494
X159.563Y-118.745
X160.08Y-110.981
X162.789Y-115.494
X162.814Y-118.745
X164.252Y-124.812
X166.802Y-106.502
X167.462Y-110.058
X167.818Y-118.694
X168.275Y-124.003
X168.3Y-105.943
X168.609Y-116.768
X168.735Y-118.136
X169.24Y-126.848
X169.387Y-123.991
X169.428Y-111.192
X170.561Y-125.006
X171.451Y-115.774
X171.865Y-107.357
X172.237Y-122.758
X172.843Y-112.947
X173.66Y-124.841
X174.981Y-102.667
X175.031Y-104.369
X175.901Y-114.191
X175.92Y-121.285
X176.174Y-102.641
X176.225Y-104.394
X177.444Y-119.228
X177.978Y-119.786
X179.146Y-109.931
X179.273Y-123.165
X179.42Y-114.331
X179.502Y-121.895
X180.289Y-109.626
X180.492Y-114.427
X180.594Y-112.319
X180.772Y-102.997
X181.762Y-124.333
X181.788Y-123.165
X183.159Y-123.139
X183.185Y-124.333
X183.875Y-110.282
X185.08Y-126.39
X185.12Y-110.333
X188.443Y-123.876
X189.89Y-126.263
T4
X186.251Y-103.575
X186.251Y-108.425
X186.226Y-115.075
X186.226Y-119.925
T5
X147.93Y-101.854
X147.93Y-104.394
X150.47Y-101.854
X150.47Y-104.394
X153.01Y-101.854
X153.01Y-104.394
X155.55Y-101.854
X155.55Y-104.394
X158.09Y-101.854
X158.09Y-104.394
X160.63Y-101.854
X160.63Y-104.394
X163.17Y-101.854
X163.17Y-104.394
X165.71Y-101.854
X165.71Y-104.394
X168.25Y-101.854
X168.25Y-104.394
X150.015Y-128.275
X150.015Y-130.815
X152.555Y-128.275
X152.555Y-130.815
X155.095Y-128.275
X155.095Y-130.815
X157.635Y-128.275
X157.635Y-130.815
X160.175Y-128.275
X160.175Y-130.815
X162.715Y-128.275
X162.715Y-130.815
X165.255Y-128.275
X165.255Y-130.815
X167.795Y-128.275
X167.795Y-130.815
X170.335Y-128.275
X170.335Y-130.815
X172.875Y-128.275
X172.875Y-130.815
X175.415Y-128.275
X175.415Y-130.815
X177.955Y-128.275
X177.955Y-130.815
X180.495Y-128.275
X180.495Y-130.815
X183.035Y-128.275
X183.035Y-130.815
X185.575Y-128.275
X185.575Y-130.815
T6
X142.57Y-102.565
X189.459Y-130.023
T3
G00X189.231Y-102.375
M15
G01X188.631Y-102.375
M16
G05
G00X189.231Y-109.625
M15
G01X188.631Y-109.625
M16
G05
G00X189.206Y-113.875
M15
G01X188.606Y-113.875
M16
G05
G00X189.206Y-121.125
M15
G01X188.606Y-121.125
M16
G05
T0
M30
