G04 #@! TF.GenerationSoftware,KiCad,Pcbnew,(5.1.5)-3*
G04 #@! TF.CreationDate,2020-02-11T15:58:42+08:00*
G04 #@! TF.ProjectId,F1C200S_KIT,46314332-3030-4535-9f4b-49542e6b6963,V1.0*
G04 #@! TF.SameCoordinates,Original*
G04 #@! TF.FileFunction,Legend,Top*
G04 #@! TF.FilePolarity,Positive*
%FSLAX46Y46*%
G04 Gerber Fmt 4.6, Leading zero omitted, Abs format (unit mm)*
G04 Created by KiCad (PCBNEW (5.1.5)-3) date 2020-02-11 15:58:42*
%MOMM*%
%LPD*%
G04 APERTURE LIST*
%ADD10C,0.254000*%
%ADD11C,0.177800*%
%ADD12C,0.152400*%
%ADD13C,0.120000*%
%ADD14C,0.150000*%
G04 APERTURE END LIST*
D10*
X185672790Y-100688019D02*
X185866314Y-100688019D01*
X185963076Y-100736400D01*
X186059838Y-100833161D01*
X186108219Y-101026685D01*
X186108219Y-101365352D01*
X186059838Y-101558876D01*
X185963076Y-101655638D01*
X185866314Y-101704019D01*
X185672790Y-101704019D01*
X185576028Y-101655638D01*
X185479266Y-101558876D01*
X185430885Y-101365352D01*
X185430885Y-101026685D01*
X185479266Y-100833161D01*
X185576028Y-100736400D01*
X185672790Y-100688019D01*
X186398504Y-100688019D02*
X186979076Y-100688019D01*
X186688790Y-101704019D02*
X186688790Y-100688019D01*
X187849933Y-100736400D02*
X187753171Y-100688019D01*
X187608028Y-100688019D01*
X187462885Y-100736400D01*
X187366123Y-100833161D01*
X187317742Y-100929923D01*
X187269361Y-101123447D01*
X187269361Y-101268590D01*
X187317742Y-101462114D01*
X187366123Y-101558876D01*
X187462885Y-101655638D01*
X187608028Y-101704019D01*
X187704790Y-101704019D01*
X187849933Y-101655638D01*
X187898314Y-101607257D01*
X187898314Y-101268590D01*
X187704790Y-101268590D01*
X190172219Y-124532571D02*
X190172219Y-123952000D01*
X191188219Y-124242285D02*
X190172219Y-124242285D01*
X190172219Y-123758476D02*
X190172219Y-123177904D01*
X191188219Y-123468190D02*
X190172219Y-123468190D01*
X191188219Y-122355428D02*
X191188219Y-122839238D01*
X190172219Y-122839238D01*
D11*
X150915809Y-126766580D02*
X150915809Y-125766580D01*
X151344380Y-125861819D02*
X151392000Y-125814200D01*
X151487238Y-125766580D01*
X151725333Y-125766580D01*
X151820571Y-125814200D01*
X151868190Y-125861819D01*
X151915809Y-125957057D01*
X151915809Y-126052295D01*
X151868190Y-126195152D01*
X151296761Y-126766580D01*
X151915809Y-126766580D01*
X152915809Y-126671342D02*
X152868190Y-126718961D01*
X152725333Y-126766580D01*
X152630095Y-126766580D01*
X152487238Y-126718961D01*
X152392000Y-126623723D01*
X152344380Y-126528485D01*
X152296761Y-126338009D01*
X152296761Y-126195152D01*
X152344380Y-126004676D01*
X152392000Y-125909438D01*
X152487238Y-125814200D01*
X152630095Y-125766580D01*
X152725333Y-125766580D01*
X152868190Y-125814200D01*
X152915809Y-125861819D01*
X162488638Y-125783219D02*
X162488638Y-126605695D01*
X162537019Y-126702457D01*
X162585400Y-126750838D01*
X162682161Y-126799219D01*
X162875685Y-126799219D01*
X162972447Y-126750838D01*
X163020828Y-126702457D01*
X163069209Y-126605695D01*
X163069209Y-125783219D01*
X163504638Y-126508933D02*
X163988447Y-126508933D01*
X163407876Y-126799219D02*
X163746542Y-125783219D01*
X164085209Y-126799219D01*
X165004447Y-126799219D02*
X164665780Y-126315409D01*
X164423876Y-126799219D02*
X164423876Y-125783219D01*
X164810923Y-125783219D01*
X164907685Y-125831600D01*
X164956066Y-125879980D01*
X165004447Y-125976742D01*
X165004447Y-126121885D01*
X164956066Y-126218647D01*
X164907685Y-126267028D01*
X164810923Y-126315409D01*
X164423876Y-126315409D01*
X165294733Y-125783219D02*
X165875304Y-125783219D01*
X165585019Y-126799219D02*
X165585019Y-125783219D01*
X171462723Y-125741180D02*
X170986533Y-125741180D01*
X170938914Y-126217371D01*
X170986533Y-126169752D01*
X171081771Y-126122133D01*
X171319866Y-126122133D01*
X171415104Y-126169752D01*
X171462723Y-126217371D01*
X171510342Y-126312609D01*
X171510342Y-126550704D01*
X171462723Y-126645942D01*
X171415104Y-126693561D01*
X171319866Y-126741180D01*
X171081771Y-126741180D01*
X170986533Y-126693561D01*
X170938914Y-126645942D01*
X171796057Y-125741180D02*
X172129390Y-126741180D01*
X172462723Y-125741180D01*
X176877790Y-126642761D02*
X177020647Y-126690380D01*
X177258742Y-126690380D01*
X177353980Y-126642761D01*
X177401600Y-126595142D01*
X177449219Y-126499904D01*
X177449219Y-126404666D01*
X177401600Y-126309428D01*
X177353980Y-126261809D01*
X177258742Y-126214190D01*
X177068266Y-126166571D01*
X176973028Y-126118952D01*
X176925409Y-126071333D01*
X176877790Y-125976095D01*
X176877790Y-125880857D01*
X176925409Y-125785619D01*
X176973028Y-125738000D01*
X177068266Y-125690380D01*
X177306361Y-125690380D01*
X177449219Y-125738000D01*
X177877790Y-126690380D02*
X177877790Y-125690380D01*
X178258742Y-125690380D01*
X178353980Y-125738000D01*
X178401600Y-125785619D01*
X178449219Y-125880857D01*
X178449219Y-126023714D01*
X178401600Y-126118952D01*
X178353980Y-126166571D01*
X178258742Y-126214190D01*
X177877790Y-126214190D01*
X178877790Y-126690380D02*
X178877790Y-125690380D01*
D12*
X158902400Y-126949200D02*
X158902400Y-125933200D01*
X174193200Y-126898400D02*
X174193200Y-125882400D01*
X169214800Y-126923800D02*
X169214800Y-125907800D01*
X174269400Y-125450600D02*
X174269400Y-125476000D01*
D13*
X169579600Y-105724000D02*
X169579600Y-100524000D01*
X149199600Y-105724000D02*
X169579600Y-105724000D01*
X146599600Y-100524000D02*
X169579600Y-100524000D01*
X149199600Y-105724000D02*
X149199600Y-103124000D01*
X149199600Y-103124000D02*
X146599600Y-103124000D01*
X146599600Y-103124000D02*
X146599600Y-100524000D01*
X147929600Y-105724000D02*
X146599600Y-105724000D01*
X146599600Y-105724000D02*
X146599600Y-104394000D01*
X165775000Y-111975000D02*
X166325000Y-111975000D01*
X166325000Y-111975000D02*
X166325000Y-112525000D01*
X165775000Y-122275000D02*
X166325000Y-122275000D01*
X166325000Y-122275000D02*
X166325000Y-121725000D01*
X156575000Y-122275000D02*
X156025000Y-122275000D01*
X156025000Y-122275000D02*
X156025000Y-121725000D01*
X156575000Y-111975000D02*
X155800000Y-111975000D01*
X151119721Y-112854200D02*
X151445279Y-112854200D01*
X151119721Y-111834200D02*
X151445279Y-111834200D01*
X181836600Y-115686621D02*
X181836600Y-116012179D01*
X182856600Y-115686621D02*
X182856600Y-116012179D01*
X182592400Y-100933800D02*
X182492400Y-100933800D01*
X184092400Y-105333800D02*
X184092400Y-100933800D01*
X180992400Y-100933800D02*
X180992400Y-105333800D01*
X182592400Y-105333800D02*
X182492400Y-105333800D01*
X148685000Y-126945000D02*
X148685000Y-132145000D01*
X184305000Y-126945000D02*
X148685000Y-126945000D01*
X186905000Y-132145000D02*
X148685000Y-132145000D01*
X184305000Y-126945000D02*
X184305000Y-129545000D01*
X184305000Y-129545000D02*
X186905000Y-129545000D01*
X186905000Y-129545000D02*
X186905000Y-132145000D01*
X185575000Y-126945000D02*
X186905000Y-126945000D01*
X186905000Y-126945000D02*
X186905000Y-128275000D01*
X148082000Y-129159000D02*
X148513800Y-129159000D01*
X148082000Y-124155200D02*
X148513800Y-124155200D01*
X148107400Y-119151400D02*
X148539200Y-119151400D01*
X148082000Y-126644400D02*
X148336000Y-126644400D01*
X148082000Y-121640600D02*
X148336000Y-121640600D01*
X148082000Y-116662200D02*
X148336000Y-116662200D01*
X148082000Y-114147600D02*
X148513800Y-114147600D01*
X148107400Y-111658400D02*
X148361400Y-111658400D01*
X146618400Y-132205400D02*
X146618400Y-129405400D01*
X146618400Y-106605400D02*
X146618400Y-109405400D01*
X146618400Y-132205400D02*
X140718400Y-132205400D01*
X146618400Y-106605400D02*
X140718400Y-106605400D01*
X140718400Y-129405400D02*
X140718400Y-132205400D01*
X140718400Y-109405400D02*
X140718400Y-106605400D01*
X140718400Y-109405400D02*
X140718400Y-129405400D01*
X148023400Y-109405400D02*
X148023400Y-129405400D01*
X191706000Y-113400000D02*
X190982600Y-113766200D01*
X191693800Y-121614800D02*
X190982600Y-121233800D01*
X191706000Y-113400000D02*
X191706000Y-121600000D01*
X185606000Y-119300000D02*
X185606000Y-121250000D01*
X188006000Y-121250000D02*
X185606000Y-121250000D01*
X191006000Y-121250000D02*
X189706000Y-121250000D01*
X185606000Y-113800000D02*
X185606000Y-115700000D01*
X188006000Y-113750000D02*
X185606000Y-113750000D01*
X191006000Y-113750000D02*
X189706000Y-113750000D01*
X191006000Y-113750000D02*
X191006000Y-121250000D01*
X179872421Y-117096000D02*
X180197979Y-117096000D01*
X179872421Y-116076000D02*
X180197979Y-116076000D01*
X175483748Y-124170000D02*
X176006252Y-124170000D01*
X175483748Y-121950000D02*
X176006252Y-121950000D01*
X186152022Y-111024600D02*
X186669178Y-111024600D01*
X186152022Y-112444600D02*
X186669178Y-112444600D01*
X157330000Y-108555279D02*
X157330000Y-108229721D01*
X156310000Y-108555279D02*
X156310000Y-108229721D01*
X163330000Y-108239721D02*
X163330000Y-108565279D01*
X164350000Y-108239721D02*
X164350000Y-108565279D01*
X162840000Y-108562779D02*
X162840000Y-108237221D01*
X161820000Y-108562779D02*
X161820000Y-108237221D01*
X160320000Y-108249721D02*
X160320000Y-108575279D01*
X161340000Y-108249721D02*
X161340000Y-108575279D01*
X166880000Y-108590279D02*
X166880000Y-108264721D01*
X165860000Y-108590279D02*
X165860000Y-108264721D01*
X177950400Y-123027321D02*
X177950400Y-123352879D01*
X178970400Y-123027321D02*
X178970400Y-123352879D01*
X177226279Y-116076000D02*
X176900721Y-116076000D01*
X177226279Y-117096000D02*
X176900721Y-117096000D01*
X171401200Y-117637679D02*
X171401200Y-117312121D01*
X170381200Y-117637679D02*
X170381200Y-117312121D01*
X172410279Y-122940000D02*
X172084721Y-122940000D01*
X172410279Y-123960000D02*
X172084721Y-123960000D01*
X153050000Y-109364721D02*
X153050000Y-109690279D01*
X154070000Y-109364721D02*
X154070000Y-109690279D01*
X154594679Y-124661200D02*
X154269121Y-124661200D01*
X154594679Y-125681200D02*
X154269121Y-125681200D01*
X153400879Y-122603800D02*
X153075321Y-122603800D01*
X153400879Y-123623800D02*
X153075321Y-123623800D01*
X151487600Y-123302079D02*
X151487600Y-122976521D01*
X150467600Y-123302079D02*
X150467600Y-122976521D01*
X157617279Y-125681200D02*
X157291721Y-125681200D01*
X157617279Y-124661200D02*
X157291721Y-124661200D01*
X169420000Y-119240000D02*
X169420000Y-122540000D01*
X169420000Y-122540000D02*
X173420000Y-122540000D01*
X191731400Y-101900000D02*
X191008000Y-102266200D01*
X191719200Y-110114800D02*
X191008000Y-109733800D01*
X191731400Y-101900000D02*
X191731400Y-110100000D01*
X185631400Y-107800000D02*
X185631400Y-109750000D01*
X188031400Y-109750000D02*
X185631400Y-109750000D01*
X191031400Y-109750000D02*
X189731400Y-109750000D01*
X185631400Y-102300000D02*
X185631400Y-104200000D01*
X188031400Y-102250000D02*
X185631400Y-102250000D01*
X191031400Y-102250000D02*
X189731400Y-102250000D01*
X191031400Y-102250000D02*
X191031400Y-109750000D01*
X182260200Y-107156200D02*
X183460200Y-107156200D01*
X182260200Y-106356200D02*
X182260200Y-107156200D01*
X183460200Y-106356200D02*
X182260200Y-106356200D01*
X183460200Y-107156200D02*
X183460200Y-106356200D01*
X182249000Y-109264400D02*
X183449000Y-109264400D01*
X182249000Y-108464400D02*
X182249000Y-109264400D01*
X183449000Y-108464400D02*
X182249000Y-108464400D01*
X183449000Y-109264400D02*
X183449000Y-108464400D01*
X182260200Y-108223000D02*
X183460200Y-108223000D01*
X182260200Y-107423000D02*
X182260200Y-108223000D01*
X183460200Y-107423000D02*
X182260200Y-107423000D01*
X183460200Y-108223000D02*
X183460200Y-107423000D01*
X180354000Y-110125100D02*
X180354000Y-114335100D01*
X180354000Y-114335100D02*
X183374000Y-114335100D01*
X183374000Y-114335100D02*
X183374000Y-110125100D01*
X188558279Y-123635400D02*
X188232721Y-123635400D01*
X188558279Y-122615400D02*
X188232721Y-122615400D01*
X188558279Y-124190400D02*
X188232721Y-124190400D01*
X188558279Y-125210400D02*
X188232721Y-125210400D01*
X177838200Y-111656800D02*
X180123200Y-111656800D01*
X180123200Y-111656800D02*
X180123200Y-110186800D01*
X180123200Y-110186800D02*
X177838200Y-110186800D01*
X182082652Y-120896400D02*
X181560148Y-120896400D01*
X182082652Y-118676400D02*
X181560148Y-118676400D01*
X173355948Y-115374400D02*
X173878452Y-115374400D01*
X173355948Y-117594400D02*
X173878452Y-117594400D01*
X150300000Y-108220000D02*
X150300000Y-109150000D01*
X150300000Y-111380000D02*
X150300000Y-110450000D01*
X150300000Y-111380000D02*
X152460000Y-111380000D01*
X150300000Y-108220000D02*
X151760000Y-108220000D01*
X178908100Y-117853300D02*
X179358100Y-117853300D01*
X179358100Y-117853300D02*
X179358100Y-118303300D01*
X178908100Y-121153300D02*
X179358100Y-121153300D01*
X179358100Y-121153300D02*
X179358100Y-120703300D01*
X176508100Y-121153300D02*
X176058100Y-121153300D01*
X176058100Y-121153300D02*
X176058100Y-120703300D01*
X176508100Y-117853300D02*
X175808100Y-117853300D01*
X180864000Y-125884200D02*
X180389000Y-125884200D01*
X180389000Y-125884200D02*
X180389000Y-125409200D01*
X184134000Y-121664200D02*
X184609000Y-121664200D01*
X184609000Y-121664200D02*
X184609000Y-122139200D01*
X180864000Y-121664200D02*
X180389000Y-121664200D01*
X180389000Y-121664200D02*
X180389000Y-122139200D01*
X184134000Y-125884200D02*
X184609000Y-125884200D01*
X175564800Y-106742000D02*
X171564800Y-106742000D01*
X179564800Y-100522000D02*
X171564800Y-100522000D01*
X175564800Y-100907000D02*
X172839800Y-100907000D01*
X172839800Y-100907000D02*
X172839800Y-101167000D01*
X175564800Y-100907000D02*
X178289800Y-100907000D01*
X178289800Y-100907000D02*
X178289800Y-101167000D01*
X175564800Y-106357000D02*
X172839800Y-106357000D01*
X172839800Y-106357000D02*
X172839800Y-106097000D01*
X175564800Y-106357000D02*
X178289800Y-106357000D01*
X178289800Y-106357000D02*
X178289800Y-106097000D01*
X178289800Y-106097000D02*
X179964800Y-106097000D01*
D14*
X147823180Y-108553285D02*
X147823180Y-109124714D01*
X147823180Y-108839000D02*
X146823180Y-108839000D01*
X146966038Y-108934238D01*
X147061276Y-109029476D01*
X147108895Y-109124714D01*
M02*
