G04 #@! TF.GenerationSoftware,KiCad,Pcbnew,(5.1.5)-3*
G04 #@! TF.CreationDate,2020-02-11T21:27:27+08:00*
G04 #@! TF.ProjectId,F1C200S_KIT,46314332-3030-4535-9f4b-49542e6b6963,V1.0*
G04 #@! TF.SameCoordinates,Original*
G04 #@! TF.FileFunction,Legend,Bot*
G04 #@! TF.FilePolarity,Positive*
%FSLAX46Y46*%
G04 Gerber Fmt 4.6, Leading zero omitted, Abs format (unit mm)*
G04 Created by KiCad (PCBNEW (5.1.5)-3) date 2020-02-11 21:27:27*
%MOMM*%
%LPD*%
G04 APERTURE LIST*
%ADD10C,0.254000*%
%ADD11C,0.010000*%
%ADD12C,0.120000*%
G04 APERTURE END LIST*
D10*
X165621304Y-116691228D02*
X165959971Y-116691228D01*
X165959971Y-117223419D02*
X165959971Y-116207419D01*
X165476161Y-116207419D01*
X164556923Y-117223419D02*
X165137495Y-117223419D01*
X164847209Y-117223419D02*
X164847209Y-116207419D01*
X164943971Y-116352561D01*
X165040733Y-116449323D01*
X165137495Y-116497704D01*
X163540923Y-117126657D02*
X163589304Y-117175038D01*
X163734447Y-117223419D01*
X163831209Y-117223419D01*
X163976352Y-117175038D01*
X164073114Y-117078276D01*
X164121495Y-116981514D01*
X164169876Y-116787990D01*
X164169876Y-116642847D01*
X164121495Y-116449323D01*
X164073114Y-116352561D01*
X163976352Y-116255800D01*
X163831209Y-116207419D01*
X163734447Y-116207419D01*
X163589304Y-116255800D01*
X163540923Y-116304180D01*
X163153876Y-116304180D02*
X163105495Y-116255800D01*
X163008733Y-116207419D01*
X162766828Y-116207419D01*
X162670066Y-116255800D01*
X162621685Y-116304180D01*
X162573304Y-116400942D01*
X162573304Y-116497704D01*
X162621685Y-116642847D01*
X163202257Y-117223419D01*
X162573304Y-117223419D01*
X161944352Y-116207419D02*
X161847590Y-116207419D01*
X161750828Y-116255800D01*
X161702447Y-116304180D01*
X161654066Y-116400942D01*
X161605685Y-116594466D01*
X161605685Y-116836371D01*
X161654066Y-117029895D01*
X161702447Y-117126657D01*
X161750828Y-117175038D01*
X161847590Y-117223419D01*
X161944352Y-117223419D01*
X162041114Y-117175038D01*
X162089495Y-117126657D01*
X162137876Y-117029895D01*
X162186257Y-116836371D01*
X162186257Y-116594466D01*
X162137876Y-116400942D01*
X162089495Y-116304180D01*
X162041114Y-116255800D01*
X161944352Y-116207419D01*
X160976733Y-116207419D02*
X160879971Y-116207419D01*
X160783209Y-116255800D01*
X160734828Y-116304180D01*
X160686447Y-116400942D01*
X160638066Y-116594466D01*
X160638066Y-116836371D01*
X160686447Y-117029895D01*
X160734828Y-117126657D01*
X160783209Y-117175038D01*
X160879971Y-117223419D01*
X160976733Y-117223419D01*
X161073495Y-117175038D01*
X161121876Y-117126657D01*
X161170257Y-117029895D01*
X161218638Y-116836371D01*
X161218638Y-116594466D01*
X161170257Y-116400942D01*
X161121876Y-116304180D01*
X161073495Y-116255800D01*
X160976733Y-116207419D01*
X160251019Y-117175038D02*
X160105876Y-117223419D01*
X159863971Y-117223419D01*
X159767209Y-117175038D01*
X159718828Y-117126657D01*
X159670447Y-117029895D01*
X159670447Y-116933133D01*
X159718828Y-116836371D01*
X159767209Y-116787990D01*
X159863971Y-116739609D01*
X160057495Y-116691228D01*
X160154257Y-116642847D01*
X160202638Y-116594466D01*
X160251019Y-116497704D01*
X160251019Y-116400942D01*
X160202638Y-116304180D01*
X160154257Y-116255800D01*
X160057495Y-116207419D01*
X159815590Y-116207419D01*
X159670447Y-116255800D01*
X158606066Y-116207419D02*
X158267400Y-117223419D01*
X157928733Y-116207419D01*
X157057876Y-117223419D02*
X157638447Y-117223419D01*
X157348161Y-117223419D02*
X157348161Y-116207419D01*
X157444923Y-116352561D01*
X157541685Y-116449323D01*
X157638447Y-116497704D01*
X156622447Y-117126657D02*
X156574066Y-117175038D01*
X156622447Y-117223419D01*
X156670828Y-117175038D01*
X156622447Y-117126657D01*
X156622447Y-117223419D01*
X155945114Y-116207419D02*
X155848352Y-116207419D01*
X155751590Y-116255800D01*
X155703209Y-116304180D01*
X155654828Y-116400942D01*
X155606447Y-116594466D01*
X155606447Y-116836371D01*
X155654828Y-117029895D01*
X155703209Y-117126657D01*
X155751590Y-117175038D01*
X155848352Y-117223419D01*
X155945114Y-117223419D01*
X156041876Y-117175038D01*
X156090257Y-117126657D01*
X156138638Y-117029895D01*
X156187019Y-116836371D01*
X156187019Y-116594466D01*
X156138638Y-116400942D01*
X156090257Y-116304180D01*
X156041876Y-116255800D01*
X155945114Y-116207419D01*
X143900676Y-124938971D02*
X142630676Y-124636590D01*
X143537819Y-124394685D01*
X142630676Y-124152780D01*
X143900676Y-123850400D01*
X143900676Y-123487542D02*
X142630676Y-123185161D01*
X143537819Y-122943257D01*
X142630676Y-122701352D01*
X143900676Y-122398971D01*
X143900676Y-122036114D02*
X142630676Y-121733733D01*
X143537819Y-121491828D01*
X142630676Y-121249923D01*
X143900676Y-120947542D01*
X142751628Y-120463733D02*
X142691152Y-120403257D01*
X142630676Y-120463733D01*
X142691152Y-120524209D01*
X142751628Y-120463733D01*
X142630676Y-120463733D01*
X143900676Y-119979923D02*
X142630676Y-119677542D01*
X143537819Y-119435638D01*
X142630676Y-119193733D01*
X143900676Y-118891352D01*
X143900676Y-118407542D02*
X142872580Y-118407542D01*
X142751628Y-118347066D01*
X142691152Y-118286590D01*
X142630676Y-118165638D01*
X142630676Y-117923733D01*
X142691152Y-117802780D01*
X142751628Y-117742304D01*
X142872580Y-117681828D01*
X143900676Y-117681828D01*
X143900676Y-116714209D02*
X142993533Y-116714209D01*
X142812104Y-116774685D01*
X142691152Y-116895638D01*
X142630676Y-117077066D01*
X142630676Y-117198019D01*
X142630676Y-116109447D02*
X143900676Y-116109447D01*
X142509723Y-114658019D02*
X142570200Y-114778971D01*
X142691152Y-114899923D01*
X142872580Y-115081352D01*
X142933057Y-115202304D01*
X142933057Y-115323257D01*
X142630676Y-115262780D02*
X142691152Y-115383733D01*
X142812104Y-115504685D01*
X143054009Y-115565161D01*
X143477342Y-115565161D01*
X143719247Y-115504685D01*
X143840200Y-115383733D01*
X143900676Y-115262780D01*
X143900676Y-115020876D01*
X143840200Y-114899923D01*
X143719247Y-114778971D01*
X143477342Y-114718495D01*
X143054009Y-114718495D01*
X142812104Y-114778971D01*
X142691152Y-114899923D01*
X142630676Y-115020876D01*
X142630676Y-115262780D01*
X143900676Y-114174209D02*
X142872580Y-114174209D01*
X142751628Y-114113733D01*
X142691152Y-114053257D01*
X142630676Y-113932304D01*
X142630676Y-113690400D01*
X142691152Y-113569447D01*
X142751628Y-113508971D01*
X142872580Y-113448495D01*
X143900676Y-113448495D01*
X143295914Y-112843733D02*
X143295914Y-112420400D01*
X142630676Y-112238971D02*
X142630676Y-112843733D01*
X143900676Y-112843733D01*
X143900676Y-112238971D01*
X142751628Y-111694685D02*
X142691152Y-111634209D01*
X142630676Y-111694685D01*
X142691152Y-111755161D01*
X142751628Y-111694685D01*
X142630676Y-111694685D01*
X142751628Y-110364209D02*
X142691152Y-110424685D01*
X142630676Y-110606114D01*
X142630676Y-110727066D01*
X142691152Y-110908495D01*
X142812104Y-111029447D01*
X142933057Y-111089923D01*
X143174961Y-111150400D01*
X143356390Y-111150400D01*
X143598295Y-111089923D01*
X143719247Y-111029447D01*
X143840200Y-110908495D01*
X143900676Y-110727066D01*
X143900676Y-110606114D01*
X143840200Y-110424685D01*
X143779723Y-110364209D01*
X143900676Y-109578019D02*
X143900676Y-109336114D01*
X143840200Y-109215161D01*
X143719247Y-109094209D01*
X143477342Y-109033733D01*
X143054009Y-109033733D01*
X142812104Y-109094209D01*
X142691152Y-109215161D01*
X142630676Y-109336114D01*
X142630676Y-109578019D01*
X142691152Y-109698971D01*
X142812104Y-109819923D01*
X143054009Y-109880400D01*
X143477342Y-109880400D01*
X143719247Y-109819923D01*
X143840200Y-109698971D01*
X143900676Y-109578019D01*
X142630676Y-108489447D02*
X143900676Y-108489447D01*
X142993533Y-108066114D01*
X143900676Y-107642780D01*
X142630676Y-107642780D01*
D11*
G36*
X167145663Y-114607858D02*
G01*
X167106181Y-114608259D01*
X166990492Y-114611051D01*
X166893603Y-114619342D01*
X166812211Y-114634024D01*
X166743015Y-114655985D01*
X166682712Y-114686114D01*
X166628000Y-114725302D01*
X166608459Y-114742324D01*
X166576042Y-114782155D01*
X166546812Y-114836205D01*
X166524283Y-114896115D01*
X166511971Y-114953531D01*
X166510692Y-114974748D01*
X166518709Y-115033561D01*
X166540191Y-115097805D01*
X166571291Y-115158613D01*
X166608158Y-115207122D01*
X166614146Y-115212974D01*
X166664871Y-115254113D01*
X166720417Y-115286227D01*
X166783988Y-115310157D01*
X166858786Y-115326745D01*
X166948014Y-115336833D01*
X167054874Y-115341261D01*
X167103820Y-115341637D01*
X167166054Y-115341337D01*
X167209820Y-115340084D01*
X167239223Y-115337346D01*
X167258371Y-115332593D01*
X167271369Y-115325293D01*
X167278337Y-115319059D01*
X167284918Y-115311486D01*
X167290080Y-115301716D01*
X167293995Y-115287132D01*
X167296835Y-115265118D01*
X167298772Y-115233056D01*
X167299976Y-115188328D01*
X167300620Y-115128318D01*
X167300875Y-115050409D01*
X167300914Y-114974748D01*
X167301162Y-114873833D01*
X167301109Y-114793219D01*
X167300149Y-114754614D01*
X167154159Y-114754614D01*
X167154159Y-115194881D01*
X167061026Y-115194796D01*
X167004985Y-115193188D01*
X166946291Y-115189048D01*
X166897320Y-115183256D01*
X166895830Y-115183018D01*
X166816684Y-115163882D01*
X166755294Y-115134079D01*
X166708597Y-115091670D01*
X166678927Y-115045753D01*
X166660645Y-114994818D01*
X166662063Y-114946992D01*
X166683280Y-114895725D01*
X166724781Y-114842691D01*
X166782290Y-114803392D01*
X166857042Y-114777123D01*
X166907000Y-114767827D01*
X166963708Y-114761299D01*
X167023811Y-114756574D01*
X167074931Y-114754609D01*
X167077959Y-114754600D01*
X167154159Y-114754614D01*
X167300149Y-114754614D01*
X167299552Y-114730643D01*
X167295290Y-114683847D01*
X167287122Y-114650570D01*
X167273848Y-114628551D01*
X167254266Y-114615531D01*
X167227175Y-114609249D01*
X167191374Y-114607445D01*
X167145663Y-114607858D01*
G37*
X167145663Y-114607858D02*
X167106181Y-114608259D01*
X166990492Y-114611051D01*
X166893603Y-114619342D01*
X166812211Y-114634024D01*
X166743015Y-114655985D01*
X166682712Y-114686114D01*
X166628000Y-114725302D01*
X166608459Y-114742324D01*
X166576042Y-114782155D01*
X166546812Y-114836205D01*
X166524283Y-114896115D01*
X166511971Y-114953531D01*
X166510692Y-114974748D01*
X166518709Y-115033561D01*
X166540191Y-115097805D01*
X166571291Y-115158613D01*
X166608158Y-115207122D01*
X166614146Y-115212974D01*
X166664871Y-115254113D01*
X166720417Y-115286227D01*
X166783988Y-115310157D01*
X166858786Y-115326745D01*
X166948014Y-115336833D01*
X167054874Y-115341261D01*
X167103820Y-115341637D01*
X167166054Y-115341337D01*
X167209820Y-115340084D01*
X167239223Y-115337346D01*
X167258371Y-115332593D01*
X167271369Y-115325293D01*
X167278337Y-115319059D01*
X167284918Y-115311486D01*
X167290080Y-115301716D01*
X167293995Y-115287132D01*
X167296835Y-115265118D01*
X167298772Y-115233056D01*
X167299976Y-115188328D01*
X167300620Y-115128318D01*
X167300875Y-115050409D01*
X167300914Y-114974748D01*
X167301162Y-114873833D01*
X167301109Y-114793219D01*
X167300149Y-114754614D01*
X167154159Y-114754614D01*
X167154159Y-115194881D01*
X167061026Y-115194796D01*
X167004985Y-115193188D01*
X166946291Y-115189048D01*
X166897320Y-115183256D01*
X166895830Y-115183018D01*
X166816684Y-115163882D01*
X166755294Y-115134079D01*
X166708597Y-115091670D01*
X166678927Y-115045753D01*
X166660645Y-114994818D01*
X166662063Y-114946992D01*
X166683280Y-114895725D01*
X166724781Y-114842691D01*
X166782290Y-114803392D01*
X166857042Y-114777123D01*
X166907000Y-114767827D01*
X166963708Y-114761299D01*
X167023811Y-114756574D01*
X167074931Y-114754609D01*
X167077959Y-114754600D01*
X167154159Y-114754614D01*
X167300149Y-114754614D01*
X167299552Y-114730643D01*
X167295290Y-114683847D01*
X167287122Y-114650570D01*
X167273848Y-114628551D01*
X167254266Y-114615531D01*
X167227175Y-114609249D01*
X167191374Y-114607445D01*
X167145663Y-114607858D01*
G36*
X165737086Y-114607938D02*
G01*
X165667678Y-114608310D01*
X165615289Y-114609177D01*
X165577139Y-114610738D01*
X165550451Y-114613195D01*
X165532445Y-114616749D01*
X165520341Y-114621602D01*
X165511361Y-114627953D01*
X165508110Y-114630876D01*
X165488335Y-114661934D01*
X165484774Y-114697620D01*
X165497783Y-114729302D01*
X165503798Y-114735705D01*
X165513527Y-114741913D01*
X165529193Y-114746702D01*
X165553700Y-114750306D01*
X165589953Y-114752956D01*
X165640857Y-114754887D01*
X165709318Y-114756331D01*
X165771909Y-114757210D01*
X166019626Y-114760259D01*
X166023011Y-114825170D01*
X166026397Y-114890081D01*
X165858250Y-114890081D01*
X165785251Y-114890711D01*
X165731809Y-114893345D01*
X165694920Y-114899101D01*
X165671580Y-114909096D01*
X165658786Y-114924448D01*
X165653534Y-114946274D01*
X165652737Y-114966530D01*
X165655215Y-114991384D01*
X165664569Y-115009698D01*
X165683675Y-115022429D01*
X165715410Y-115030533D01*
X165762651Y-115034968D01*
X165828275Y-115036691D01*
X165864093Y-115036837D01*
X166025270Y-115036837D01*
X166025270Y-115194881D01*
X165776914Y-115194881D01*
X165695505Y-115194994D01*
X165633634Y-115195504D01*
X165588260Y-115196662D01*
X165556346Y-115198722D01*
X165534851Y-115201938D01*
X165520735Y-115206564D01*
X165510960Y-115212851D01*
X165505981Y-115217459D01*
X165488902Y-115244352D01*
X165483403Y-115268259D01*
X165491255Y-115297459D01*
X165505981Y-115319059D01*
X165513838Y-115325858D01*
X165523980Y-115331138D01*
X165539136Y-115335090D01*
X165562033Y-115337905D01*
X165595401Y-115339774D01*
X165641967Y-115340890D01*
X165704459Y-115341443D01*
X165785606Y-115341625D01*
X165827714Y-115341637D01*
X165917890Y-115341557D01*
X165988216Y-115341190D01*
X166041421Y-115340344D01*
X166080232Y-115338828D01*
X166107379Y-115336451D01*
X166125590Y-115333021D01*
X166137592Y-115328346D01*
X166146114Y-115322236D01*
X166149448Y-115319059D01*
X166156047Y-115311462D01*
X166161219Y-115301662D01*
X166165138Y-115287031D01*
X166167976Y-115264944D01*
X166169907Y-115232774D01*
X166171104Y-115187895D01*
X166171740Y-115127681D01*
X166171989Y-115049505D01*
X166172026Y-114976715D01*
X166171992Y-114883499D01*
X166171757Y-114810223D01*
X166171122Y-114754250D01*
X166169886Y-114712943D01*
X166167848Y-114683664D01*
X166164809Y-114663776D01*
X166160569Y-114650642D01*
X166154927Y-114641624D01*
X166147683Y-114634085D01*
X166145898Y-114632404D01*
X166137237Y-114624964D01*
X166127174Y-114619201D01*
X166112917Y-114614904D01*
X166091675Y-114611856D01*
X166060656Y-114609843D01*
X166017069Y-114608652D01*
X165958123Y-114608067D01*
X165881026Y-114607875D01*
X165826293Y-114607859D01*
X165737086Y-114607938D01*
G37*
X165737086Y-114607938D02*
X165667678Y-114608310D01*
X165615289Y-114609177D01*
X165577139Y-114610738D01*
X165550451Y-114613195D01*
X165532445Y-114616749D01*
X165520341Y-114621602D01*
X165511361Y-114627953D01*
X165508110Y-114630876D01*
X165488335Y-114661934D01*
X165484774Y-114697620D01*
X165497783Y-114729302D01*
X165503798Y-114735705D01*
X165513527Y-114741913D01*
X165529193Y-114746702D01*
X165553700Y-114750306D01*
X165589953Y-114752956D01*
X165640857Y-114754887D01*
X165709318Y-114756331D01*
X165771909Y-114757210D01*
X166019626Y-114760259D01*
X166023011Y-114825170D01*
X166026397Y-114890081D01*
X165858250Y-114890081D01*
X165785251Y-114890711D01*
X165731809Y-114893345D01*
X165694920Y-114899101D01*
X165671580Y-114909096D01*
X165658786Y-114924448D01*
X165653534Y-114946274D01*
X165652737Y-114966530D01*
X165655215Y-114991384D01*
X165664569Y-115009698D01*
X165683675Y-115022429D01*
X165715410Y-115030533D01*
X165762651Y-115034968D01*
X165828275Y-115036691D01*
X165864093Y-115036837D01*
X166025270Y-115036837D01*
X166025270Y-115194881D01*
X165776914Y-115194881D01*
X165695505Y-115194994D01*
X165633634Y-115195504D01*
X165588260Y-115196662D01*
X165556346Y-115198722D01*
X165534851Y-115201938D01*
X165520735Y-115206564D01*
X165510960Y-115212851D01*
X165505981Y-115217459D01*
X165488902Y-115244352D01*
X165483403Y-115268259D01*
X165491255Y-115297459D01*
X165505981Y-115319059D01*
X165513838Y-115325858D01*
X165523980Y-115331138D01*
X165539136Y-115335090D01*
X165562033Y-115337905D01*
X165595401Y-115339774D01*
X165641967Y-115340890D01*
X165704459Y-115341443D01*
X165785606Y-115341625D01*
X165827714Y-115341637D01*
X165917890Y-115341557D01*
X165988216Y-115341190D01*
X166041421Y-115340344D01*
X166080232Y-115338828D01*
X166107379Y-115336451D01*
X166125590Y-115333021D01*
X166137592Y-115328346D01*
X166146114Y-115322236D01*
X166149448Y-115319059D01*
X166156047Y-115311462D01*
X166161219Y-115301662D01*
X166165138Y-115287031D01*
X166167976Y-115264944D01*
X166169907Y-115232774D01*
X166171104Y-115187895D01*
X166171740Y-115127681D01*
X166171989Y-115049505D01*
X166172026Y-114976715D01*
X166171992Y-114883499D01*
X166171757Y-114810223D01*
X166171122Y-114754250D01*
X166169886Y-114712943D01*
X166167848Y-114683664D01*
X166164809Y-114663776D01*
X166160569Y-114650642D01*
X166154927Y-114641624D01*
X166147683Y-114634085D01*
X166145898Y-114632404D01*
X166137237Y-114624964D01*
X166127174Y-114619201D01*
X166112917Y-114614904D01*
X166091675Y-114611856D01*
X166060656Y-114609843D01*
X166017069Y-114608652D01*
X165958123Y-114608067D01*
X165881026Y-114607875D01*
X165826293Y-114607859D01*
X165737086Y-114607938D01*
G36*
X164715995Y-114609143D02*
G01*
X164641180Y-114614373D01*
X164571598Y-114622542D01*
X164511294Y-114633342D01*
X164464312Y-114646465D01*
X164434698Y-114661605D01*
X164430152Y-114666061D01*
X164414346Y-114700642D01*
X164419139Y-114736143D01*
X164443656Y-114766517D01*
X164444826Y-114767388D01*
X164459246Y-114776746D01*
X164474300Y-114781668D01*
X164495297Y-114782265D01*
X164527549Y-114778653D01*
X164576365Y-114770946D01*
X164580292Y-114770297D01*
X164653031Y-114761361D01*
X164731509Y-114756953D01*
X164810219Y-114756911D01*
X164883653Y-114761071D01*
X164946303Y-114769271D01*
X164992662Y-114781349D01*
X164995708Y-114782563D01*
X165029340Y-114801407D01*
X165041156Y-114820477D01*
X165031906Y-114839231D01*
X165002339Y-114857129D01*
X164953203Y-114873629D01*
X164885249Y-114888188D01*
X164839937Y-114895198D01*
X164745748Y-114908681D01*
X164670836Y-114921006D01*
X164612009Y-114933241D01*
X164566077Y-114946453D01*
X164529847Y-114961709D01*
X164500130Y-114980077D01*
X164473734Y-115002623D01*
X164452522Y-115024763D01*
X164427357Y-115055611D01*
X164414973Y-115082137D01*
X164411100Y-115114818D01*
X164410959Y-115126787D01*
X164413868Y-115166504D01*
X164425494Y-115196051D01*
X164445615Y-115222278D01*
X164486508Y-115262368D01*
X164532109Y-115292941D01*
X164585805Y-115314995D01*
X164650984Y-115329527D01*
X164731036Y-115337533D01*
X164829349Y-115340010D01*
X164845581Y-115339969D01*
X164911141Y-115338610D01*
X164976158Y-115335522D01*
X165033544Y-115331148D01*
X165076214Y-115325932D01*
X165079664Y-115325333D01*
X165122088Y-115315283D01*
X165158072Y-115302588D01*
X165178442Y-115290982D01*
X165197399Y-115260364D01*
X165198719Y-115224710D01*
X165182377Y-115192936D01*
X165178721Y-115189343D01*
X165163607Y-115178668D01*
X165144707Y-115174068D01*
X165115454Y-115174851D01*
X165079943Y-115178919D01*
X165040262Y-115182554D01*
X164984637Y-115185620D01*
X164919698Y-115187845D01*
X164852077Y-115188956D01*
X164834292Y-115189029D01*
X164766420Y-115188756D01*
X164716746Y-115187438D01*
X164680902Y-115184619D01*
X164654516Y-115179842D01*
X164633218Y-115172649D01*
X164620418Y-115166659D01*
X164592292Y-115150025D01*
X164574360Y-115134960D01*
X164571739Y-115130689D01*
X164577268Y-115113055D01*
X164603552Y-115095984D01*
X164648770Y-115080250D01*
X164711100Y-115066630D01*
X164729463Y-115063596D01*
X164825382Y-115048530D01*
X164901933Y-115035938D01*
X164962072Y-115024903D01*
X165008752Y-115014512D01*
X165044929Y-115003848D01*
X165073557Y-114991997D01*
X165097590Y-114978043D01*
X165119984Y-114961073D01*
X165143694Y-114940170D01*
X165151672Y-114932841D01*
X165179645Y-114905491D01*
X165194452Y-114883821D01*
X165200244Y-114859024D01*
X165201181Y-114827775D01*
X165190867Y-114766497D01*
X165160044Y-114714432D01*
X165108887Y-114671750D01*
X165037575Y-114638617D01*
X164986692Y-114623756D01*
X164931392Y-114614158D01*
X164865145Y-114608728D01*
X164791998Y-114607159D01*
X164715995Y-114609143D01*
G37*
X164715995Y-114609143D02*
X164641180Y-114614373D01*
X164571598Y-114622542D01*
X164511294Y-114633342D01*
X164464312Y-114646465D01*
X164434698Y-114661605D01*
X164430152Y-114666061D01*
X164414346Y-114700642D01*
X164419139Y-114736143D01*
X164443656Y-114766517D01*
X164444826Y-114767388D01*
X164459246Y-114776746D01*
X164474300Y-114781668D01*
X164495297Y-114782265D01*
X164527549Y-114778653D01*
X164576365Y-114770946D01*
X164580292Y-114770297D01*
X164653031Y-114761361D01*
X164731509Y-114756953D01*
X164810219Y-114756911D01*
X164883653Y-114761071D01*
X164946303Y-114769271D01*
X164992662Y-114781349D01*
X164995708Y-114782563D01*
X165029340Y-114801407D01*
X165041156Y-114820477D01*
X165031906Y-114839231D01*
X165002339Y-114857129D01*
X164953203Y-114873629D01*
X164885249Y-114888188D01*
X164839937Y-114895198D01*
X164745748Y-114908681D01*
X164670836Y-114921006D01*
X164612009Y-114933241D01*
X164566077Y-114946453D01*
X164529847Y-114961709D01*
X164500130Y-114980077D01*
X164473734Y-115002623D01*
X164452522Y-115024763D01*
X164427357Y-115055611D01*
X164414973Y-115082137D01*
X164411100Y-115114818D01*
X164410959Y-115126787D01*
X164413868Y-115166504D01*
X164425494Y-115196051D01*
X164445615Y-115222278D01*
X164486508Y-115262368D01*
X164532109Y-115292941D01*
X164585805Y-115314995D01*
X164650984Y-115329527D01*
X164731036Y-115337533D01*
X164829349Y-115340010D01*
X164845581Y-115339969D01*
X164911141Y-115338610D01*
X164976158Y-115335522D01*
X165033544Y-115331148D01*
X165076214Y-115325932D01*
X165079664Y-115325333D01*
X165122088Y-115315283D01*
X165158072Y-115302588D01*
X165178442Y-115290982D01*
X165197399Y-115260364D01*
X165198719Y-115224710D01*
X165182377Y-115192936D01*
X165178721Y-115189343D01*
X165163607Y-115178668D01*
X165144707Y-115174068D01*
X165115454Y-115174851D01*
X165079943Y-115178919D01*
X165040262Y-115182554D01*
X164984637Y-115185620D01*
X164919698Y-115187845D01*
X164852077Y-115188956D01*
X164834292Y-115189029D01*
X164766420Y-115188756D01*
X164716746Y-115187438D01*
X164680902Y-115184619D01*
X164654516Y-115179842D01*
X164633218Y-115172649D01*
X164620418Y-115166659D01*
X164592292Y-115150025D01*
X164574360Y-115134960D01*
X164571739Y-115130689D01*
X164577268Y-115113055D01*
X164603552Y-115095984D01*
X164648770Y-115080250D01*
X164711100Y-115066630D01*
X164729463Y-115063596D01*
X164825382Y-115048530D01*
X164901933Y-115035938D01*
X164962072Y-115024903D01*
X165008752Y-115014512D01*
X165044929Y-115003848D01*
X165073557Y-114991997D01*
X165097590Y-114978043D01*
X165119984Y-114961073D01*
X165143694Y-114940170D01*
X165151672Y-114932841D01*
X165179645Y-114905491D01*
X165194452Y-114883821D01*
X165200244Y-114859024D01*
X165201181Y-114827775D01*
X165190867Y-114766497D01*
X165160044Y-114714432D01*
X165108887Y-114671750D01*
X165037575Y-114638617D01*
X164986692Y-114623756D01*
X164931392Y-114614158D01*
X164865145Y-114608728D01*
X164791998Y-114607159D01*
X164715995Y-114609143D01*
G36*
X163948114Y-114630437D02*
G01*
X163941534Y-114638010D01*
X163936371Y-114647779D01*
X163932456Y-114662363D01*
X163929616Y-114684377D01*
X163927679Y-114716440D01*
X163926475Y-114761167D01*
X163925831Y-114821177D01*
X163925576Y-114899086D01*
X163925537Y-114974748D01*
X163925606Y-115068594D01*
X163925930Y-115142481D01*
X163926678Y-115199024D01*
X163928024Y-115240841D01*
X163930138Y-115270549D01*
X163933192Y-115290765D01*
X163937358Y-115304106D01*
X163942808Y-115313190D01*
X163948114Y-115319059D01*
X163981118Y-115338739D01*
X164016283Y-115336973D01*
X164047747Y-115315509D01*
X164054976Y-115307129D01*
X164060626Y-115297406D01*
X164064891Y-115283653D01*
X164067965Y-115263181D01*
X164070044Y-115233304D01*
X164071322Y-115191333D01*
X164071993Y-115134581D01*
X164072251Y-115060359D01*
X164072292Y-114976329D01*
X164072292Y-114663277D01*
X164044583Y-114635568D01*
X164010429Y-114612255D01*
X163977298Y-114611415D01*
X163948114Y-114630437D01*
G37*
X163948114Y-114630437D02*
X163941534Y-114638010D01*
X163936371Y-114647779D01*
X163932456Y-114662363D01*
X163929616Y-114684377D01*
X163927679Y-114716440D01*
X163926475Y-114761167D01*
X163925831Y-114821177D01*
X163925576Y-114899086D01*
X163925537Y-114974748D01*
X163925606Y-115068594D01*
X163925930Y-115142481D01*
X163926678Y-115199024D01*
X163928024Y-115240841D01*
X163930138Y-115270549D01*
X163933192Y-115290765D01*
X163937358Y-115304106D01*
X163942808Y-115313190D01*
X163948114Y-115319059D01*
X163981118Y-115338739D01*
X164016283Y-115336973D01*
X164047747Y-115315509D01*
X164054976Y-115307129D01*
X164060626Y-115297406D01*
X164064891Y-115283653D01*
X164067965Y-115263181D01*
X164070044Y-115233304D01*
X164071322Y-115191333D01*
X164071993Y-115134581D01*
X164072251Y-115060359D01*
X164072292Y-114976329D01*
X164072292Y-114663277D01*
X164044583Y-114635568D01*
X164010429Y-114612255D01*
X163977298Y-114611415D01*
X163948114Y-114630437D01*
G36*
X162974373Y-114613391D02*
G01*
X162905857Y-114624887D01*
X162853235Y-114642759D01*
X162819000Y-114666291D01*
X162809671Y-114679716D01*
X162800185Y-114710940D01*
X162806569Y-114739187D01*
X162826722Y-114765974D01*
X162858037Y-114778505D01*
X162903475Y-114777488D01*
X162938618Y-114770698D01*
X163016711Y-114757763D01*
X163096518Y-114756534D01*
X163185847Y-114767033D01*
X163210521Y-114771482D01*
X163293583Y-114794900D01*
X163358565Y-114829737D01*
X163404753Y-114875396D01*
X163431437Y-114931286D01*
X163436955Y-114960180D01*
X163433343Y-115018804D01*
X163410021Y-115070671D01*
X163369116Y-115114770D01*
X163312751Y-115150091D01*
X163243052Y-115175621D01*
X163162144Y-115190351D01*
X163072152Y-115193270D01*
X162975202Y-115183367D01*
X162969728Y-115182433D01*
X162931167Y-115175251D01*
X162909786Y-115168313D01*
X162900519Y-115158019D01*
X162898298Y-115140768D01*
X162898248Y-115131633D01*
X162898248Y-115093281D01*
X162966723Y-115093281D01*
X163027192Y-115089139D01*
X163068457Y-115075939D01*
X163092467Y-115052522D01*
X163101169Y-115017728D01*
X163101275Y-115013186D01*
X163096184Y-114983446D01*
X163078725Y-114962211D01*
X163046231Y-114948158D01*
X162996035Y-114939965D01*
X162947415Y-114936953D01*
X162876748Y-114935225D01*
X162825490Y-114937862D01*
X162790531Y-114947592D01*
X162768762Y-114967145D01*
X162757072Y-114999248D01*
X162752352Y-115046630D01*
X162751492Y-115108863D01*
X162752901Y-115178327D01*
X162757140Y-115225578D01*
X162764228Y-115250804D01*
X162765603Y-115252780D01*
X162804520Y-115284300D01*
X162861578Y-115309262D01*
X162933161Y-115327132D01*
X163015650Y-115337378D01*
X163105431Y-115339465D01*
X163198884Y-115332860D01*
X163253848Y-115324748D01*
X163340058Y-115300346D01*
X163420184Y-115260454D01*
X163487269Y-115208679D01*
X163497465Y-115198331D01*
X163530594Y-115154827D01*
X163560486Y-115100910D01*
X163583649Y-115044384D01*
X163596590Y-114993051D01*
X163598150Y-114973336D01*
X163591510Y-114932211D01*
X163573860Y-114881044D01*
X163548589Y-114827186D01*
X163519081Y-114777987D01*
X163493011Y-114745126D01*
X163432057Y-114696244D01*
X163353261Y-114657337D01*
X163259449Y-114629286D01*
X163153442Y-114612971D01*
X163056292Y-114608984D01*
X162974373Y-114613391D01*
G37*
X162974373Y-114613391D02*
X162905857Y-114624887D01*
X162853235Y-114642759D01*
X162819000Y-114666291D01*
X162809671Y-114679716D01*
X162800185Y-114710940D01*
X162806569Y-114739187D01*
X162826722Y-114765974D01*
X162858037Y-114778505D01*
X162903475Y-114777488D01*
X162938618Y-114770698D01*
X163016711Y-114757763D01*
X163096518Y-114756534D01*
X163185847Y-114767033D01*
X163210521Y-114771482D01*
X163293583Y-114794900D01*
X163358565Y-114829737D01*
X163404753Y-114875396D01*
X163431437Y-114931286D01*
X163436955Y-114960180D01*
X163433343Y-115018804D01*
X163410021Y-115070671D01*
X163369116Y-115114770D01*
X163312751Y-115150091D01*
X163243052Y-115175621D01*
X163162144Y-115190351D01*
X163072152Y-115193270D01*
X162975202Y-115183367D01*
X162969728Y-115182433D01*
X162931167Y-115175251D01*
X162909786Y-115168313D01*
X162900519Y-115158019D01*
X162898298Y-115140768D01*
X162898248Y-115131633D01*
X162898248Y-115093281D01*
X162966723Y-115093281D01*
X163027192Y-115089139D01*
X163068457Y-115075939D01*
X163092467Y-115052522D01*
X163101169Y-115017728D01*
X163101275Y-115013186D01*
X163096184Y-114983446D01*
X163078725Y-114962211D01*
X163046231Y-114948158D01*
X162996035Y-114939965D01*
X162947415Y-114936953D01*
X162876748Y-114935225D01*
X162825490Y-114937862D01*
X162790531Y-114947592D01*
X162768762Y-114967145D01*
X162757072Y-114999248D01*
X162752352Y-115046630D01*
X162751492Y-115108863D01*
X162752901Y-115178327D01*
X162757140Y-115225578D01*
X162764228Y-115250804D01*
X162765603Y-115252780D01*
X162804520Y-115284300D01*
X162861578Y-115309262D01*
X162933161Y-115327132D01*
X163015650Y-115337378D01*
X163105431Y-115339465D01*
X163198884Y-115332860D01*
X163253848Y-115324748D01*
X163340058Y-115300346D01*
X163420184Y-115260454D01*
X163487269Y-115208679D01*
X163497465Y-115198331D01*
X163530594Y-115154827D01*
X163560486Y-115100910D01*
X163583649Y-115044384D01*
X163596590Y-114993051D01*
X163598150Y-114973336D01*
X163591510Y-114932211D01*
X163573860Y-114881044D01*
X163548589Y-114827186D01*
X163519081Y-114777987D01*
X163493011Y-114745126D01*
X163432057Y-114696244D01*
X163353261Y-114657337D01*
X163259449Y-114629286D01*
X163153442Y-114612971D01*
X163056292Y-114608984D01*
X162974373Y-114613391D01*
G36*
X162324406Y-114612240D02*
G01*
X162300840Y-114626065D01*
X162270027Y-114648673D01*
X162230370Y-114681130D01*
X162180272Y-114724500D01*
X162118135Y-114779850D01*
X162042364Y-114848243D01*
X161955626Y-114926876D01*
X161775003Y-115090670D01*
X161769359Y-114870821D01*
X161767321Y-114795143D01*
X161765355Y-114738786D01*
X161763026Y-114698498D01*
X161759898Y-114671027D01*
X161755537Y-114653121D01*
X161749508Y-114641529D01*
X161741376Y-114633000D01*
X161737064Y-114629415D01*
X161702533Y-114610462D01*
X161669675Y-114613233D01*
X161643610Y-114629425D01*
X161616959Y-114650991D01*
X161613644Y-114965943D01*
X161612727Y-115058571D01*
X161612260Y-115131336D01*
X161612405Y-115186953D01*
X161613324Y-115228134D01*
X161615179Y-115257595D01*
X161618131Y-115278047D01*
X161622342Y-115292205D01*
X161627974Y-115302783D01*
X161634219Y-115311266D01*
X161647731Y-115326999D01*
X161661175Y-115337428D01*
X161676416Y-115341431D01*
X161695318Y-115337886D01*
X161719747Y-115325671D01*
X161751565Y-115303663D01*
X161792640Y-115270741D01*
X161844834Y-115225783D01*
X161910014Y-115167667D01*
X161983848Y-115100891D01*
X162249137Y-114860250D01*
X162254781Y-115079381D01*
X162256823Y-115154920D01*
X162258794Y-115211146D01*
X162261131Y-115251316D01*
X162264273Y-115278688D01*
X162268656Y-115296520D01*
X162274716Y-115308071D01*
X162282892Y-115316599D01*
X162287076Y-115320074D01*
X162324057Y-115339164D01*
X162359000Y-115336285D01*
X162389428Y-115311892D01*
X162396389Y-115302078D01*
X162401815Y-115290618D01*
X162405895Y-115274760D01*
X162408821Y-115251755D01*
X162410784Y-115218854D01*
X162411975Y-115173308D01*
X162412584Y-115112365D01*
X162412803Y-115033278D01*
X162412826Y-114974748D01*
X162412752Y-114883199D01*
X162412405Y-114811479D01*
X162411593Y-114756837D01*
X162410125Y-114716524D01*
X162407811Y-114687790D01*
X162404459Y-114667885D01*
X162399880Y-114654060D01*
X162393881Y-114643564D01*
X162389428Y-114637603D01*
X162378142Y-114623483D01*
X162367593Y-114612821D01*
X162356185Y-114606684D01*
X162342322Y-114606135D01*
X162324406Y-114612240D01*
G37*
X162324406Y-114612240D02*
X162300840Y-114626065D01*
X162270027Y-114648673D01*
X162230370Y-114681130D01*
X162180272Y-114724500D01*
X162118135Y-114779850D01*
X162042364Y-114848243D01*
X161955626Y-114926876D01*
X161775003Y-115090670D01*
X161769359Y-114870821D01*
X161767321Y-114795143D01*
X161765355Y-114738786D01*
X161763026Y-114698498D01*
X161759898Y-114671027D01*
X161755537Y-114653121D01*
X161749508Y-114641529D01*
X161741376Y-114633000D01*
X161737064Y-114629415D01*
X161702533Y-114610462D01*
X161669675Y-114613233D01*
X161643610Y-114629425D01*
X161616959Y-114650991D01*
X161613644Y-114965943D01*
X161612727Y-115058571D01*
X161612260Y-115131336D01*
X161612405Y-115186953D01*
X161613324Y-115228134D01*
X161615179Y-115257595D01*
X161618131Y-115278047D01*
X161622342Y-115292205D01*
X161627974Y-115302783D01*
X161634219Y-115311266D01*
X161647731Y-115326999D01*
X161661175Y-115337428D01*
X161676416Y-115341431D01*
X161695318Y-115337886D01*
X161719747Y-115325671D01*
X161751565Y-115303663D01*
X161792640Y-115270741D01*
X161844834Y-115225783D01*
X161910014Y-115167667D01*
X161983848Y-115100891D01*
X162249137Y-114860250D01*
X162254781Y-115079381D01*
X162256823Y-115154920D01*
X162258794Y-115211146D01*
X162261131Y-115251316D01*
X162264273Y-115278688D01*
X162268656Y-115296520D01*
X162274716Y-115308071D01*
X162282892Y-115316599D01*
X162287076Y-115320074D01*
X162324057Y-115339164D01*
X162359000Y-115336285D01*
X162389428Y-115311892D01*
X162396389Y-115302078D01*
X162401815Y-115290618D01*
X162405895Y-115274760D01*
X162408821Y-115251755D01*
X162410784Y-115218854D01*
X162411975Y-115173308D01*
X162412584Y-115112365D01*
X162412803Y-115033278D01*
X162412826Y-114974748D01*
X162412752Y-114883199D01*
X162412405Y-114811479D01*
X162411593Y-114756837D01*
X162410125Y-114716524D01*
X162407811Y-114687790D01*
X162404459Y-114667885D01*
X162399880Y-114654060D01*
X162393881Y-114643564D01*
X162389428Y-114637603D01*
X162378142Y-114623483D01*
X162367593Y-114612821D01*
X162356185Y-114606684D01*
X162342322Y-114606135D01*
X162324406Y-114612240D01*
G36*
X160793949Y-114608052D02*
G01*
X160717591Y-114608966D01*
X160659075Y-114611103D01*
X160616037Y-114614967D01*
X160586109Y-114621059D01*
X160566924Y-114629882D01*
X160556116Y-114641938D01*
X160551319Y-114657731D01*
X160550165Y-114677762D01*
X160550159Y-114680127D01*
X160551161Y-114702784D01*
X160555896Y-114720295D01*
X160566959Y-114733366D01*
X160586944Y-114742705D01*
X160618446Y-114749019D01*
X160664060Y-114753014D01*
X160726379Y-114755398D01*
X160807999Y-114756878D01*
X160833015Y-114757206D01*
X161075092Y-114760259D01*
X161078478Y-114825170D01*
X161081863Y-114890081D01*
X160913716Y-114890081D01*
X160848026Y-114890323D01*
X160801120Y-114891348D01*
X160769209Y-114893603D01*
X160748501Y-114897534D01*
X160735208Y-114903590D01*
X160725537Y-114912216D01*
X160725475Y-114912285D01*
X160707936Y-114945904D01*
X160708570Y-114982240D01*
X160726978Y-115013215D01*
X160730621Y-115016399D01*
X160743551Y-115024604D01*
X160761268Y-115030313D01*
X160787722Y-115033954D01*
X160826860Y-115035959D01*
X160882630Y-115036756D01*
X160918298Y-115036837D01*
X161080737Y-115036837D01*
X161080737Y-115194881D01*
X160834131Y-115194881D01*
X160752712Y-115195023D01*
X160690882Y-115195606D01*
X160645655Y-115196860D01*
X160614044Y-115199019D01*
X160593061Y-115202315D01*
X160579719Y-115206981D01*
X160571031Y-115213249D01*
X160568842Y-115215525D01*
X160552678Y-115247072D01*
X160551495Y-115282960D01*
X160564756Y-115314077D01*
X160575249Y-115324063D01*
X160586163Y-115329561D01*
X160603075Y-115333814D01*
X160628659Y-115336972D01*
X160665591Y-115339184D01*
X160716546Y-115340598D01*
X160784198Y-115341364D01*
X160871223Y-115341630D01*
X160890898Y-115341637D01*
X160979381Y-115341579D01*
X161048065Y-115341259D01*
X161099728Y-115340459D01*
X161137147Y-115338959D01*
X161163102Y-115336541D01*
X161180370Y-115332986D01*
X161191730Y-115328074D01*
X161199960Y-115321587D01*
X161204475Y-115316930D01*
X161211271Y-115308681D01*
X161216580Y-115298461D01*
X161220586Y-115283592D01*
X161223471Y-115261394D01*
X161225418Y-115229185D01*
X161226611Y-115184288D01*
X161227231Y-115124020D01*
X161227463Y-115045703D01*
X161227492Y-114979786D01*
X161227421Y-114887420D01*
X161227084Y-114814909D01*
X161226294Y-114759529D01*
X161224866Y-114718557D01*
X161222613Y-114689270D01*
X161219349Y-114668945D01*
X161214888Y-114654858D01*
X161209044Y-114644287D01*
X161204095Y-114637603D01*
X161180698Y-114607859D01*
X160890518Y-114607859D01*
X160793949Y-114608052D01*
G37*
X160793949Y-114608052D02*
X160717591Y-114608966D01*
X160659075Y-114611103D01*
X160616037Y-114614967D01*
X160586109Y-114621059D01*
X160566924Y-114629882D01*
X160556116Y-114641938D01*
X160551319Y-114657731D01*
X160550165Y-114677762D01*
X160550159Y-114680127D01*
X160551161Y-114702784D01*
X160555896Y-114720295D01*
X160566959Y-114733366D01*
X160586944Y-114742705D01*
X160618446Y-114749019D01*
X160664060Y-114753014D01*
X160726379Y-114755398D01*
X160807999Y-114756878D01*
X160833015Y-114757206D01*
X161075092Y-114760259D01*
X161078478Y-114825170D01*
X161081863Y-114890081D01*
X160913716Y-114890081D01*
X160848026Y-114890323D01*
X160801120Y-114891348D01*
X160769209Y-114893603D01*
X160748501Y-114897534D01*
X160735208Y-114903590D01*
X160725537Y-114912216D01*
X160725475Y-114912285D01*
X160707936Y-114945904D01*
X160708570Y-114982240D01*
X160726978Y-115013215D01*
X160730621Y-115016399D01*
X160743551Y-115024604D01*
X160761268Y-115030313D01*
X160787722Y-115033954D01*
X160826860Y-115035959D01*
X160882630Y-115036756D01*
X160918298Y-115036837D01*
X161080737Y-115036837D01*
X161080737Y-115194881D01*
X160834131Y-115194881D01*
X160752712Y-115195023D01*
X160690882Y-115195606D01*
X160645655Y-115196860D01*
X160614044Y-115199019D01*
X160593061Y-115202315D01*
X160579719Y-115206981D01*
X160571031Y-115213249D01*
X160568842Y-115215525D01*
X160552678Y-115247072D01*
X160551495Y-115282960D01*
X160564756Y-115314077D01*
X160575249Y-115324063D01*
X160586163Y-115329561D01*
X160603075Y-115333814D01*
X160628659Y-115336972D01*
X160665591Y-115339184D01*
X160716546Y-115340598D01*
X160784198Y-115341364D01*
X160871223Y-115341630D01*
X160890898Y-115341637D01*
X160979381Y-115341579D01*
X161048065Y-115341259D01*
X161099728Y-115340459D01*
X161137147Y-115338959D01*
X161163102Y-115336541D01*
X161180370Y-115332986D01*
X161191730Y-115328074D01*
X161199960Y-115321587D01*
X161204475Y-115316930D01*
X161211271Y-115308681D01*
X161216580Y-115298461D01*
X161220586Y-115283592D01*
X161223471Y-115261394D01*
X161225418Y-115229185D01*
X161226611Y-115184288D01*
X161227231Y-115124020D01*
X161227463Y-115045703D01*
X161227492Y-114979786D01*
X161227421Y-114887420D01*
X161227084Y-114814909D01*
X161226294Y-114759529D01*
X161224866Y-114718557D01*
X161222613Y-114689270D01*
X161219349Y-114668945D01*
X161214888Y-114654858D01*
X161209044Y-114644287D01*
X161204095Y-114637603D01*
X161180698Y-114607859D01*
X160890518Y-114607859D01*
X160793949Y-114608052D01*
G36*
X160005983Y-114608067D02*
G01*
X159877004Y-114612428D01*
X159767301Y-114625653D01*
X159675066Y-114648533D01*
X159598490Y-114681862D01*
X159535765Y-114726430D01*
X159485080Y-114783028D01*
X159444629Y-114852450D01*
X159443833Y-114854143D01*
X159419691Y-114916275D01*
X159411089Y-114971301D01*
X159418061Y-115026679D01*
X159440638Y-115089865D01*
X159444920Y-115099481D01*
X159474120Y-115155758D01*
X159506936Y-115199243D01*
X159549290Y-115236209D01*
X159607102Y-115272927D01*
X159610461Y-115274844D01*
X159660788Y-115299019D01*
X159717671Y-115317074D01*
X159784765Y-115329631D01*
X159865727Y-115337314D01*
X159964210Y-115340745D01*
X159999006Y-115341043D01*
X160164698Y-115341637D01*
X160188095Y-115311892D01*
X160195035Y-115302111D01*
X160200450Y-115290689D01*
X160204527Y-115274887D01*
X160207455Y-115251967D01*
X160209425Y-115219188D01*
X160210067Y-115194881D01*
X160053448Y-115194881D01*
X159959566Y-115194881D01*
X159904628Y-115193275D01*
X159848232Y-115189047D01*
X159801947Y-115183084D01*
X159799153Y-115182582D01*
X159716944Y-115160528D01*
X159653178Y-115127392D01*
X159605840Y-115081639D01*
X159572910Y-115021731D01*
X159567184Y-115005853D01*
X159561571Y-114981125D01*
X159564001Y-114956694D01*
X159575825Y-114924192D01*
X159582952Y-114908226D01*
X159606292Y-114865798D01*
X159634412Y-114836032D01*
X159665352Y-114815303D01*
X159727326Y-114788329D01*
X159806641Y-114768790D01*
X159899039Y-114757538D01*
X159965959Y-114755062D01*
X160053448Y-114754614D01*
X160053448Y-115194881D01*
X160210067Y-115194881D01*
X160210624Y-115173813D01*
X160211242Y-115113103D01*
X160211467Y-115034318D01*
X160211492Y-114972712D01*
X160211492Y-114663277D01*
X160183783Y-114635568D01*
X160171486Y-114624336D01*
X160158189Y-114616645D01*
X160139620Y-114611832D01*
X160111506Y-114609238D01*
X160069575Y-114608202D01*
X160009555Y-114608062D01*
X160005983Y-114608067D01*
G37*
X160005983Y-114608067D02*
X159877004Y-114612428D01*
X159767301Y-114625653D01*
X159675066Y-114648533D01*
X159598490Y-114681862D01*
X159535765Y-114726430D01*
X159485080Y-114783028D01*
X159444629Y-114852450D01*
X159443833Y-114854143D01*
X159419691Y-114916275D01*
X159411089Y-114971301D01*
X159418061Y-115026679D01*
X159440638Y-115089865D01*
X159444920Y-115099481D01*
X159474120Y-115155758D01*
X159506936Y-115199243D01*
X159549290Y-115236209D01*
X159607102Y-115272927D01*
X159610461Y-115274844D01*
X159660788Y-115299019D01*
X159717671Y-115317074D01*
X159784765Y-115329631D01*
X159865727Y-115337314D01*
X159964210Y-115340745D01*
X159999006Y-115341043D01*
X160164698Y-115341637D01*
X160188095Y-115311892D01*
X160195035Y-115302111D01*
X160200450Y-115290689D01*
X160204527Y-115274887D01*
X160207455Y-115251967D01*
X160209425Y-115219188D01*
X160210067Y-115194881D01*
X160053448Y-115194881D01*
X159959566Y-115194881D01*
X159904628Y-115193275D01*
X159848232Y-115189047D01*
X159801947Y-115183084D01*
X159799153Y-115182582D01*
X159716944Y-115160528D01*
X159653178Y-115127392D01*
X159605840Y-115081639D01*
X159572910Y-115021731D01*
X159567184Y-115005853D01*
X159561571Y-114981125D01*
X159564001Y-114956694D01*
X159575825Y-114924192D01*
X159582952Y-114908226D01*
X159606292Y-114865798D01*
X159634412Y-114836032D01*
X159665352Y-114815303D01*
X159727326Y-114788329D01*
X159806641Y-114768790D01*
X159899039Y-114757538D01*
X159965959Y-114755062D01*
X160053448Y-114754614D01*
X160053448Y-115194881D01*
X160210067Y-115194881D01*
X160210624Y-115173813D01*
X160211242Y-115113103D01*
X160211467Y-115034318D01*
X160211492Y-114972712D01*
X160211492Y-114663277D01*
X160183783Y-114635568D01*
X160171486Y-114624336D01*
X160158189Y-114616645D01*
X160139620Y-114611832D01*
X160111506Y-114609238D01*
X160069575Y-114608202D01*
X160009555Y-114608062D01*
X160005983Y-114608067D01*
G36*
X157279627Y-114609826D02*
G01*
X157260037Y-114616827D01*
X157259282Y-114617169D01*
X157232679Y-114637470D01*
X157218022Y-114658353D01*
X157215154Y-114668144D01*
X157215296Y-114681153D01*
X157219331Y-114699687D01*
X157228146Y-114726049D01*
X157242623Y-114762544D01*
X157263647Y-114811479D01*
X157292104Y-114875157D01*
X157328877Y-114955885D01*
X157349117Y-115000008D01*
X157385667Y-115078777D01*
X157419977Y-115151215D01*
X157450740Y-115214672D01*
X157476644Y-115266500D01*
X157496382Y-115304051D01*
X157508642Y-115324676D01*
X157511068Y-115327525D01*
X157542109Y-115340094D01*
X157577171Y-115338411D01*
X157605292Y-115323124D01*
X157606438Y-115321881D01*
X157617624Y-115304946D01*
X157636388Y-115271962D01*
X157660417Y-115227172D01*
X157687395Y-115174824D01*
X157697091Y-115155534D01*
X157770278Y-115008942D01*
X157850052Y-115168185D01*
X157878525Y-115223207D01*
X157904942Y-115270924D01*
X157927144Y-115307685D01*
X157942973Y-115329836D01*
X157948338Y-115334533D01*
X157990035Y-115340894D01*
X158024443Y-115327525D01*
X158034564Y-115313238D01*
X158052078Y-115281484D01*
X158075557Y-115235389D01*
X158103572Y-115178077D01*
X158134693Y-115112672D01*
X158167493Y-115042299D01*
X158200542Y-114970083D01*
X158232411Y-114899147D01*
X158261673Y-114832617D01*
X158286897Y-114773618D01*
X158306656Y-114725273D01*
X158319520Y-114690707D01*
X158324061Y-114673045D01*
X158324015Y-114672405D01*
X158312966Y-114650180D01*
X158290882Y-114627545D01*
X158289582Y-114626560D01*
X158262439Y-114611217D01*
X158237334Y-114611366D01*
X158227924Y-114614258D01*
X158216458Y-114620510D01*
X158204282Y-114632806D01*
X158189935Y-114653700D01*
X158171956Y-114685741D01*
X158148885Y-114731480D01*
X158119262Y-114793469D01*
X158092547Y-114850690D01*
X158061812Y-114917018D01*
X158034271Y-114976666D01*
X158011354Y-115026517D01*
X157994494Y-115063456D01*
X157985119Y-115084365D01*
X157983752Y-115087637D01*
X157977603Y-115082289D01*
X157963470Y-115059901D01*
X157943235Y-115023738D01*
X157918777Y-114977069D01*
X157909044Y-114957814D01*
X157876075Y-114892796D01*
X157850649Y-114845446D01*
X157830680Y-114813011D01*
X157814082Y-114792738D01*
X157798768Y-114781874D01*
X157782652Y-114777667D01*
X157772149Y-114777192D01*
X157753622Y-114778834D01*
X157737388Y-114785623D01*
X157721257Y-114800358D01*
X157703041Y-114825836D01*
X157680553Y-114864853D01*
X157651603Y-114920206D01*
X157635630Y-114951695D01*
X157609722Y-115001879D01*
X157587125Y-115043496D01*
X157569834Y-115073034D01*
X157559842Y-115086981D01*
X157558483Y-115087562D01*
X157552031Y-115076585D01*
X157537584Y-115048082D01*
X157516589Y-115005036D01*
X157490495Y-114950430D01*
X157460746Y-114887246D01*
X157446112Y-114855863D01*
X157408042Y-114774870D01*
X157377387Y-114712548D01*
X157352555Y-114666863D01*
X157331955Y-114635781D01*
X157313994Y-114617270D01*
X157297082Y-114609296D01*
X157279627Y-114609826D01*
G37*
X157279627Y-114609826D02*
X157260037Y-114616827D01*
X157259282Y-114617169D01*
X157232679Y-114637470D01*
X157218022Y-114658353D01*
X157215154Y-114668144D01*
X157215296Y-114681153D01*
X157219331Y-114699687D01*
X157228146Y-114726049D01*
X157242623Y-114762544D01*
X157263647Y-114811479D01*
X157292104Y-114875157D01*
X157328877Y-114955885D01*
X157349117Y-115000008D01*
X157385667Y-115078777D01*
X157419977Y-115151215D01*
X157450740Y-115214672D01*
X157476644Y-115266500D01*
X157496382Y-115304051D01*
X157508642Y-115324676D01*
X157511068Y-115327525D01*
X157542109Y-115340094D01*
X157577171Y-115338411D01*
X157605292Y-115323124D01*
X157606438Y-115321881D01*
X157617624Y-115304946D01*
X157636388Y-115271962D01*
X157660417Y-115227172D01*
X157687395Y-115174824D01*
X157697091Y-115155534D01*
X157770278Y-115008942D01*
X157850052Y-115168185D01*
X157878525Y-115223207D01*
X157904942Y-115270924D01*
X157927144Y-115307685D01*
X157942973Y-115329836D01*
X157948338Y-115334533D01*
X157990035Y-115340894D01*
X158024443Y-115327525D01*
X158034564Y-115313238D01*
X158052078Y-115281484D01*
X158075557Y-115235389D01*
X158103572Y-115178077D01*
X158134693Y-115112672D01*
X158167493Y-115042299D01*
X158200542Y-114970083D01*
X158232411Y-114899147D01*
X158261673Y-114832617D01*
X158286897Y-114773618D01*
X158306656Y-114725273D01*
X158319520Y-114690707D01*
X158324061Y-114673045D01*
X158324015Y-114672405D01*
X158312966Y-114650180D01*
X158290882Y-114627545D01*
X158289582Y-114626560D01*
X158262439Y-114611217D01*
X158237334Y-114611366D01*
X158227924Y-114614258D01*
X158216458Y-114620510D01*
X158204282Y-114632806D01*
X158189935Y-114653700D01*
X158171956Y-114685741D01*
X158148885Y-114731480D01*
X158119262Y-114793469D01*
X158092547Y-114850690D01*
X158061812Y-114917018D01*
X158034271Y-114976666D01*
X158011354Y-115026517D01*
X157994494Y-115063456D01*
X157985119Y-115084365D01*
X157983752Y-115087637D01*
X157977603Y-115082289D01*
X157963470Y-115059901D01*
X157943235Y-115023738D01*
X157918777Y-114977069D01*
X157909044Y-114957814D01*
X157876075Y-114892796D01*
X157850649Y-114845446D01*
X157830680Y-114813011D01*
X157814082Y-114792738D01*
X157798768Y-114781874D01*
X157782652Y-114777667D01*
X157772149Y-114777192D01*
X157753622Y-114778834D01*
X157737388Y-114785623D01*
X157721257Y-114800358D01*
X157703041Y-114825836D01*
X157680553Y-114864853D01*
X157651603Y-114920206D01*
X157635630Y-114951695D01*
X157609722Y-115001879D01*
X157587125Y-115043496D01*
X157569834Y-115073034D01*
X157559842Y-115086981D01*
X157558483Y-115087562D01*
X157552031Y-115076585D01*
X157537584Y-115048082D01*
X157516589Y-115005036D01*
X157490495Y-114950430D01*
X157460746Y-114887246D01*
X157446112Y-114855863D01*
X157408042Y-114774870D01*
X157377387Y-114712548D01*
X157352555Y-114666863D01*
X157331955Y-114635781D01*
X157313994Y-114617270D01*
X157297082Y-114609296D01*
X157279627Y-114609826D01*
G36*
X156835678Y-114614669D02*
G01*
X156811965Y-114629439D01*
X156785314Y-114651019D01*
X156785314Y-114972565D01*
X156785399Y-115066622D01*
X156785763Y-115140724D01*
X156786568Y-115197496D01*
X156787979Y-115239560D01*
X156790159Y-115269540D01*
X156793271Y-115290059D01*
X156797478Y-115303741D01*
X156802944Y-115313208D01*
X156806820Y-115317874D01*
X156838258Y-115338367D01*
X156874059Y-115337531D01*
X156905419Y-115320056D01*
X156932070Y-115298476D01*
X156932070Y-114651019D01*
X156905419Y-114629439D01*
X156879698Y-114613741D01*
X156858692Y-114607859D01*
X156835678Y-114614669D01*
G37*
X156835678Y-114614669D02*
X156811965Y-114629439D01*
X156785314Y-114651019D01*
X156785314Y-114972565D01*
X156785399Y-115066622D01*
X156785763Y-115140724D01*
X156786568Y-115197496D01*
X156787979Y-115239560D01*
X156790159Y-115269540D01*
X156793271Y-115290059D01*
X156797478Y-115303741D01*
X156802944Y-115313208D01*
X156806820Y-115317874D01*
X156838258Y-115338367D01*
X156874059Y-115337531D01*
X156905419Y-115320056D01*
X156932070Y-115298476D01*
X156932070Y-114651019D01*
X156905419Y-114629439D01*
X156879698Y-114613741D01*
X156858692Y-114607859D01*
X156835678Y-114614669D01*
G36*
X156061227Y-114607955D02*
G01*
X155982520Y-114608334D01*
X155921429Y-114609125D01*
X155875475Y-114610462D01*
X155842178Y-114612475D01*
X155819056Y-114615298D01*
X155803630Y-114619061D01*
X155793421Y-114623897D01*
X155788479Y-114627614D01*
X155762835Y-114660150D01*
X155759733Y-114693930D01*
X155775581Y-114724618D01*
X155785944Y-114736881D01*
X155797096Y-114745242D01*
X155813257Y-114750449D01*
X155838650Y-114753249D01*
X155877494Y-114754388D01*
X155934012Y-114754613D01*
X155945112Y-114754614D01*
X156091048Y-114754614D01*
X156091048Y-115025548D01*
X156091144Y-115110946D01*
X156091581Y-115176656D01*
X156092580Y-115225566D01*
X156094364Y-115260565D01*
X156097155Y-115284541D01*
X156101175Y-115300385D01*
X156106647Y-115310983D01*
X156113626Y-115319059D01*
X156146558Y-115338904D01*
X156180938Y-115337340D01*
X156212116Y-115314698D01*
X156214406Y-115311892D01*
X156221863Y-115301284D01*
X156227545Y-115288873D01*
X156231691Y-115271642D01*
X156234542Y-115246576D01*
X156236338Y-115210659D01*
X156237320Y-115160875D01*
X156237728Y-115094209D01*
X156237803Y-115018381D01*
X156237803Y-114754614D01*
X156377165Y-114754614D01*
X156436970Y-114754210D01*
X156478374Y-114752632D01*
X156505544Y-114749339D01*
X156522646Y-114743784D01*
X156533849Y-114735423D01*
X156535209Y-114733970D01*
X156551567Y-114700731D01*
X156550120Y-114663154D01*
X156531314Y-114630437D01*
X156524042Y-114624090D01*
X156514665Y-114619058D01*
X156500683Y-114615188D01*
X156479596Y-114612329D01*
X156448903Y-114610327D01*
X156406103Y-114609031D01*
X156348697Y-114608290D01*
X156274182Y-114607950D01*
X156180059Y-114607860D01*
X156160032Y-114607859D01*
X156061227Y-114607955D01*
G37*
X156061227Y-114607955D02*
X155982520Y-114608334D01*
X155921429Y-114609125D01*
X155875475Y-114610462D01*
X155842178Y-114612475D01*
X155819056Y-114615298D01*
X155803630Y-114619061D01*
X155793421Y-114623897D01*
X155788479Y-114627614D01*
X155762835Y-114660150D01*
X155759733Y-114693930D01*
X155775581Y-114724618D01*
X155785944Y-114736881D01*
X155797096Y-114745242D01*
X155813257Y-114750449D01*
X155838650Y-114753249D01*
X155877494Y-114754388D01*
X155934012Y-114754613D01*
X155945112Y-114754614D01*
X156091048Y-114754614D01*
X156091048Y-115025548D01*
X156091144Y-115110946D01*
X156091581Y-115176656D01*
X156092580Y-115225566D01*
X156094364Y-115260565D01*
X156097155Y-115284541D01*
X156101175Y-115300385D01*
X156106647Y-115310983D01*
X156113626Y-115319059D01*
X156146558Y-115338904D01*
X156180938Y-115337340D01*
X156212116Y-115314698D01*
X156214406Y-115311892D01*
X156221863Y-115301284D01*
X156227545Y-115288873D01*
X156231691Y-115271642D01*
X156234542Y-115246576D01*
X156236338Y-115210659D01*
X156237320Y-115160875D01*
X156237728Y-115094209D01*
X156237803Y-115018381D01*
X156237803Y-114754614D01*
X156377165Y-114754614D01*
X156436970Y-114754210D01*
X156478374Y-114752632D01*
X156505544Y-114749339D01*
X156522646Y-114743784D01*
X156533849Y-114735423D01*
X156535209Y-114733970D01*
X156551567Y-114700731D01*
X156550120Y-114663154D01*
X156531314Y-114630437D01*
X156524042Y-114624090D01*
X156514665Y-114619058D01*
X156500683Y-114615188D01*
X156479596Y-114612329D01*
X156448903Y-114610327D01*
X156406103Y-114609031D01*
X156348697Y-114608290D01*
X156274182Y-114607950D01*
X156180059Y-114607860D01*
X156160032Y-114607859D01*
X156061227Y-114607955D01*
G36*
X154795469Y-114613325D02*
G01*
X154764090Y-114635568D01*
X154736381Y-114663277D01*
X154736381Y-114972712D01*
X154736454Y-115064591D01*
X154736797Y-115136632D01*
X154737600Y-115191572D01*
X154739051Y-115232152D01*
X154741340Y-115261109D01*
X154744656Y-115281183D01*
X154749187Y-115295113D01*
X154755123Y-115305637D01*
X154759778Y-115311892D01*
X154790509Y-115336465D01*
X154825796Y-115339133D01*
X154858047Y-115324063D01*
X154868704Y-115315166D01*
X154875828Y-115303349D01*
X154880125Y-115284318D01*
X154882301Y-115253784D01*
X154883064Y-115207454D01*
X154883137Y-115171663D01*
X154883137Y-115036837D01*
X155379848Y-115036837D01*
X155379848Y-115159492D01*
X155380361Y-115215579D01*
X155382416Y-115254125D01*
X155386784Y-115280153D01*
X155394236Y-115298689D01*
X155403245Y-115311892D01*
X155434148Y-115336396D01*
X155469096Y-115339298D01*
X155502554Y-115321881D01*
X155511688Y-115312751D01*
X155518140Y-115300647D01*
X155522395Y-115281793D01*
X155524940Y-115252412D01*
X155526263Y-115208729D01*
X155526849Y-115146967D01*
X155526917Y-115132792D01*
X155527401Y-115016423D01*
X155527651Y-114920519D01*
X155527569Y-114842969D01*
X155527061Y-114781661D01*
X155526030Y-114734482D01*
X155524379Y-114699322D01*
X155522013Y-114674068D01*
X155518835Y-114656609D01*
X155514748Y-114644833D01*
X155509658Y-114636627D01*
X155504026Y-114630437D01*
X155472164Y-114610636D01*
X155438935Y-114613325D01*
X155407557Y-114635568D01*
X155394859Y-114649918D01*
X155386766Y-114665770D01*
X155382250Y-114688346D01*
X155380286Y-114722870D01*
X155379848Y-114774568D01*
X155379848Y-114890081D01*
X154883137Y-114890081D01*
X154883137Y-114771548D01*
X154882630Y-114716940D01*
X154880594Y-114680067D01*
X154876257Y-114656099D01*
X154868845Y-114640207D01*
X154860559Y-114630437D01*
X154828698Y-114610636D01*
X154795469Y-114613325D01*
G37*
X154795469Y-114613325D02*
X154764090Y-114635568D01*
X154736381Y-114663277D01*
X154736381Y-114972712D01*
X154736454Y-115064591D01*
X154736797Y-115136632D01*
X154737600Y-115191572D01*
X154739051Y-115232152D01*
X154741340Y-115261109D01*
X154744656Y-115281183D01*
X154749187Y-115295113D01*
X154755123Y-115305637D01*
X154759778Y-115311892D01*
X154790509Y-115336465D01*
X154825796Y-115339133D01*
X154858047Y-115324063D01*
X154868704Y-115315166D01*
X154875828Y-115303349D01*
X154880125Y-115284318D01*
X154882301Y-115253784D01*
X154883064Y-115207454D01*
X154883137Y-115171663D01*
X154883137Y-115036837D01*
X155379848Y-115036837D01*
X155379848Y-115159492D01*
X155380361Y-115215579D01*
X155382416Y-115254125D01*
X155386784Y-115280153D01*
X155394236Y-115298689D01*
X155403245Y-115311892D01*
X155434148Y-115336396D01*
X155469096Y-115339298D01*
X155502554Y-115321881D01*
X155511688Y-115312751D01*
X155518140Y-115300647D01*
X155522395Y-115281793D01*
X155524940Y-115252412D01*
X155526263Y-115208729D01*
X155526849Y-115146967D01*
X155526917Y-115132792D01*
X155527401Y-115016423D01*
X155527651Y-114920519D01*
X155527569Y-114842969D01*
X155527061Y-114781661D01*
X155526030Y-114734482D01*
X155524379Y-114699322D01*
X155522013Y-114674068D01*
X155518835Y-114656609D01*
X155514748Y-114644833D01*
X155509658Y-114636627D01*
X155504026Y-114630437D01*
X155472164Y-114610636D01*
X155438935Y-114613325D01*
X155407557Y-114635568D01*
X155394859Y-114649918D01*
X155386766Y-114665770D01*
X155382250Y-114688346D01*
X155380286Y-114722870D01*
X155379848Y-114774568D01*
X155379848Y-114890081D01*
X154883137Y-114890081D01*
X154883137Y-114771548D01*
X154882630Y-114716940D01*
X154880594Y-114680067D01*
X154876257Y-114656099D01*
X154868845Y-114640207D01*
X154860559Y-114630437D01*
X154828698Y-114610636D01*
X154795469Y-114613325D01*
G36*
X163762079Y-108009090D02*
G01*
X163658973Y-108044838D01*
X163562978Y-108101107D01*
X163477247Y-108177888D01*
X163404930Y-108275173D01*
X163372445Y-108336492D01*
X163344332Y-108422260D01*
X163330705Y-108521277D01*
X163332214Y-108623071D01*
X163348969Y-108715314D01*
X163394763Y-108828032D01*
X163461168Y-108925807D01*
X163544809Y-109006715D01*
X163642312Y-109068832D01*
X163750300Y-109110234D01*
X163865399Y-109128997D01*
X163984234Y-109123198D01*
X164042811Y-109110806D01*
X164156972Y-109066397D01*
X164258365Y-108998633D01*
X164344545Y-108909601D01*
X164413066Y-108801391D01*
X164418864Y-108789573D01*
X164438904Y-108745228D01*
X164451487Y-108707880D01*
X164458319Y-108668480D01*
X164461105Y-108617981D01*
X164461568Y-108563033D01*
X164460803Y-108497015D01*
X164457352Y-108449289D01*
X164449477Y-108410703D01*
X164435443Y-108372106D01*
X164418120Y-108334026D01*
X164353505Y-108225928D01*
X164273934Y-108138403D01*
X164182560Y-108071441D01*
X164082536Y-108025036D01*
X163977012Y-107999181D01*
X163869142Y-107993868D01*
X163762079Y-108009090D01*
G37*
X163762079Y-108009090D02*
X163658973Y-108044838D01*
X163562978Y-108101107D01*
X163477247Y-108177888D01*
X163404930Y-108275173D01*
X163372445Y-108336492D01*
X163344332Y-108422260D01*
X163330705Y-108521277D01*
X163332214Y-108623071D01*
X163348969Y-108715314D01*
X163394763Y-108828032D01*
X163461168Y-108925807D01*
X163544809Y-109006715D01*
X163642312Y-109068832D01*
X163750300Y-109110234D01*
X163865399Y-109128997D01*
X163984234Y-109123198D01*
X164042811Y-109110806D01*
X164156972Y-109066397D01*
X164258365Y-108998633D01*
X164344545Y-108909601D01*
X164413066Y-108801391D01*
X164418864Y-108789573D01*
X164438904Y-108745228D01*
X164451487Y-108707880D01*
X164458319Y-108668480D01*
X164461105Y-108617981D01*
X164461568Y-108563033D01*
X164460803Y-108497015D01*
X164457352Y-108449289D01*
X164449477Y-108410703D01*
X164435443Y-108372106D01*
X164418120Y-108334026D01*
X164353505Y-108225928D01*
X164273934Y-108138403D01*
X164182560Y-108071441D01*
X164082536Y-108025036D01*
X163977012Y-107999181D01*
X163869142Y-107993868D01*
X163762079Y-108009090D01*
G36*
X154193730Y-108929425D02*
G01*
X154076959Y-108929904D01*
X154037271Y-108930145D01*
X153491514Y-108933735D01*
X153484649Y-111027519D01*
X153483742Y-111311442D01*
X153482938Y-111569240D01*
X153482185Y-111802246D01*
X153481431Y-112011794D01*
X153480625Y-112199218D01*
X153479715Y-112365850D01*
X153478649Y-112513025D01*
X153477376Y-112642077D01*
X153475844Y-112754339D01*
X153474002Y-112851144D01*
X153471797Y-112933826D01*
X153469178Y-113003719D01*
X153466094Y-113062157D01*
X153462492Y-113110472D01*
X153458322Y-113150000D01*
X153453531Y-113182073D01*
X153448069Y-113208024D01*
X153441882Y-113229189D01*
X153434920Y-113246899D01*
X153427131Y-113262489D01*
X153418463Y-113277293D01*
X153408865Y-113292644D01*
X153398285Y-113309876D01*
X153396116Y-113313546D01*
X153359732Y-113375631D01*
X153885569Y-113372034D01*
X154411406Y-113368438D01*
X154418271Y-113252931D01*
X154422008Y-113197499D01*
X154425903Y-113165451D01*
X154431189Y-113152735D01*
X154439097Y-113155296D01*
X154445730Y-113162624D01*
X154474626Y-113189314D01*
X154521721Y-113223621D01*
X154580380Y-113261446D01*
X154643969Y-113298690D01*
X154705851Y-113331253D01*
X154753366Y-113352677D01*
X154864684Y-113387883D01*
X154992404Y-113412822D01*
X155127099Y-113426541D01*
X155259337Y-113428086D01*
X155379692Y-113416506D01*
X155381674Y-113416174D01*
X155546359Y-113374850D01*
X155700521Y-113309012D01*
X155842672Y-113220074D01*
X155971325Y-113109452D01*
X156084993Y-112978561D01*
X156182190Y-112828816D01*
X156261428Y-112661633D01*
X156304570Y-112537790D01*
X156333021Y-112434181D01*
X156354120Y-112333852D01*
X156368512Y-112230709D01*
X156376842Y-112118657D01*
X156379755Y-111991601D01*
X156378465Y-111887852D01*
X155365350Y-111887852D01*
X155360556Y-112061822D01*
X155345432Y-112211495D01*
X155319515Y-112338197D01*
X155282337Y-112443258D01*
X155233435Y-112528006D01*
X155172342Y-112593769D01*
X155101823Y-112640259D01*
X155065129Y-112657614D01*
X155033304Y-112668019D01*
X154997823Y-112672779D01*
X154950159Y-112673201D01*
X154898811Y-112671348D01*
X154797831Y-112662441D01*
X154717965Y-112644998D01*
X154692865Y-112636261D01*
X154635552Y-112610457D01*
X154575103Y-112578053D01*
X154548703Y-112561833D01*
X154480054Y-112516805D01*
X154480054Y-111089582D01*
X154555568Y-111044318D01*
X154660879Y-110993172D01*
X154768475Y-110962924D01*
X154874419Y-110953395D01*
X154974776Y-110964407D01*
X155065613Y-110995781D01*
X155142993Y-111047340D01*
X155167961Y-111072088D01*
X155228144Y-111153177D01*
X155276855Y-111251334D01*
X155314501Y-111368243D01*
X155341488Y-111505585D01*
X155358225Y-111665044D01*
X155365117Y-111848300D01*
X155365350Y-111887852D01*
X156378465Y-111887852D01*
X156377927Y-111844667D01*
X156366353Y-111618653D01*
X156343080Y-111414792D01*
X156307496Y-111230113D01*
X156258987Y-111061648D01*
X156196940Y-110906426D01*
X156174799Y-110860408D01*
X156085615Y-110710339D01*
X155977841Y-110576977D01*
X155854010Y-110462477D01*
X155716658Y-110368989D01*
X155568317Y-110298668D01*
X155479396Y-110269660D01*
X155392067Y-110252440D01*
X155286989Y-110242194D01*
X155172971Y-110238918D01*
X155058823Y-110242609D01*
X154953352Y-110253260D01*
X154868666Y-110269970D01*
X154767872Y-110302740D01*
X154670178Y-110344879D01*
X154584704Y-110392119D01*
X154539211Y-110424181D01*
X154507831Y-110448022D01*
X154485858Y-110462539D01*
X154480859Y-110464600D01*
X154479310Y-110451318D01*
X154477865Y-110413263D01*
X154476557Y-110353119D01*
X154475417Y-110273573D01*
X154474479Y-110177311D01*
X154473774Y-110067019D01*
X154473333Y-109945381D01*
X154473189Y-109821485D01*
X154473270Y-109662796D01*
X154473665Y-109529008D01*
X154474605Y-109417560D01*
X154476320Y-109325895D01*
X154479043Y-109251453D01*
X154483003Y-109191675D01*
X154488431Y-109144002D01*
X154495559Y-109105874D01*
X154504616Y-109074734D01*
X154515833Y-109048021D01*
X154529442Y-109023177D01*
X154545672Y-108997643D01*
X154547760Y-108994481D01*
X154568694Y-108961410D01*
X154581333Y-108938669D01*
X154583027Y-108933872D01*
X154569784Y-108932359D01*
X154531998Y-108931128D01*
X154472584Y-108930199D01*
X154394458Y-108929592D01*
X154300535Y-108929327D01*
X154193730Y-108929425D01*
G37*
X154193730Y-108929425D02*
X154076959Y-108929904D01*
X154037271Y-108930145D01*
X153491514Y-108933735D01*
X153484649Y-111027519D01*
X153483742Y-111311442D01*
X153482938Y-111569240D01*
X153482185Y-111802246D01*
X153481431Y-112011794D01*
X153480625Y-112199218D01*
X153479715Y-112365850D01*
X153478649Y-112513025D01*
X153477376Y-112642077D01*
X153475844Y-112754339D01*
X153474002Y-112851144D01*
X153471797Y-112933826D01*
X153469178Y-113003719D01*
X153466094Y-113062157D01*
X153462492Y-113110472D01*
X153458322Y-113150000D01*
X153453531Y-113182073D01*
X153448069Y-113208024D01*
X153441882Y-113229189D01*
X153434920Y-113246899D01*
X153427131Y-113262489D01*
X153418463Y-113277293D01*
X153408865Y-113292644D01*
X153398285Y-113309876D01*
X153396116Y-113313546D01*
X153359732Y-113375631D01*
X153885569Y-113372034D01*
X154411406Y-113368438D01*
X154418271Y-113252931D01*
X154422008Y-113197499D01*
X154425903Y-113165451D01*
X154431189Y-113152735D01*
X154439097Y-113155296D01*
X154445730Y-113162624D01*
X154474626Y-113189314D01*
X154521721Y-113223621D01*
X154580380Y-113261446D01*
X154643969Y-113298690D01*
X154705851Y-113331253D01*
X154753366Y-113352677D01*
X154864684Y-113387883D01*
X154992404Y-113412822D01*
X155127099Y-113426541D01*
X155259337Y-113428086D01*
X155379692Y-113416506D01*
X155381674Y-113416174D01*
X155546359Y-113374850D01*
X155700521Y-113309012D01*
X155842672Y-113220074D01*
X155971325Y-113109452D01*
X156084993Y-112978561D01*
X156182190Y-112828816D01*
X156261428Y-112661633D01*
X156304570Y-112537790D01*
X156333021Y-112434181D01*
X156354120Y-112333852D01*
X156368512Y-112230709D01*
X156376842Y-112118657D01*
X156379755Y-111991601D01*
X156378465Y-111887852D01*
X155365350Y-111887852D01*
X155360556Y-112061822D01*
X155345432Y-112211495D01*
X155319515Y-112338197D01*
X155282337Y-112443258D01*
X155233435Y-112528006D01*
X155172342Y-112593769D01*
X155101823Y-112640259D01*
X155065129Y-112657614D01*
X155033304Y-112668019D01*
X154997823Y-112672779D01*
X154950159Y-112673201D01*
X154898811Y-112671348D01*
X154797831Y-112662441D01*
X154717965Y-112644998D01*
X154692865Y-112636261D01*
X154635552Y-112610457D01*
X154575103Y-112578053D01*
X154548703Y-112561833D01*
X154480054Y-112516805D01*
X154480054Y-111089582D01*
X154555568Y-111044318D01*
X154660879Y-110993172D01*
X154768475Y-110962924D01*
X154874419Y-110953395D01*
X154974776Y-110964407D01*
X155065613Y-110995781D01*
X155142993Y-111047340D01*
X155167961Y-111072088D01*
X155228144Y-111153177D01*
X155276855Y-111251334D01*
X155314501Y-111368243D01*
X155341488Y-111505585D01*
X155358225Y-111665044D01*
X155365117Y-111848300D01*
X155365350Y-111887852D01*
X156378465Y-111887852D01*
X156377927Y-111844667D01*
X156366353Y-111618653D01*
X156343080Y-111414792D01*
X156307496Y-111230113D01*
X156258987Y-111061648D01*
X156196940Y-110906426D01*
X156174799Y-110860408D01*
X156085615Y-110710339D01*
X155977841Y-110576977D01*
X155854010Y-110462477D01*
X155716658Y-110368989D01*
X155568317Y-110298668D01*
X155479396Y-110269660D01*
X155392067Y-110252440D01*
X155286989Y-110242194D01*
X155172971Y-110238918D01*
X155058823Y-110242609D01*
X154953352Y-110253260D01*
X154868666Y-110269970D01*
X154767872Y-110302740D01*
X154670178Y-110344879D01*
X154584704Y-110392119D01*
X154539211Y-110424181D01*
X154507831Y-110448022D01*
X154485858Y-110462539D01*
X154480859Y-110464600D01*
X154479310Y-110451318D01*
X154477865Y-110413263D01*
X154476557Y-110353119D01*
X154475417Y-110273573D01*
X154474479Y-110177311D01*
X154473774Y-110067019D01*
X154473333Y-109945381D01*
X154473189Y-109821485D01*
X154473270Y-109662796D01*
X154473665Y-109529008D01*
X154474605Y-109417560D01*
X154476320Y-109325895D01*
X154479043Y-109251453D01*
X154483003Y-109191675D01*
X154488431Y-109144002D01*
X154495559Y-109105874D01*
X154504616Y-109074734D01*
X154515833Y-109048021D01*
X154529442Y-109023177D01*
X154545672Y-108997643D01*
X154547760Y-108994481D01*
X154568694Y-108961410D01*
X154581333Y-108938669D01*
X154583027Y-108933872D01*
X154569784Y-108932359D01*
X154531998Y-108931128D01*
X154472584Y-108930199D01*
X154394458Y-108929592D01*
X154300535Y-108929327D01*
X154193730Y-108929425D01*
G36*
X157868495Y-110236829D02*
G01*
X157800469Y-110241978D01*
X157605837Y-110267873D01*
X157433471Y-110309175D01*
X157282530Y-110366453D01*
X157152175Y-110440274D01*
X157041566Y-110531208D01*
X156949865Y-110639822D01*
X156876230Y-110766685D01*
X156822461Y-110903952D01*
X156808813Y-110947737D01*
X156796927Y-110988741D01*
X156786666Y-111029169D01*
X156777887Y-111071230D01*
X156770452Y-111117131D01*
X156764220Y-111169080D01*
X156759050Y-111229285D01*
X156754804Y-111299952D01*
X156751340Y-111383289D01*
X156748519Y-111481505D01*
X156746200Y-111596805D01*
X156744243Y-111731399D01*
X156742509Y-111887493D01*
X156740857Y-112067295D01*
X156739676Y-112208276D01*
X156731730Y-113176222D01*
X156680244Y-113269370D01*
X156655863Y-113314245D01*
X156637720Y-113349101D01*
X156629065Y-113367654D01*
X156628757Y-113368911D01*
X156641986Y-113370349D01*
X156679674Y-113371674D01*
X156738817Y-113372849D01*
X156816414Y-113373837D01*
X156909464Y-113374599D01*
X157014965Y-113375100D01*
X157129916Y-113375301D01*
X157143622Y-113375303D01*
X157658487Y-113375303D01*
X157658487Y-113258600D01*
X157659365Y-113205860D01*
X157661708Y-113165526D01*
X157665079Y-113143900D01*
X157666569Y-113141898D01*
X157680196Y-113150283D01*
X157708243Y-113172292D01*
X157744697Y-113203201D01*
X157745515Y-113203916D01*
X157812038Y-113253443D01*
X157896052Y-113303175D01*
X157988063Y-113348226D01*
X158078579Y-113383710D01*
X158118433Y-113395836D01*
X158197745Y-113411237D01*
X158295065Y-113421065D01*
X158401484Y-113425180D01*
X158508093Y-113423441D01*
X158605983Y-113415708D01*
X158674487Y-113404581D01*
X158842480Y-113355248D01*
X158993719Y-113284942D01*
X159127218Y-113194533D01*
X159241994Y-113084895D01*
X159337063Y-112956899D01*
X159411440Y-112811418D01*
X159443526Y-112723141D01*
X159463635Y-112637339D01*
X159476962Y-112534336D01*
X159483128Y-112423634D01*
X159482926Y-112407525D01*
X158554352Y-112407525D01*
X158546652Y-112489784D01*
X158521011Y-112558146D01*
X158473622Y-112621570D01*
X158455421Y-112640167D01*
X158390718Y-112690446D01*
X158315934Y-112722656D01*
X158226338Y-112738248D01*
X158131988Y-112739396D01*
X158042499Y-112731816D01*
X157973982Y-112716989D01*
X157944225Y-112705853D01*
X157890592Y-112675504D01*
X157833765Y-112632821D01*
X157781918Y-112584917D01*
X157743222Y-112538901D01*
X157732946Y-112522021D01*
X157724958Y-112498382D01*
X157719279Y-112460768D01*
X157715644Y-112405585D01*
X157713789Y-112329240D01*
X157713406Y-112256581D01*
X157713665Y-112171870D01*
X157714713Y-112110618D01*
X157716955Y-112068827D01*
X157720794Y-112042499D01*
X157726635Y-112027635D01*
X157734882Y-112020239D01*
X157737433Y-112019061D01*
X157759600Y-112015433D01*
X157803320Y-112012466D01*
X157862689Y-112010427D01*
X157931804Y-112009583D01*
X157946811Y-112009582D01*
X158039195Y-112011057D01*
X158110568Y-112015442D01*
X158167281Y-112023338D01*
X158214128Y-112034870D01*
X158330331Y-112078815D01*
X158421457Y-112132843D01*
X158488295Y-112197819D01*
X158531635Y-112274605D01*
X158552266Y-112364067D01*
X158554352Y-112407525D01*
X159482926Y-112407525D01*
X159481756Y-112314733D01*
X159472468Y-112217136D01*
X159465223Y-112177705D01*
X159418961Y-112031301D01*
X159348616Y-111896595D01*
X159255516Y-111774880D01*
X159140988Y-111667447D01*
X159006360Y-111575588D01*
X158852960Y-111500596D01*
X158722541Y-111455058D01*
X158635377Y-111431133D01*
X158552004Y-111412543D01*
X158467024Y-111398684D01*
X158375035Y-111388951D01*
X158270638Y-111382741D01*
X158148432Y-111379451D01*
X158037945Y-111378524D01*
X157710323Y-111377627D01*
X157716599Y-111279147D01*
X157734421Y-111172295D01*
X157772333Y-111080452D01*
X157828720Y-111005910D01*
X157901969Y-110950964D01*
X157966465Y-110924152D01*
X158058877Y-110907254D01*
X158168889Y-110904827D01*
X158291344Y-110915978D01*
X158421086Y-110939810D01*
X158552958Y-110975430D01*
X158681802Y-111021943D01*
X158775434Y-111064483D01*
X158820483Y-111086328D01*
X158854844Y-111101584D01*
X158872319Y-111107537D01*
X158873267Y-111107346D01*
X158879297Y-111094012D01*
X158894355Y-111058668D01*
X158917023Y-111004701D01*
X158945885Y-110935496D01*
X158979523Y-110854440D01*
X159013716Y-110771718D01*
X159150414Y-110440403D01*
X159053180Y-110424433D01*
X159011036Y-110416420D01*
X158947681Y-110402961D01*
X158868543Y-110385279D01*
X158779049Y-110364596D01*
X158684627Y-110342132D01*
X158647027Y-110333003D01*
X158484363Y-110295274D01*
X158341950Y-110266988D01*
X158214473Y-110247572D01*
X158096616Y-110236454D01*
X157983062Y-110233064D01*
X157868495Y-110236829D01*
G37*
X157868495Y-110236829D02*
X157800469Y-110241978D01*
X157605837Y-110267873D01*
X157433471Y-110309175D01*
X157282530Y-110366453D01*
X157152175Y-110440274D01*
X157041566Y-110531208D01*
X156949865Y-110639822D01*
X156876230Y-110766685D01*
X156822461Y-110903952D01*
X156808813Y-110947737D01*
X156796927Y-110988741D01*
X156786666Y-111029169D01*
X156777887Y-111071230D01*
X156770452Y-111117131D01*
X156764220Y-111169080D01*
X156759050Y-111229285D01*
X156754804Y-111299952D01*
X156751340Y-111383289D01*
X156748519Y-111481505D01*
X156746200Y-111596805D01*
X156744243Y-111731399D01*
X156742509Y-111887493D01*
X156740857Y-112067295D01*
X156739676Y-112208276D01*
X156731730Y-113176222D01*
X156680244Y-113269370D01*
X156655863Y-113314245D01*
X156637720Y-113349101D01*
X156629065Y-113367654D01*
X156628757Y-113368911D01*
X156641986Y-113370349D01*
X156679674Y-113371674D01*
X156738817Y-113372849D01*
X156816414Y-113373837D01*
X156909464Y-113374599D01*
X157014965Y-113375100D01*
X157129916Y-113375301D01*
X157143622Y-113375303D01*
X157658487Y-113375303D01*
X157658487Y-113258600D01*
X157659365Y-113205860D01*
X157661708Y-113165526D01*
X157665079Y-113143900D01*
X157666569Y-113141898D01*
X157680196Y-113150283D01*
X157708243Y-113172292D01*
X157744697Y-113203201D01*
X157745515Y-113203916D01*
X157812038Y-113253443D01*
X157896052Y-113303175D01*
X157988063Y-113348226D01*
X158078579Y-113383710D01*
X158118433Y-113395836D01*
X158197745Y-113411237D01*
X158295065Y-113421065D01*
X158401484Y-113425180D01*
X158508093Y-113423441D01*
X158605983Y-113415708D01*
X158674487Y-113404581D01*
X158842480Y-113355248D01*
X158993719Y-113284942D01*
X159127218Y-113194533D01*
X159241994Y-113084895D01*
X159337063Y-112956899D01*
X159411440Y-112811418D01*
X159443526Y-112723141D01*
X159463635Y-112637339D01*
X159476962Y-112534336D01*
X159483128Y-112423634D01*
X159482926Y-112407525D01*
X158554352Y-112407525D01*
X158546652Y-112489784D01*
X158521011Y-112558146D01*
X158473622Y-112621570D01*
X158455421Y-112640167D01*
X158390718Y-112690446D01*
X158315934Y-112722656D01*
X158226338Y-112738248D01*
X158131988Y-112739396D01*
X158042499Y-112731816D01*
X157973982Y-112716989D01*
X157944225Y-112705853D01*
X157890592Y-112675504D01*
X157833765Y-112632821D01*
X157781918Y-112584917D01*
X157743222Y-112538901D01*
X157732946Y-112522021D01*
X157724958Y-112498382D01*
X157719279Y-112460768D01*
X157715644Y-112405585D01*
X157713789Y-112329240D01*
X157713406Y-112256581D01*
X157713665Y-112171870D01*
X157714713Y-112110618D01*
X157716955Y-112068827D01*
X157720794Y-112042499D01*
X157726635Y-112027635D01*
X157734882Y-112020239D01*
X157737433Y-112019061D01*
X157759600Y-112015433D01*
X157803320Y-112012466D01*
X157862689Y-112010427D01*
X157931804Y-112009583D01*
X157946811Y-112009582D01*
X158039195Y-112011057D01*
X158110568Y-112015442D01*
X158167281Y-112023338D01*
X158214128Y-112034870D01*
X158330331Y-112078815D01*
X158421457Y-112132843D01*
X158488295Y-112197819D01*
X158531635Y-112274605D01*
X158552266Y-112364067D01*
X158554352Y-112407525D01*
X159482926Y-112407525D01*
X159481756Y-112314733D01*
X159472468Y-112217136D01*
X159465223Y-112177705D01*
X159418961Y-112031301D01*
X159348616Y-111896595D01*
X159255516Y-111774880D01*
X159140988Y-111667447D01*
X159006360Y-111575588D01*
X158852960Y-111500596D01*
X158722541Y-111455058D01*
X158635377Y-111431133D01*
X158552004Y-111412543D01*
X158467024Y-111398684D01*
X158375035Y-111388951D01*
X158270638Y-111382741D01*
X158148432Y-111379451D01*
X158037945Y-111378524D01*
X157710323Y-111377627D01*
X157716599Y-111279147D01*
X157734421Y-111172295D01*
X157772333Y-111080452D01*
X157828720Y-111005910D01*
X157901969Y-110950964D01*
X157966465Y-110924152D01*
X158058877Y-110907254D01*
X158168889Y-110904827D01*
X158291344Y-110915978D01*
X158421086Y-110939810D01*
X158552958Y-110975430D01*
X158681802Y-111021943D01*
X158775434Y-111064483D01*
X158820483Y-111086328D01*
X158854844Y-111101584D01*
X158872319Y-111107537D01*
X158873267Y-111107346D01*
X158879297Y-111094012D01*
X158894355Y-111058668D01*
X158917023Y-111004701D01*
X158945885Y-110935496D01*
X158979523Y-110854440D01*
X159013716Y-110771718D01*
X159150414Y-110440403D01*
X159053180Y-110424433D01*
X159011036Y-110416420D01*
X158947681Y-110402961D01*
X158868543Y-110385279D01*
X158779049Y-110364596D01*
X158684627Y-110342132D01*
X158647027Y-110333003D01*
X158484363Y-110295274D01*
X158341950Y-110266988D01*
X158214473Y-110247572D01*
X158096616Y-110236454D01*
X157983062Y-110233064D01*
X157868495Y-110236829D01*
G36*
X160596038Y-109133099D02*
G01*
X160447986Y-109149307D01*
X160304548Y-109178318D01*
X160159890Y-109221645D01*
X160008176Y-109280801D01*
X159843572Y-109357300D01*
X159813929Y-109372117D01*
X159745902Y-109405631D01*
X159681744Y-109435808D01*
X159627785Y-109459766D01*
X159590360Y-109474624D01*
X159584611Y-109476495D01*
X159529514Y-109493002D01*
X159776149Y-109851801D01*
X159836448Y-109939493D01*
X159891578Y-110019612D01*
X159939664Y-110089436D01*
X159978832Y-110146247D01*
X160007206Y-110187323D01*
X160022913Y-110209946D01*
X160025464Y-110213528D01*
X160035829Y-110206038D01*
X160061340Y-110183518D01*
X160097437Y-110150061D01*
X160117358Y-110131150D01*
X160230227Y-110041378D01*
X160356986Y-109973161D01*
X160466217Y-109935795D01*
X160531786Y-109924060D01*
X160613884Y-109916908D01*
X160702856Y-109914474D01*
X160789044Y-109916888D01*
X160862795Y-109924283D01*
X160892224Y-109929947D01*
X161024867Y-109975582D01*
X161144394Y-110045263D01*
X161250717Y-110138860D01*
X161343747Y-110256249D01*
X161423395Y-110397300D01*
X161489574Y-110561886D01*
X161542194Y-110749880D01*
X161573467Y-110910817D01*
X161581626Y-110981863D01*
X161587185Y-111073646D01*
X161590198Y-111179568D01*
X161590719Y-111293034D01*
X161588800Y-111407449D01*
X161584497Y-111516217D01*
X161577863Y-111612743D01*
X161568951Y-111690431D01*
X161567021Y-111702417D01*
X161524501Y-111895492D01*
X161466567Y-112066373D01*
X161392867Y-112215824D01*
X161303049Y-112344611D01*
X161239293Y-112414239D01*
X161124714Y-112508773D01*
X160999058Y-112578846D01*
X160864443Y-112624077D01*
X160722989Y-112644084D01*
X160576817Y-112638485D01*
X160428045Y-112606900D01*
X160340089Y-112575994D01*
X160218371Y-112514106D01*
X160092920Y-112425329D01*
X160022647Y-112365294D01*
X159983189Y-112330547D01*
X159952188Y-112305054D01*
X159934542Y-112292770D01*
X159932352Y-112292395D01*
X159924476Y-112304947D01*
X159904068Y-112338116D01*
X159872868Y-112389058D01*
X159832614Y-112454931D01*
X159785043Y-112532889D01*
X159731896Y-112620090D01*
X159702313Y-112668667D01*
X159476352Y-113039815D01*
X159758473Y-113179239D01*
X159860478Y-113229319D01*
X159943111Y-113268810D01*
X160011422Y-113299673D01*
X160070463Y-113323868D01*
X160125286Y-113343358D01*
X160180940Y-113360103D01*
X160242477Y-113376065D01*
X160301460Y-113390082D01*
X160353885Y-113400929D01*
X160408712Y-113409126D01*
X160471428Y-113415128D01*
X160547523Y-113419390D01*
X160642484Y-113422367D01*
X160706487Y-113423652D01*
X160797808Y-113424530D01*
X160885373Y-113424087D01*
X160963388Y-113422452D01*
X161026058Y-113419749D01*
X161067587Y-113416105D01*
X161070048Y-113415742D01*
X161285697Y-113369087D01*
X161488207Y-113298329D01*
X161677505Y-113203514D01*
X161853521Y-113084689D01*
X162016184Y-112941900D01*
X162165422Y-112775194D01*
X162273504Y-112627033D01*
X162388566Y-112433102D01*
X162481577Y-112228299D01*
X162552987Y-112010983D01*
X162603244Y-111779512D01*
X162632799Y-111532243D01*
X162642111Y-111281159D01*
X162634452Y-111038270D01*
X162610387Y-110814170D01*
X162569148Y-110605077D01*
X162509973Y-110407213D01*
X162432096Y-110216796D01*
X162422797Y-110197068D01*
X162320352Y-110012659D01*
X162194528Y-109837176D01*
X162048888Y-109674250D01*
X161886999Y-109527514D01*
X161712424Y-109400601D01*
X161549756Y-109307505D01*
X161385427Y-109234591D01*
X161220749Y-109181774D01*
X161049348Y-109147615D01*
X160864847Y-109130678D01*
X160754541Y-109128180D01*
X160596038Y-109133099D01*
G37*
X160596038Y-109133099D02*
X160447986Y-109149307D01*
X160304548Y-109178318D01*
X160159890Y-109221645D01*
X160008176Y-109280801D01*
X159843572Y-109357300D01*
X159813929Y-109372117D01*
X159745902Y-109405631D01*
X159681744Y-109435808D01*
X159627785Y-109459766D01*
X159590360Y-109474624D01*
X159584611Y-109476495D01*
X159529514Y-109493002D01*
X159776149Y-109851801D01*
X159836448Y-109939493D01*
X159891578Y-110019612D01*
X159939664Y-110089436D01*
X159978832Y-110146247D01*
X160007206Y-110187323D01*
X160022913Y-110209946D01*
X160025464Y-110213528D01*
X160035829Y-110206038D01*
X160061340Y-110183518D01*
X160097437Y-110150061D01*
X160117358Y-110131150D01*
X160230227Y-110041378D01*
X160356986Y-109973161D01*
X160466217Y-109935795D01*
X160531786Y-109924060D01*
X160613884Y-109916908D01*
X160702856Y-109914474D01*
X160789044Y-109916888D01*
X160862795Y-109924283D01*
X160892224Y-109929947D01*
X161024867Y-109975582D01*
X161144394Y-110045263D01*
X161250717Y-110138860D01*
X161343747Y-110256249D01*
X161423395Y-110397300D01*
X161489574Y-110561886D01*
X161542194Y-110749880D01*
X161573467Y-110910817D01*
X161581626Y-110981863D01*
X161587185Y-111073646D01*
X161590198Y-111179568D01*
X161590719Y-111293034D01*
X161588800Y-111407449D01*
X161584497Y-111516217D01*
X161577863Y-111612743D01*
X161568951Y-111690431D01*
X161567021Y-111702417D01*
X161524501Y-111895492D01*
X161466567Y-112066373D01*
X161392867Y-112215824D01*
X161303049Y-112344611D01*
X161239293Y-112414239D01*
X161124714Y-112508773D01*
X160999058Y-112578846D01*
X160864443Y-112624077D01*
X160722989Y-112644084D01*
X160576817Y-112638485D01*
X160428045Y-112606900D01*
X160340089Y-112575994D01*
X160218371Y-112514106D01*
X160092920Y-112425329D01*
X160022647Y-112365294D01*
X159983189Y-112330547D01*
X159952188Y-112305054D01*
X159934542Y-112292770D01*
X159932352Y-112292395D01*
X159924476Y-112304947D01*
X159904068Y-112338116D01*
X159872868Y-112389058D01*
X159832614Y-112454931D01*
X159785043Y-112532889D01*
X159731896Y-112620090D01*
X159702313Y-112668667D01*
X159476352Y-113039815D01*
X159758473Y-113179239D01*
X159860478Y-113229319D01*
X159943111Y-113268810D01*
X160011422Y-113299673D01*
X160070463Y-113323868D01*
X160125286Y-113343358D01*
X160180940Y-113360103D01*
X160242477Y-113376065D01*
X160301460Y-113390082D01*
X160353885Y-113400929D01*
X160408712Y-113409126D01*
X160471428Y-113415128D01*
X160547523Y-113419390D01*
X160642484Y-113422367D01*
X160706487Y-113423652D01*
X160797808Y-113424530D01*
X160885373Y-113424087D01*
X160963388Y-113422452D01*
X161026058Y-113419749D01*
X161067587Y-113416105D01*
X161070048Y-113415742D01*
X161285697Y-113369087D01*
X161488207Y-113298329D01*
X161677505Y-113203514D01*
X161853521Y-113084689D01*
X162016184Y-112941900D01*
X162165422Y-112775194D01*
X162273504Y-112627033D01*
X162388566Y-112433102D01*
X162481577Y-112228299D01*
X162552987Y-112010983D01*
X162603244Y-111779512D01*
X162632799Y-111532243D01*
X162642111Y-111281159D01*
X162634452Y-111038270D01*
X162610387Y-110814170D01*
X162569148Y-110605077D01*
X162509973Y-110407213D01*
X162432096Y-110216796D01*
X162422797Y-110197068D01*
X162320352Y-110012659D01*
X162194528Y-109837176D01*
X162048888Y-109674250D01*
X161886999Y-109527514D01*
X161712424Y-109400601D01*
X161549756Y-109307505D01*
X161385427Y-109234591D01*
X161220749Y-109181774D01*
X161049348Y-109147615D01*
X160864847Y-109130678D01*
X160754541Y-109128180D01*
X160596038Y-109133099D01*
G36*
X166991743Y-108446289D02*
G01*
X166727220Y-108446325D01*
X166604088Y-108446330D01*
X164633189Y-108446330D01*
X164633189Y-108562510D01*
X164620789Y-108703891D01*
X164583364Y-108834284D01*
X164520577Y-108954462D01*
X164432094Y-109065202D01*
X164402157Y-109095111D01*
X164294466Y-109179948D01*
X164175725Y-109241821D01*
X164049460Y-109280759D01*
X163919197Y-109296790D01*
X163788465Y-109289942D01*
X163660788Y-109260243D01*
X163539695Y-109207720D01*
X163428712Y-109132403D01*
X163378868Y-109086963D01*
X163285983Y-108975552D01*
X163217873Y-108853035D01*
X163175129Y-108720815D01*
X163158347Y-108580292D01*
X163158124Y-108566467D01*
X163157244Y-108446334D01*
X163104443Y-108446332D01*
X163057604Y-108452689D01*
X163014817Y-108468156D01*
X163011989Y-108469754D01*
X163002325Y-108474768D01*
X162993451Y-108478673D01*
X162985335Y-108482607D01*
X162977943Y-108487706D01*
X162971245Y-108495108D01*
X162965208Y-108505951D01*
X162959801Y-108521372D01*
X162954990Y-108542509D01*
X162950745Y-108570499D01*
X162947032Y-108606479D01*
X162943821Y-108651587D01*
X162941078Y-108706960D01*
X162938772Y-108773737D01*
X162936871Y-108853053D01*
X162935342Y-108946047D01*
X162934154Y-109053857D01*
X162933274Y-109177619D01*
X162932670Y-109318471D01*
X162932311Y-109477550D01*
X162932165Y-109655995D01*
X162932198Y-109854942D01*
X162932380Y-110075529D01*
X162932677Y-110318893D01*
X162933059Y-110586172D01*
X162933492Y-110878503D01*
X162933945Y-111197024D01*
X162933998Y-111235830D01*
X162934404Y-111556382D01*
X162934749Y-111850612D01*
X162935069Y-112119656D01*
X162935400Y-112364652D01*
X162935779Y-112586737D01*
X162936243Y-112787047D01*
X162936828Y-112966719D01*
X162937570Y-113126890D01*
X162938506Y-113268698D01*
X162939673Y-113393279D01*
X162941107Y-113501770D01*
X162942844Y-113595307D01*
X162944922Y-113675029D01*
X162947376Y-113742072D01*
X162950244Y-113797573D01*
X162953561Y-113842668D01*
X162957364Y-113878495D01*
X162961690Y-113906191D01*
X162966575Y-113926893D01*
X162972055Y-113941737D01*
X162978168Y-113951860D01*
X162984950Y-113958400D01*
X162992437Y-113962493D01*
X163000666Y-113965276D01*
X163009673Y-113967887D01*
X163019495Y-113971462D01*
X163021894Y-113972550D01*
X163029435Y-113974996D01*
X163042056Y-113977242D01*
X163060859Y-113979298D01*
X163086947Y-113981172D01*
X163121422Y-113982871D01*
X163165385Y-113984403D01*
X163219939Y-113985777D01*
X163286185Y-113987000D01*
X163365226Y-113988081D01*
X163458163Y-113989027D01*
X163566099Y-113989847D01*
X163690136Y-113990547D01*
X163831376Y-113991138D01*
X163990921Y-113991625D01*
X164169872Y-113992019D01*
X164369332Y-113992325D01*
X164590404Y-113992553D01*
X164834188Y-113992710D01*
X165101787Y-113992805D01*
X165394303Y-113992845D01*
X165712839Y-113992838D01*
X165816021Y-113992828D01*
X166141623Y-113992776D01*
X166440881Y-113992691D01*
X166714909Y-113992563D01*
X166964824Y-113992385D01*
X167191740Y-113992148D01*
X167396773Y-113991842D01*
X167581038Y-113991460D01*
X167745650Y-113990992D01*
X167891725Y-113990430D01*
X168020376Y-113989765D01*
X168132721Y-113988988D01*
X168229874Y-113988091D01*
X168312950Y-113987065D01*
X168383064Y-113985901D01*
X168441332Y-113984591D01*
X168488869Y-113983125D01*
X168526790Y-113981496D01*
X168556210Y-113979693D01*
X168578245Y-113977710D01*
X168594010Y-113975536D01*
X168604620Y-113973163D01*
X168610404Y-113970991D01*
X168620684Y-113966656D01*
X168630122Y-113963459D01*
X168638755Y-113960265D01*
X168646619Y-113955938D01*
X168653748Y-113949344D01*
X168660179Y-113939347D01*
X168665947Y-113924812D01*
X168671089Y-113904603D01*
X168675640Y-113877585D01*
X168679635Y-113842623D01*
X168683111Y-113798581D01*
X168686102Y-113744324D01*
X168688646Y-113678717D01*
X168690777Y-113600624D01*
X168692532Y-113508910D01*
X168693945Y-113402440D01*
X168694315Y-113361573D01*
X168327884Y-113361573D01*
X167032734Y-113361573D01*
X167057655Y-113323817D01*
X167082447Y-113285017D01*
X167103440Y-113248069D01*
X167120935Y-113210388D01*
X167135230Y-113169388D01*
X167146623Y-113122483D01*
X167155413Y-113067087D01*
X167161898Y-113000616D01*
X167166377Y-112920483D01*
X167169150Y-112824102D01*
X167170513Y-112708889D01*
X167170767Y-112572257D01*
X167170209Y-112411620D01*
X167169893Y-112351982D01*
X167166325Y-111712641D01*
X166761298Y-112264049D01*
X166646554Y-112420476D01*
X166547143Y-112556688D01*
X166461990Y-112674490D01*
X166390022Y-112775684D01*
X166330166Y-112862077D01*
X166281348Y-112935474D01*
X166242495Y-112997677D01*
X166212534Y-113050493D01*
X166190391Y-113095725D01*
X166174993Y-113135178D01*
X166165266Y-113170658D01*
X166160137Y-113203968D01*
X166158532Y-113236913D01*
X166159379Y-113271297D01*
X166159595Y-113275619D01*
X166164054Y-113361631D01*
X164744692Y-113361573D01*
X164850265Y-113255122D01*
X164878913Y-113226006D01*
X164906090Y-113197676D01*
X164932989Y-113168568D01*
X164960803Y-113137120D01*
X164990725Y-113101769D01*
X165023946Y-113060954D01*
X165061661Y-113013111D01*
X165105060Y-112956679D01*
X165155338Y-112890094D01*
X165213688Y-112811795D01*
X165281300Y-112720219D01*
X165359369Y-112613804D01*
X165449088Y-112490987D01*
X165551648Y-112350205D01*
X165668242Y-112189897D01*
X165763809Y-112058398D01*
X165883749Y-111893196D01*
X165988380Y-111748752D01*
X166078648Y-111623694D01*
X166155503Y-111516652D01*
X166219891Y-111426254D01*
X166272761Y-111351129D01*
X166315060Y-111289904D01*
X166347736Y-111241210D01*
X166371738Y-111203674D01*
X166388013Y-111175925D01*
X166397508Y-111156592D01*
X166401173Y-111144303D01*
X166400071Y-111137842D01*
X166386724Y-111120648D01*
X166357866Y-111084255D01*
X166315240Y-111030824D01*
X166260585Y-110962519D01*
X166195644Y-110881503D01*
X166122158Y-110789940D01*
X166041868Y-110689992D01*
X165956515Y-110583824D01*
X165867840Y-110473597D01*
X165777586Y-110361476D01*
X165727944Y-110299844D01*
X164495373Y-110299844D01*
X164444146Y-110392519D01*
X164392919Y-110485195D01*
X164392919Y-113176222D01*
X164444146Y-113268898D01*
X164495373Y-113361573D01*
X163889396Y-113361573D01*
X163744734Y-113361531D01*
X163625244Y-113361341D01*
X163528642Y-113360908D01*
X163452642Y-113360136D01*
X163394957Y-113358930D01*
X163353301Y-113357194D01*
X163325389Y-113354832D01*
X163308935Y-113351750D01*
X163301652Y-113347851D01*
X163301255Y-113343040D01*
X163305458Y-113337222D01*
X163305501Y-113337174D01*
X163322813Y-113312132D01*
X163345736Y-113271415D01*
X163365981Y-113230768D01*
X163404379Y-113148762D01*
X163412211Y-110299844D01*
X164495373Y-110299844D01*
X165727944Y-110299844D01*
X165687493Y-110249624D01*
X165599302Y-110140204D01*
X165514754Y-110035378D01*
X165435592Y-109937311D01*
X165363556Y-109848166D01*
X165300387Y-109770105D01*
X165247827Y-109705292D01*
X165207617Y-109655890D01*
X165184000Y-109627087D01*
X165092290Y-109519378D01*
X165004060Y-109422180D01*
X164922403Y-109338676D01*
X164850410Y-109272048D01*
X164799319Y-109231199D01*
X164738907Y-109187735D01*
X166128298Y-109187735D01*
X166127908Y-109269266D01*
X166131791Y-109329206D01*
X166146390Y-109384777D01*
X166168988Y-109437455D01*
X166183678Y-109467215D01*
X166199472Y-109496703D01*
X166217814Y-109527876D01*
X166240145Y-109562693D01*
X166267909Y-109603110D01*
X166302549Y-109651086D01*
X166345507Y-109708578D01*
X166398227Y-109777543D01*
X166462151Y-109859939D01*
X166538721Y-109957724D01*
X166629381Y-110072855D01*
X166735574Y-110207290D01*
X166747568Y-110222459D01*
X167166325Y-110752012D01*
X167170378Y-110165522D01*
X167171195Y-109989851D01*
X167171021Y-109841132D01*
X167169849Y-109718875D01*
X167167669Y-109622589D01*
X167164474Y-109551783D01*
X167160256Y-109505969D01*
X167158838Y-109497279D01*
X167136591Y-109405735D01*
X167107443Y-109323208D01*
X167074182Y-109256853D01*
X167054200Y-109228710D01*
X167019722Y-109187735D01*
X167673914Y-109187735D01*
X167829969Y-109187869D01*
X167960467Y-109188303D01*
X168067310Y-109189089D01*
X168152398Y-109190276D01*
X168217635Y-109191917D01*
X168264921Y-109194061D01*
X168296157Y-109196759D01*
X168313246Y-109200062D01*
X168318088Y-109204021D01*
X168317753Y-109204898D01*
X168303885Y-109225831D01*
X168280732Y-109259012D01*
X168268754Y-109275793D01*
X168256369Y-109292540D01*
X168245237Y-109307515D01*
X168235288Y-109322194D01*
X168226451Y-109338049D01*
X168218657Y-109356555D01*
X168211835Y-109379185D01*
X168205916Y-109407413D01*
X168200829Y-109442713D01*
X168196504Y-109486558D01*
X168192871Y-109540422D01*
X168189860Y-109605780D01*
X168187401Y-109684104D01*
X168185423Y-109776868D01*
X168183858Y-109885547D01*
X168182634Y-110011613D01*
X168181681Y-110156542D01*
X168180930Y-110321806D01*
X168180311Y-110508879D01*
X168179752Y-110719235D01*
X168179185Y-110954348D01*
X168178655Y-111170341D01*
X168178155Y-111411135D01*
X168177895Y-111640874D01*
X168177868Y-111858093D01*
X168178067Y-112061322D01*
X168178486Y-112249096D01*
X168179118Y-112419945D01*
X168179956Y-112572403D01*
X168180992Y-112705003D01*
X168182220Y-112816276D01*
X168183633Y-112904756D01*
X168185225Y-112968975D01*
X168186987Y-113007465D01*
X168187321Y-113011533D01*
X168199466Y-113104848D01*
X168218427Y-113179790D01*
X168247302Y-113245194D01*
X168289190Y-113309893D01*
X168294429Y-113316952D01*
X168327884Y-113361573D01*
X168694315Y-113361573D01*
X168695054Y-113280079D01*
X168695893Y-113140690D01*
X168696498Y-112983139D01*
X168696905Y-112806291D01*
X168697150Y-112609010D01*
X168697267Y-112390160D01*
X168697295Y-112148607D01*
X168697267Y-111883215D01*
X168697220Y-111592849D01*
X168697190Y-111276373D01*
X168697189Y-111213546D01*
X168697172Y-110893737D01*
X168697112Y-110600261D01*
X168697002Y-110331990D01*
X168696833Y-110087798D01*
X168696597Y-109866557D01*
X168696284Y-109667140D01*
X168695885Y-109488420D01*
X168695393Y-109329271D01*
X168694797Y-109188566D01*
X168694090Y-109065176D01*
X168693263Y-108957976D01*
X168692307Y-108865838D01*
X168691213Y-108787635D01*
X168689973Y-108722241D01*
X168688578Y-108668528D01*
X168687018Y-108625369D01*
X168685286Y-108591637D01*
X168683372Y-108566205D01*
X168681268Y-108547947D01*
X168678966Y-108535734D01*
X168676455Y-108528441D01*
X168676363Y-108528259D01*
X168671192Y-108517118D01*
X168666885Y-108507031D01*
X168662121Y-108497946D01*
X168655578Y-108489812D01*
X168645935Y-108482576D01*
X168631871Y-108476186D01*
X168612063Y-108470589D01*
X168585191Y-108465733D01*
X168549933Y-108461566D01*
X168504968Y-108458036D01*
X168448974Y-108455091D01*
X168380629Y-108452677D01*
X168298614Y-108450744D01*
X168201605Y-108449238D01*
X168088282Y-108448108D01*
X167957323Y-108447302D01*
X167807407Y-108446766D01*
X167637213Y-108446449D01*
X167445418Y-108446299D01*
X167230702Y-108446263D01*
X166991743Y-108446289D01*
G37*
X166991743Y-108446289D02*
X166727220Y-108446325D01*
X166604088Y-108446330D01*
X164633189Y-108446330D01*
X164633189Y-108562510D01*
X164620789Y-108703891D01*
X164583364Y-108834284D01*
X164520577Y-108954462D01*
X164432094Y-109065202D01*
X164402157Y-109095111D01*
X164294466Y-109179948D01*
X164175725Y-109241821D01*
X164049460Y-109280759D01*
X163919197Y-109296790D01*
X163788465Y-109289942D01*
X163660788Y-109260243D01*
X163539695Y-109207720D01*
X163428712Y-109132403D01*
X163378868Y-109086963D01*
X163285983Y-108975552D01*
X163217873Y-108853035D01*
X163175129Y-108720815D01*
X163158347Y-108580292D01*
X163158124Y-108566467D01*
X163157244Y-108446334D01*
X163104443Y-108446332D01*
X163057604Y-108452689D01*
X163014817Y-108468156D01*
X163011989Y-108469754D01*
X163002325Y-108474768D01*
X162993451Y-108478673D01*
X162985335Y-108482607D01*
X162977943Y-108487706D01*
X162971245Y-108495108D01*
X162965208Y-108505951D01*
X162959801Y-108521372D01*
X162954990Y-108542509D01*
X162950745Y-108570499D01*
X162947032Y-108606479D01*
X162943821Y-108651587D01*
X162941078Y-108706960D01*
X162938772Y-108773737D01*
X162936871Y-108853053D01*
X162935342Y-108946047D01*
X162934154Y-109053857D01*
X162933274Y-109177619D01*
X162932670Y-109318471D01*
X162932311Y-109477550D01*
X162932165Y-109655995D01*
X162932198Y-109854942D01*
X162932380Y-110075529D01*
X162932677Y-110318893D01*
X162933059Y-110586172D01*
X162933492Y-110878503D01*
X162933945Y-111197024D01*
X162933998Y-111235830D01*
X162934404Y-111556382D01*
X162934749Y-111850612D01*
X162935069Y-112119656D01*
X162935400Y-112364652D01*
X162935779Y-112586737D01*
X162936243Y-112787047D01*
X162936828Y-112966719D01*
X162937570Y-113126890D01*
X162938506Y-113268698D01*
X162939673Y-113393279D01*
X162941107Y-113501770D01*
X162942844Y-113595307D01*
X162944922Y-113675029D01*
X162947376Y-113742072D01*
X162950244Y-113797573D01*
X162953561Y-113842668D01*
X162957364Y-113878495D01*
X162961690Y-113906191D01*
X162966575Y-113926893D01*
X162972055Y-113941737D01*
X162978168Y-113951860D01*
X162984950Y-113958400D01*
X162992437Y-113962493D01*
X163000666Y-113965276D01*
X163009673Y-113967887D01*
X163019495Y-113971462D01*
X163021894Y-113972550D01*
X163029435Y-113974996D01*
X163042056Y-113977242D01*
X163060859Y-113979298D01*
X163086947Y-113981172D01*
X163121422Y-113982871D01*
X163165385Y-113984403D01*
X163219939Y-113985777D01*
X163286185Y-113987000D01*
X163365226Y-113988081D01*
X163458163Y-113989027D01*
X163566099Y-113989847D01*
X163690136Y-113990547D01*
X163831376Y-113991138D01*
X163990921Y-113991625D01*
X164169872Y-113992019D01*
X164369332Y-113992325D01*
X164590404Y-113992553D01*
X164834188Y-113992710D01*
X165101787Y-113992805D01*
X165394303Y-113992845D01*
X165712839Y-113992838D01*
X165816021Y-113992828D01*
X166141623Y-113992776D01*
X166440881Y-113992691D01*
X166714909Y-113992563D01*
X166964824Y-113992385D01*
X167191740Y-113992148D01*
X167396773Y-113991842D01*
X167581038Y-113991460D01*
X167745650Y-113990992D01*
X167891725Y-113990430D01*
X168020376Y-113989765D01*
X168132721Y-113988988D01*
X168229874Y-113988091D01*
X168312950Y-113987065D01*
X168383064Y-113985901D01*
X168441332Y-113984591D01*
X168488869Y-113983125D01*
X168526790Y-113981496D01*
X168556210Y-113979693D01*
X168578245Y-113977710D01*
X168594010Y-113975536D01*
X168604620Y-113973163D01*
X168610404Y-113970991D01*
X168620684Y-113966656D01*
X168630122Y-113963459D01*
X168638755Y-113960265D01*
X168646619Y-113955938D01*
X168653748Y-113949344D01*
X168660179Y-113939347D01*
X168665947Y-113924812D01*
X168671089Y-113904603D01*
X168675640Y-113877585D01*
X168679635Y-113842623D01*
X168683111Y-113798581D01*
X168686102Y-113744324D01*
X168688646Y-113678717D01*
X168690777Y-113600624D01*
X168692532Y-113508910D01*
X168693945Y-113402440D01*
X168694315Y-113361573D01*
X168327884Y-113361573D01*
X167032734Y-113361573D01*
X167057655Y-113323817D01*
X167082447Y-113285017D01*
X167103440Y-113248069D01*
X167120935Y-113210388D01*
X167135230Y-113169388D01*
X167146623Y-113122483D01*
X167155413Y-113067087D01*
X167161898Y-113000616D01*
X167166377Y-112920483D01*
X167169150Y-112824102D01*
X167170513Y-112708889D01*
X167170767Y-112572257D01*
X167170209Y-112411620D01*
X167169893Y-112351982D01*
X167166325Y-111712641D01*
X166761298Y-112264049D01*
X166646554Y-112420476D01*
X166547143Y-112556688D01*
X166461990Y-112674490D01*
X166390022Y-112775684D01*
X166330166Y-112862077D01*
X166281348Y-112935474D01*
X166242495Y-112997677D01*
X166212534Y-113050493D01*
X166190391Y-113095725D01*
X166174993Y-113135178D01*
X166165266Y-113170658D01*
X166160137Y-113203968D01*
X166158532Y-113236913D01*
X166159379Y-113271297D01*
X166159595Y-113275619D01*
X166164054Y-113361631D01*
X164744692Y-113361573D01*
X164850265Y-113255122D01*
X164878913Y-113226006D01*
X164906090Y-113197676D01*
X164932989Y-113168568D01*
X164960803Y-113137120D01*
X164990725Y-113101769D01*
X165023946Y-113060954D01*
X165061661Y-113013111D01*
X165105060Y-112956679D01*
X165155338Y-112890094D01*
X165213688Y-112811795D01*
X165281300Y-112720219D01*
X165359369Y-112613804D01*
X165449088Y-112490987D01*
X165551648Y-112350205D01*
X165668242Y-112189897D01*
X165763809Y-112058398D01*
X165883749Y-111893196D01*
X165988380Y-111748752D01*
X166078648Y-111623694D01*
X166155503Y-111516652D01*
X166219891Y-111426254D01*
X166272761Y-111351129D01*
X166315060Y-111289904D01*
X166347736Y-111241210D01*
X166371738Y-111203674D01*
X166388013Y-111175925D01*
X166397508Y-111156592D01*
X166401173Y-111144303D01*
X166400071Y-111137842D01*
X166386724Y-111120648D01*
X166357866Y-111084255D01*
X166315240Y-111030824D01*
X166260585Y-110962519D01*
X166195644Y-110881503D01*
X166122158Y-110789940D01*
X166041868Y-110689992D01*
X165956515Y-110583824D01*
X165867840Y-110473597D01*
X165777586Y-110361476D01*
X165727944Y-110299844D01*
X164495373Y-110299844D01*
X164444146Y-110392519D01*
X164392919Y-110485195D01*
X164392919Y-113176222D01*
X164444146Y-113268898D01*
X164495373Y-113361573D01*
X163889396Y-113361573D01*
X163744734Y-113361531D01*
X163625244Y-113361341D01*
X163528642Y-113360908D01*
X163452642Y-113360136D01*
X163394957Y-113358930D01*
X163353301Y-113357194D01*
X163325389Y-113354832D01*
X163308935Y-113351750D01*
X163301652Y-113347851D01*
X163301255Y-113343040D01*
X163305458Y-113337222D01*
X163305501Y-113337174D01*
X163322813Y-113312132D01*
X163345736Y-113271415D01*
X163365981Y-113230768D01*
X163404379Y-113148762D01*
X163412211Y-110299844D01*
X164495373Y-110299844D01*
X165727944Y-110299844D01*
X165687493Y-110249624D01*
X165599302Y-110140204D01*
X165514754Y-110035378D01*
X165435592Y-109937311D01*
X165363556Y-109848166D01*
X165300387Y-109770105D01*
X165247827Y-109705292D01*
X165207617Y-109655890D01*
X165184000Y-109627087D01*
X165092290Y-109519378D01*
X165004060Y-109422180D01*
X164922403Y-109338676D01*
X164850410Y-109272048D01*
X164799319Y-109231199D01*
X164738907Y-109187735D01*
X166128298Y-109187735D01*
X166127908Y-109269266D01*
X166131791Y-109329206D01*
X166146390Y-109384777D01*
X166168988Y-109437455D01*
X166183678Y-109467215D01*
X166199472Y-109496703D01*
X166217814Y-109527876D01*
X166240145Y-109562693D01*
X166267909Y-109603110D01*
X166302549Y-109651086D01*
X166345507Y-109708578D01*
X166398227Y-109777543D01*
X166462151Y-109859939D01*
X166538721Y-109957724D01*
X166629381Y-110072855D01*
X166735574Y-110207290D01*
X166747568Y-110222459D01*
X167166325Y-110752012D01*
X167170378Y-110165522D01*
X167171195Y-109989851D01*
X167171021Y-109841132D01*
X167169849Y-109718875D01*
X167167669Y-109622589D01*
X167164474Y-109551783D01*
X167160256Y-109505969D01*
X167158838Y-109497279D01*
X167136591Y-109405735D01*
X167107443Y-109323208D01*
X167074182Y-109256853D01*
X167054200Y-109228710D01*
X167019722Y-109187735D01*
X167673914Y-109187735D01*
X167829969Y-109187869D01*
X167960467Y-109188303D01*
X168067310Y-109189089D01*
X168152398Y-109190276D01*
X168217635Y-109191917D01*
X168264921Y-109194061D01*
X168296157Y-109196759D01*
X168313246Y-109200062D01*
X168318088Y-109204021D01*
X168317753Y-109204898D01*
X168303885Y-109225831D01*
X168280732Y-109259012D01*
X168268754Y-109275793D01*
X168256369Y-109292540D01*
X168245237Y-109307515D01*
X168235288Y-109322194D01*
X168226451Y-109338049D01*
X168218657Y-109356555D01*
X168211835Y-109379185D01*
X168205916Y-109407413D01*
X168200829Y-109442713D01*
X168196504Y-109486558D01*
X168192871Y-109540422D01*
X168189860Y-109605780D01*
X168187401Y-109684104D01*
X168185423Y-109776868D01*
X168183858Y-109885547D01*
X168182634Y-110011613D01*
X168181681Y-110156542D01*
X168180930Y-110321806D01*
X168180311Y-110508879D01*
X168179752Y-110719235D01*
X168179185Y-110954348D01*
X168178655Y-111170341D01*
X168178155Y-111411135D01*
X168177895Y-111640874D01*
X168177868Y-111858093D01*
X168178067Y-112061322D01*
X168178486Y-112249096D01*
X168179118Y-112419945D01*
X168179956Y-112572403D01*
X168180992Y-112705003D01*
X168182220Y-112816276D01*
X168183633Y-112904756D01*
X168185225Y-112968975D01*
X168186987Y-113007465D01*
X168187321Y-113011533D01*
X168199466Y-113104848D01*
X168218427Y-113179790D01*
X168247302Y-113245194D01*
X168289190Y-113309893D01*
X168294429Y-113316952D01*
X168327884Y-113361573D01*
X168694315Y-113361573D01*
X168695054Y-113280079D01*
X168695893Y-113140690D01*
X168696498Y-112983139D01*
X168696905Y-112806291D01*
X168697150Y-112609010D01*
X168697267Y-112390160D01*
X168697295Y-112148607D01*
X168697267Y-111883215D01*
X168697220Y-111592849D01*
X168697190Y-111276373D01*
X168697189Y-111213546D01*
X168697172Y-110893737D01*
X168697112Y-110600261D01*
X168697002Y-110331990D01*
X168696833Y-110087798D01*
X168696597Y-109866557D01*
X168696284Y-109667140D01*
X168695885Y-109488420D01*
X168695393Y-109329271D01*
X168694797Y-109188566D01*
X168694090Y-109065176D01*
X168693263Y-108957976D01*
X168692307Y-108865838D01*
X168691213Y-108787635D01*
X168689973Y-108722241D01*
X168688578Y-108668528D01*
X168687018Y-108625369D01*
X168685286Y-108591637D01*
X168683372Y-108566205D01*
X168681268Y-108547947D01*
X168678966Y-108535734D01*
X168676455Y-108528441D01*
X168676363Y-108528259D01*
X168671192Y-108517118D01*
X168666885Y-108507031D01*
X168662121Y-108497946D01*
X168655578Y-108489812D01*
X168645935Y-108482576D01*
X168631871Y-108476186D01*
X168612063Y-108470589D01*
X168585191Y-108465733D01*
X168549933Y-108461566D01*
X168504968Y-108458036D01*
X168448974Y-108455091D01*
X168380629Y-108452677D01*
X168298614Y-108450744D01*
X168201605Y-108449238D01*
X168088282Y-108448108D01*
X167957323Y-108447302D01*
X167807407Y-108446766D01*
X167637213Y-108446449D01*
X167445418Y-108446299D01*
X167230702Y-108446263D01*
X166991743Y-108446289D01*
D12*
X170475000Y-103826400D02*
X170475000Y-105502800D01*
X180310200Y-103775600D02*
X181275400Y-102785000D01*
X170475000Y-103775000D02*
X180275000Y-103775000D01*
X170475000Y-115307200D02*
X170475000Y-108068200D01*
X185275000Y-108042800D02*
X185275000Y-115662800D01*
X185275000Y-102785000D02*
X185275000Y-105401200D01*
X181275000Y-102775000D02*
X185275000Y-102775000D01*
X181072200Y-117275000D02*
X184171000Y-117275000D01*
M02*
