G04 #@! TF.GenerationSoftware,KiCad,Pcbnew,(5.1.5)-3*
G04 #@! TF.CreationDate,2020-02-11T21:27:27+08:00*
G04 #@! TF.ProjectId,F1C200S_KIT,46314332-3030-4535-9f4b-49542e6b6963,V1.0*
G04 #@! TF.SameCoordinates,Original*
G04 #@! TF.FileFunction,Copper,L2,Bot*
G04 #@! TF.FilePolarity,Positive*
%FSLAX46Y46*%
G04 Gerber Fmt 4.6, Leading zero omitted, Abs format (unit mm)*
G04 Created by KiCad (PCBNEW (5.1.5)-3) date 2020-02-11 21:27:27*
%MOMM*%
%LPD*%
G04 APERTURE LIST*
%ADD10R,4.000000X4.000000*%
%ADD11R,1.700000X1.700000*%
%ADD12O,1.700000X1.700000*%
%ADD13R,0.700000X1.300000*%
%ADD14R,1.200000X1.400000*%
%ADD15R,1.200000X2.000000*%
%ADD16C,1.100000*%
%ADD17O,1.500000X0.900000*%
%ADD18C,0.609600*%
%ADD19C,0.127000*%
%ADD20C,0.203200*%
%ADD21C,0.254000*%
%ADD22C,0.304800*%
G04 APERTURE END LIST*
D10*
X189458600Y-130022600D03*
X142570200Y-102565200D03*
D11*
X147929600Y-104394000D03*
D12*
X147929600Y-101854000D03*
X150469600Y-104394000D03*
X150469600Y-101854000D03*
X153009600Y-104394000D03*
X153009600Y-101854000D03*
X155549600Y-104394000D03*
X155549600Y-101854000D03*
X158089600Y-104394000D03*
X158089600Y-101854000D03*
X160629600Y-104394000D03*
X160629600Y-101854000D03*
X163169600Y-104394000D03*
X163169600Y-101854000D03*
X165709600Y-104394000D03*
X165709600Y-101854000D03*
X168249600Y-104394000D03*
X168249600Y-101854000D03*
D13*
X171455000Y-117225000D03*
X172555000Y-117225000D03*
X180255000Y-117225000D03*
X173655000Y-117225000D03*
X174755000Y-117225000D03*
X175855000Y-117225000D03*
X176955000Y-117225000D03*
X178055000Y-117225000D03*
X179155000Y-117225000D03*
D14*
X185035000Y-116775000D03*
X170315000Y-116375000D03*
D15*
X170315000Y-106675000D03*
X185835000Y-106675000D03*
D11*
X185575000Y-128275000D03*
D12*
X185575000Y-130815000D03*
X183035000Y-128275000D03*
X183035000Y-130815000D03*
X180495000Y-128275000D03*
X180495000Y-130815000D03*
X177955000Y-128275000D03*
X177955000Y-130815000D03*
X175415000Y-128275000D03*
X175415000Y-130815000D03*
X172875000Y-128275000D03*
X172875000Y-130815000D03*
X170335000Y-128275000D03*
X170335000Y-130815000D03*
X167795000Y-128275000D03*
X167795000Y-130815000D03*
X165255000Y-128275000D03*
X165255000Y-130815000D03*
X162715000Y-128275000D03*
X162715000Y-130815000D03*
X160175000Y-128275000D03*
X160175000Y-130815000D03*
X157635000Y-128275000D03*
X157635000Y-130815000D03*
X155095000Y-128275000D03*
X155095000Y-130815000D03*
X152555000Y-128275000D03*
X152555000Y-130815000D03*
X150015000Y-128275000D03*
X150015000Y-130815000D03*
D16*
X186226000Y-119925000D03*
D17*
X188906000Y-121125000D03*
X188906000Y-113875000D03*
D16*
X186226000Y-115075000D03*
X186251400Y-108425000D03*
D17*
X188931400Y-109625000D03*
X188931400Y-102375000D03*
D16*
X186251400Y-103575000D03*
D18*
X183875458Y-110281942D03*
X177977800Y-119786400D03*
X177444400Y-119227600D03*
X162814000Y-118745000D03*
X159562800Y-118745000D03*
X162788600Y-115493800D03*
X159562800Y-115493800D03*
X176225200Y-104394000D03*
X175031400Y-104368600D03*
X176174400Y-102641400D03*
X174980600Y-102666800D03*
X181762400Y-124333000D03*
X181787800Y-123164600D03*
X183184800Y-124333000D03*
X179273200Y-123164600D03*
X188442600Y-123875800D03*
X183159400Y-123139200D03*
X185120058Y-110332742D03*
X180289200Y-109626400D03*
X179146200Y-109931200D03*
X180594000Y-112318800D03*
X167817800Y-118694200D03*
X175920400Y-121285000D03*
X148564600Y-115112800D03*
X158724600Y-124231400D03*
X152425400Y-121945400D03*
X151765000Y-120751600D03*
X155941822Y-124473083D03*
X189890400Y-126263400D03*
X168300400Y-105943400D03*
X148894800Y-106984800D03*
X172237400Y-122758200D03*
X168609430Y-116768030D03*
X171451038Y-115774238D03*
X145491200Y-124891800D03*
X148869400Y-108889800D03*
X185079700Y-126390400D03*
X175900991Y-114190570D03*
X180771800Y-102997000D03*
X172842592Y-112946552D03*
X180492400Y-114427000D03*
X171864800Y-107357400D03*
X166801800Y-106502200D03*
X169386831Y-123990821D03*
X169240200Y-126847600D03*
X148785870Y-123919270D03*
X150037800Y-108839000D03*
X169428082Y-111192001D03*
X167462200Y-110058200D03*
X168734834Y-118136137D03*
X164251680Y-124811654D03*
X155829000Y-122021600D03*
X159060000Y-106505300D03*
X151000000Y-106510000D03*
X163850000Y-106510000D03*
X168275000Y-124002800D03*
X154482800Y-124307600D03*
X160079700Y-110981346D03*
X153867478Y-107513643D03*
X179501800Y-121894600D03*
X179420230Y-114330770D03*
X173659800Y-124841000D03*
X170561000Y-125006080D03*
X145440400Y-127939800D03*
X148640800Y-111658400D03*
X162432973Y-122986827D03*
X162077400Y-126631691D03*
X149606000Y-111442510D03*
X163187343Y-123014804D03*
X161442400Y-127177800D03*
X166801800Y-126695200D03*
X165989000Y-126949200D03*
X176352200Y-107518200D03*
X177723800Y-107492800D03*
X175590200Y-111213900D03*
X173964600Y-110197900D03*
X173228116Y-110058201D03*
X174355213Y-109573399D03*
X170611800Y-102997000D03*
X177012600Y-106438700D03*
X177012600Y-109385130D03*
X175056800Y-106984800D03*
X170510200Y-104190800D03*
X175082546Y-109689880D03*
X175818800Y-106959400D03*
X175818800Y-108877110D03*
X177901600Y-106476800D03*
X173685200Y-108991400D03*
X170688000Y-109220000D03*
X183756299Y-107797600D03*
X187349870Y-126822730D03*
X183769351Y-106324751D03*
X170581030Y-110027430D03*
X183946800Y-108839000D03*
X172872400Y-113682550D03*
X174446821Y-113936560D03*
X176631600Y-114096800D03*
X177296893Y-114472907D03*
X178148861Y-114122434D03*
X185502641Y-122218359D03*
X184708800Y-120954800D03*
X175164388Y-114190570D03*
X168930065Y-125501380D03*
X171373800Y-125247370D03*
X148750000Y-110150000D03*
X166680690Y-121996200D03*
X166070431Y-122408711D03*
X145846800Y-110693200D03*
X166230856Y-123456700D03*
X145542000Y-111734600D03*
X159641600Y-122834400D03*
X149148412Y-112393530D03*
X158910639Y-122925382D03*
X149614359Y-112964035D03*
X148412200Y-112369600D03*
X158394400Y-123520200D03*
X149148800Y-114452400D03*
X157436216Y-123934190D03*
X150368000Y-125996700D03*
X156032200Y-123742047D03*
X149606000Y-126009400D03*
X155055162Y-123276080D03*
X148818600Y-125984000D03*
X155467873Y-122663604D03*
X155194000Y-121058400D03*
X148535292Y-126663941D03*
X154487204Y-119991600D03*
X145999200Y-126009400D03*
X153644600Y-119761000D03*
X145846800Y-126771400D03*
X151642951Y-119486551D03*
X150825200Y-120650700D03*
X150810121Y-119618921D03*
X150241000Y-121158000D03*
X149575736Y-121650700D03*
X149828620Y-119468910D03*
X149026583Y-122146000D03*
X149119428Y-119214900D03*
X148531030Y-122690985D03*
X148513800Y-118719600D03*
X153294055Y-114129895D03*
X153314400Y-116636800D03*
X152643977Y-114625195D03*
X152624825Y-116377826D03*
X151067400Y-115883406D03*
X151079200Y-117150700D03*
X150270460Y-115979885D03*
X150266400Y-117646000D03*
X149475442Y-116074442D03*
X149453600Y-118150700D03*
D19*
X179273200Y-123164600D02*
X179434338Y-123164600D01*
D20*
X185835000Y-108008600D02*
X186251400Y-108425000D01*
X185835000Y-106675000D02*
X185835000Y-108008600D01*
X188931400Y-113849600D02*
X188906000Y-113875000D01*
X188931400Y-109625000D02*
X188931400Y-113849600D01*
X185838200Y-116775000D02*
X186232800Y-116380400D01*
X185035000Y-116775000D02*
X185838200Y-116775000D01*
X186226000Y-116373600D02*
X186226000Y-115075000D01*
X186232800Y-116380400D02*
X186226000Y-116373600D01*
X188906000Y-114528200D02*
X188906000Y-121125000D01*
X188906000Y-113875000D02*
X188906000Y-114528200D01*
X188906000Y-120471800D02*
X188906000Y-121125000D01*
X188359200Y-119925000D02*
X188906000Y-120471800D01*
X186226000Y-119925000D02*
X188359200Y-119925000D01*
X188906000Y-123412400D02*
X188906000Y-121125000D01*
X188442600Y-123875800D02*
X188906000Y-123412400D01*
D21*
X185859400Y-108425000D02*
X186251400Y-108425000D01*
D19*
X181292510Y-121145290D02*
X181292510Y-115481110D01*
X179273200Y-123164600D02*
X181292510Y-121145290D01*
D22*
X185120058Y-109556342D02*
X186251400Y-108425000D01*
X185120058Y-110332742D02*
X185120058Y-109556342D01*
D19*
X180289200Y-109626400D02*
X181221752Y-109626400D01*
X183337238Y-111741886D02*
X183337239Y-114452401D01*
X183337239Y-114452401D02*
X183337240Y-121840216D01*
X181221752Y-109626400D02*
X183337238Y-111741886D01*
X182829220Y-122809020D02*
X183159400Y-123139200D01*
X182829219Y-111952315D02*
X182829220Y-122809020D01*
X181252615Y-110375711D02*
X182829219Y-111952315D01*
X179146200Y-109931200D02*
X179590711Y-110375711D01*
X179590711Y-110375711D02*
X181252615Y-110375711D01*
X180594000Y-112318800D02*
X181292510Y-113017310D01*
X181292510Y-113017310D02*
X181292510Y-116230400D01*
D20*
X170713400Y-107073400D02*
X170315000Y-106675000D01*
X174755000Y-117225000D02*
X174755000Y-117675338D01*
D19*
X184531000Y-125882400D02*
X184531000Y-123033976D01*
X183337240Y-121840216D02*
X183783512Y-122286488D01*
X184531000Y-123033976D02*
X183783512Y-122286488D01*
D20*
X169710400Y-106070400D02*
X170315000Y-106675000D01*
X185432400Y-104394000D02*
X186251400Y-103575000D01*
X176225200Y-104394000D02*
X185432400Y-104394000D01*
X180162948Y-112318800D02*
X180594000Y-112318800D01*
X170047629Y-110283463D02*
X172082966Y-112318800D01*
X172082966Y-112318800D02*
X180162948Y-112318800D01*
X170047629Y-108145571D02*
X170047629Y-110283463D01*
X170315000Y-107878200D02*
X170047629Y-108145571D01*
X170315000Y-106675000D02*
X170315000Y-107878200D01*
X181483001Y-123469399D02*
X181787800Y-123164600D01*
X179033601Y-125918799D02*
X181483001Y-123469399D01*
X179033601Y-129736399D02*
X179033601Y-125918799D01*
X177955000Y-130815000D02*
X179033601Y-129736399D01*
X170335000Y-128275000D02*
X172952400Y-125657600D01*
X154853502Y-114935000D02*
X154857128Y-114935000D01*
X154857128Y-114935000D02*
X154927210Y-115005082D01*
X154927211Y-118488577D02*
X157322417Y-120883783D01*
X154927210Y-115005082D02*
X154927211Y-118488577D01*
X172948600Y-124762766D02*
X172948600Y-125704600D01*
X172952400Y-125657600D02*
X172948600Y-125704600D01*
D19*
X148564600Y-115112800D02*
X148564600Y-114303554D01*
X149154808Y-113713346D02*
X149957319Y-113713345D01*
X148564600Y-114303554D02*
X149154808Y-113713346D01*
X149957319Y-113713345D02*
X150691424Y-112979240D01*
X154330467Y-113639637D02*
X154334093Y-113639637D01*
X150691424Y-112979240D02*
X153670070Y-112979240D01*
X153670070Y-112979240D02*
X154330467Y-113639637D01*
X154334093Y-113639637D02*
X155473324Y-114778868D01*
X155473324Y-114778868D02*
X155473324Y-115341400D01*
X155473324Y-115341400D02*
X155473324Y-118160800D01*
X155473324Y-118160800D02*
X155473325Y-118262363D01*
X158372554Y-124231400D02*
X158724600Y-124231400D01*
X157899099Y-123757945D02*
X158372554Y-124231400D01*
X155473325Y-118262363D02*
X157899099Y-120688137D01*
X157899099Y-120688137D02*
X157899099Y-123757945D01*
D20*
X149330193Y-115112800D02*
X148564600Y-115112800D01*
X154107882Y-114185754D02*
X154104256Y-114185754D01*
X154104256Y-114185754D02*
X153443862Y-113525360D01*
X150917633Y-113525360D02*
X149330193Y-115112800D01*
X154927210Y-115005082D02*
X154107882Y-114185754D01*
X153443862Y-113525360D02*
X150917633Y-113525360D01*
X157322417Y-121076617D02*
X157352979Y-121107179D01*
X157322417Y-120883783D02*
X157322417Y-121076617D01*
X158419801Y-124536199D02*
X158724600Y-124231400D01*
X157248791Y-124536199D02*
X158419801Y-124536199D01*
X156902815Y-124190223D02*
X157248791Y-124536199D01*
X156902815Y-123678157D02*
X156902815Y-124190223D01*
X157352979Y-123227993D02*
X156902815Y-123678157D01*
X157352979Y-121107179D02*
X157352979Y-123227993D01*
X151765000Y-121285000D02*
X152425400Y-121945400D01*
X151765000Y-120751600D02*
X151765000Y-121285000D01*
X175362150Y-122349217D02*
X175362150Y-122071850D01*
X175360162Y-122351205D02*
X175362150Y-122349217D01*
X174357283Y-123328039D02*
X175360121Y-122354015D01*
X174357283Y-123354083D02*
X174357283Y-123328039D01*
X174357283Y-123354083D02*
X172948600Y-124762766D01*
X175360121Y-122354015D02*
X175360162Y-122351205D01*
X188442600Y-123875800D02*
X188442600Y-124815600D01*
X188442600Y-124815600D02*
X189890400Y-126263400D01*
X169583400Y-105943400D02*
X169710400Y-106070400D01*
X168300400Y-105943400D02*
X169583400Y-105943400D01*
X175388100Y-121285000D02*
X175920400Y-121285000D01*
X175362150Y-121310950D02*
X175362150Y-122071850D01*
X175362150Y-121310950D02*
X175388100Y-121285000D01*
X174752000Y-118081200D02*
X174752000Y-118282488D01*
X174755000Y-117225000D02*
X174755000Y-118078200D01*
X174755000Y-118078200D02*
X174752000Y-118081200D01*
X175362150Y-119024400D02*
X175362150Y-121310950D01*
X170315000Y-117496482D02*
X171101006Y-118282488D01*
X170315000Y-116375000D02*
X170315000Y-117496482D01*
X174934275Y-118282488D02*
X175362150Y-118710363D01*
X171101006Y-118282488D02*
X174934275Y-118282488D01*
X175362150Y-118710363D02*
X175362150Y-119024400D01*
X148779599Y-102703999D02*
X147929600Y-101854000D01*
X149199599Y-106680001D02*
X149199599Y-103123999D01*
X149199599Y-103123999D02*
X148779599Y-102703999D01*
X148894800Y-106984800D02*
X149199599Y-106680001D01*
X170915762Y-115774238D02*
X170315000Y-116375000D01*
X171451038Y-115774238D02*
X170915762Y-115774238D01*
X175412950Y-119227600D02*
X175362150Y-119278400D01*
X177444400Y-119227600D02*
X175412950Y-119227600D01*
X177571400Y-120192800D02*
X175362150Y-120192800D01*
X177977800Y-119786400D02*
X177571400Y-120192800D01*
X146989799Y-127304801D02*
X147497800Y-126796800D01*
X145590767Y-127304801D02*
X146989799Y-127304801D01*
X145491200Y-124891800D02*
X145491200Y-125322852D01*
X145211789Y-125602263D02*
X145211789Y-126925823D01*
X145491200Y-125322852D02*
X145211789Y-125602263D01*
X145211789Y-126925823D02*
X145590767Y-127304801D01*
X184531000Y-125882400D02*
X184531000Y-126060200D01*
X184531000Y-126060200D02*
X184861200Y-126390400D01*
X184861200Y-126390400D02*
X185079700Y-126390400D01*
X147218400Y-102565200D02*
X147929600Y-101854000D01*
X142570200Y-102565200D02*
X147218400Y-102565200D01*
X189458600Y-126695200D02*
X189890400Y-126263400D01*
X189458600Y-130022600D02*
X189458600Y-126695200D01*
X176955000Y-115244579D02*
X176955000Y-117225000D01*
X175900991Y-114190570D02*
X176955000Y-115244579D01*
X173273644Y-112946552D02*
X172842592Y-112946552D01*
X179443004Y-112946552D02*
X173273644Y-112946552D01*
X180492400Y-113995948D02*
X179443004Y-112946552D01*
X180492400Y-114427000D02*
X180492400Y-113995948D01*
X170535601Y-102107999D02*
X169099599Y-103544001D01*
X179451747Y-102107999D02*
X170535601Y-102107999D01*
X169099599Y-103544001D02*
X168249600Y-104394000D01*
X180340748Y-102997000D02*
X179451747Y-102107999D01*
X180771800Y-102997000D02*
X180340748Y-102997000D01*
X172411540Y-112946552D02*
X172842592Y-112946552D01*
X167399601Y-105243999D02*
X168249600Y-104394000D01*
X172842592Y-113059808D02*
X172753251Y-113149149D01*
X172842592Y-112946552D02*
X172842592Y-113059808D01*
X171907201Y-125503403D02*
X170563004Y-126847600D01*
X170563004Y-126847600D02*
X169240200Y-126847600D01*
X168809148Y-126847600D02*
X169240200Y-126847600D01*
X168059839Y-126098291D02*
X168809148Y-126847600D01*
X156130895Y-126098291D02*
X168059839Y-126098291D01*
X150015000Y-128275000D02*
X150968700Y-127321300D01*
X150986500Y-127321300D02*
X151930080Y-126377720D01*
X151930080Y-126377720D02*
X155851466Y-126377720D01*
X150968700Y-127321300D02*
X150986500Y-127321300D01*
X155851466Y-126377720D02*
X156130895Y-126098291D01*
X169486399Y-115492119D02*
X169486399Y-117257881D01*
X169486399Y-117257881D02*
X170841216Y-118612698D01*
X172842592Y-112946552D02*
X172031966Y-112946552D01*
X174797498Y-118612698D02*
X175031940Y-118847140D01*
X170841216Y-118612698D02*
X174797498Y-118612698D01*
X175031940Y-118847140D02*
X175031940Y-122212440D01*
X171907201Y-125337179D02*
X171907201Y-125503403D01*
X171907200Y-124991336D02*
X171907200Y-125247400D01*
X170906685Y-123990821D02*
X171907200Y-124991336D01*
X169386831Y-123990821D02*
X170906685Y-123990821D01*
X175031940Y-122212440D02*
X171907200Y-125247400D01*
X171907200Y-125247400D02*
X171907201Y-125337179D01*
X172842592Y-112946552D02*
X171182633Y-112946552D01*
X171182633Y-112946552D02*
X169428082Y-111192001D01*
X169428082Y-111192001D02*
X169428082Y-108036282D01*
X167386000Y-106097834D02*
X167386000Y-105257600D01*
X169428082Y-108036282D02*
X169324448Y-108036282D01*
X169324448Y-108036282D02*
X167386000Y-106097834D01*
X167386000Y-105257600D02*
X167399601Y-105243999D01*
X167286433Y-106197401D02*
X167386000Y-106097834D01*
X167106599Y-106197401D02*
X167286433Y-106197401D01*
X166801800Y-106502200D02*
X167106599Y-106197401D01*
X172031966Y-112946552D02*
X172031966Y-114708634D01*
X171526200Y-115214400D02*
X169799000Y-115214400D01*
X172031966Y-114708634D02*
X171526200Y-115214400D01*
X169799000Y-115214400D02*
X169486399Y-115492119D01*
X150037800Y-108839000D02*
X149275800Y-108077000D01*
X149275800Y-108077000D02*
X147673565Y-108077000D01*
X146220470Y-123919270D02*
X145034000Y-122732800D01*
X146220470Y-123919270D02*
X148785870Y-123919270D01*
X145008599Y-122707399D02*
X146220470Y-123919270D01*
X145008599Y-110741966D02*
X145008599Y-122707399D01*
X147673565Y-108077000D02*
X145008599Y-110741966D01*
X167462200Y-116863503D02*
X167462200Y-115265200D01*
X167462200Y-110058200D02*
X167462200Y-115265200D01*
X167462200Y-115265200D02*
X167462200Y-115239800D01*
X168734834Y-118136137D02*
X168123548Y-117524852D01*
X165507348Y-117524852D02*
X165049200Y-117983000D01*
X165049200Y-117983000D02*
X165049200Y-119278400D01*
X165049200Y-119278400D02*
X167214091Y-121443291D01*
X167214091Y-121443291D02*
X167214091Y-123262899D01*
X166739595Y-123737395D02*
X166245590Y-124231400D01*
X165665336Y-124811654D02*
X164251680Y-124811654D01*
X166739595Y-123737395D02*
X165665336Y-124811654D01*
X167214091Y-123262899D02*
X166739595Y-123737395D01*
X163765873Y-124866409D02*
X157112014Y-124866409D01*
X157112014Y-124866409D02*
X156565600Y-124319995D01*
X164251680Y-124811654D02*
X163820628Y-124811654D01*
X163820628Y-124811654D02*
X163765873Y-124866409D01*
X156565600Y-124319995D02*
X156565600Y-123012200D01*
X167462200Y-116863503D02*
X167462200Y-117525800D01*
X168123548Y-117524852D02*
X167462200Y-117525800D01*
X167462200Y-117525800D02*
X165507348Y-117524852D01*
X156565600Y-123012200D02*
X156565600Y-122707400D01*
X156565600Y-122707400D02*
X156057600Y-122199400D01*
D21*
X159055300Y-106510000D02*
X159060000Y-106505300D01*
X151000000Y-106510000D02*
X159055300Y-106510000D01*
X163845300Y-106505300D02*
X163850000Y-106510000D01*
X159060000Y-106505300D02*
X163845300Y-106505300D01*
D20*
X155520255Y-125345055D02*
X154482800Y-124307600D01*
X156079055Y-125345055D02*
X155520255Y-125345055D01*
X168275000Y-124002800D02*
X167030400Y-124002800D01*
X165658800Y-125374400D02*
X164947600Y-125374400D01*
X167030400Y-124002800D02*
X165658800Y-125374400D01*
X164947600Y-125374400D02*
X156079055Y-125345055D01*
D21*
X157335181Y-110981346D02*
X153867478Y-107513643D01*
X160079700Y-110981346D02*
X157335181Y-110981346D01*
D20*
X180746400Y-115646200D02*
X179420230Y-114330770D01*
X181000400Y-120396000D02*
X180771800Y-120624600D01*
X181000400Y-115900200D02*
X181000400Y-120396000D01*
X179501800Y-121894600D02*
X180771800Y-120624600D01*
X181000400Y-115900200D02*
X180746400Y-115646200D01*
X171672919Y-130815000D02*
X170335000Y-130815000D01*
X172875000Y-130815000D02*
X171672919Y-130815000D01*
X177659070Y-121894600D02*
X179501800Y-121894600D01*
X171796399Y-129353601D02*
X171796399Y-127757271D01*
X170335000Y-130815000D02*
X171796399Y-129353601D01*
X173666765Y-124834035D02*
X173659800Y-124841000D01*
X174719635Y-124834035D02*
X173666765Y-124834035D01*
X174719635Y-124834035D02*
X177659070Y-121894600D01*
X171796399Y-127757271D02*
X174719635Y-124834035D01*
X151498290Y-126047510D02*
X155714690Y-126047510D01*
X151002999Y-126542801D02*
X151498290Y-126047510D01*
X149529800Y-126542800D02*
X151002999Y-126542801D01*
X156057600Y-125704600D02*
X156049054Y-125704610D01*
X148132800Y-127939800D02*
X149529800Y-126542800D01*
X165795577Y-125704610D02*
X166862415Y-124637771D01*
X145440400Y-127939800D02*
X148132800Y-127939800D01*
X170129948Y-125006080D02*
X170561000Y-125006080D01*
X155714690Y-126047510D02*
X156057600Y-125704600D01*
X156049054Y-125704610D02*
X165795577Y-125704610D01*
X169761639Y-124637771D02*
X170129948Y-125006080D01*
X166862415Y-124637771D02*
X169761639Y-124637771D01*
X144703800Y-127203200D02*
X145440400Y-127939800D01*
X144678390Y-127177790D02*
X144703800Y-127203200D01*
X144678390Y-110058210D02*
X144678390Y-127177790D01*
X147929600Y-104394000D02*
X147929600Y-106807000D01*
X147929600Y-106807000D02*
X144678390Y-110058210D01*
D19*
X149088844Y-111658400D02*
X149393644Y-111963200D01*
X148640800Y-111658400D02*
X149088844Y-111658400D01*
X149393644Y-111963200D02*
X152958800Y-111963200D01*
X152958800Y-111963200D02*
X153593800Y-111963200D01*
X162433000Y-122555748D02*
X162432973Y-122555775D01*
X162433000Y-122072400D02*
X162433000Y-122555748D01*
X159120097Y-120472239D02*
X160832839Y-120472239D01*
X156489364Y-117841506D02*
X159120097Y-120472239D01*
X156489364Y-114358012D02*
X156489364Y-117841506D01*
X162432973Y-122555775D02*
X162432973Y-122986827D01*
X160832839Y-120472239D02*
X162433000Y-122072400D01*
X154754952Y-112623600D02*
X156489364Y-114358012D01*
X154751326Y-112623600D02*
X154754952Y-112623600D01*
X154090926Y-111963200D02*
X154751326Y-112623600D01*
X152958800Y-111963200D02*
X154090926Y-111963200D01*
X151282400Y-129542400D02*
X152555000Y-130815000D01*
X156010600Y-126631691D02*
X155972461Y-126669830D01*
X151282400Y-127457200D02*
X151282400Y-129542400D01*
X162077400Y-126631691D02*
X156010600Y-126631691D01*
X152069770Y-126669830D02*
X151282400Y-127457200D01*
X155972461Y-126669830D02*
X152069770Y-126669830D01*
X163187343Y-122583752D02*
X163187343Y-123014804D01*
X162991829Y-122388238D02*
X163187343Y-122583752D01*
X149606000Y-111442510D02*
X150037052Y-111442510D01*
X150278342Y-111201220D02*
X153688172Y-111201220D01*
X150037052Y-111442510D02*
X150278342Y-111201220D01*
X153688172Y-111201220D02*
X154834765Y-112347815D01*
X154834765Y-112347815D02*
X154838391Y-112347815D01*
X154838391Y-112347815D02*
X156743372Y-114252796D01*
X156743372Y-114252796D02*
X156743373Y-117736291D01*
X156743373Y-117736291D02*
X159225311Y-120218229D01*
X153404999Y-127425001D02*
X152555000Y-128275000D01*
X153595501Y-127234499D02*
X153404999Y-127425001D01*
X161061429Y-120218229D02*
X162991800Y-122148600D01*
X159225311Y-120218229D02*
X161061429Y-120218229D01*
X162991800Y-122148600D02*
X162991829Y-122388238D01*
X161442400Y-127152400D02*
X161175701Y-126885701D01*
X161442400Y-127177800D02*
X161442400Y-127152400D01*
X156115814Y-126885701D02*
X156077675Y-126923840D01*
X161175701Y-126885701D02*
X156115814Y-126885701D01*
X153906160Y-126923840D02*
X152555000Y-128275000D01*
X156077675Y-126923840D02*
X153906160Y-126923840D01*
X166497001Y-126390401D02*
X166801800Y-126695200D01*
X164211000Y-126390400D02*
X166497001Y-126390401D01*
X160175000Y-130815000D02*
X161215501Y-129774499D01*
X162543129Y-126906929D02*
X163694471Y-126906929D01*
X163694471Y-126906929D02*
X164211000Y-126390400D01*
X161463629Y-129518771D02*
X161213800Y-129768600D01*
X161463629Y-127986429D02*
X161463629Y-129518771D01*
X161463629Y-127986429D02*
X162543129Y-126906929D01*
X161215501Y-129774499D02*
X161213800Y-129768600D01*
X164040800Y-126949200D02*
X162715000Y-128275000D01*
X165989000Y-126949200D02*
X164040800Y-126949200D01*
X176733200Y-107518200D02*
X177698400Y-107518200D01*
X177698400Y-107518200D02*
X177723800Y-107492800D01*
X176733200Y-107518200D02*
X176352200Y-107518200D01*
X175394600Y-125755400D02*
X172875000Y-128275000D01*
X177542376Y-125755400D02*
X175394600Y-125755400D01*
X179797926Y-123499850D02*
X177542376Y-125755400D01*
X179812545Y-123499850D02*
X179797926Y-123499850D01*
X180726544Y-111645760D02*
X181546520Y-112465736D01*
X177812760Y-111645760D02*
X180726544Y-111645760D01*
X181546461Y-121776715D02*
X181150320Y-122172855D01*
X177395630Y-111213900D02*
X177495200Y-111328200D01*
X177495200Y-111328200D02*
X177812760Y-111645760D01*
X175590200Y-111213900D02*
X177395630Y-111213900D01*
X181546520Y-112465736D02*
X181546520Y-121624326D01*
X181546520Y-121624326D02*
X181546461Y-121624385D01*
X181546461Y-121624385D02*
X181546461Y-121776715D01*
X181150320Y-122172855D02*
X181149370Y-122172852D01*
X181149370Y-122172852D02*
X179812545Y-123499850D01*
X177139600Y-126923800D02*
X181591180Y-122459980D01*
X176719571Y-127343829D02*
X177139600Y-126923800D01*
X176719571Y-128510371D02*
X176719571Y-127343829D01*
X175415000Y-130815000D02*
X175415000Y-129814942D01*
X175415000Y-129814942D02*
X176719571Y-128510371D01*
X182054540Y-121834754D02*
X182054540Y-112255308D01*
X182054540Y-112255308D02*
X180936973Y-111137741D01*
X180936973Y-111137741D02*
X178226459Y-111137741D01*
X178226459Y-111137741D02*
X177527908Y-110439190D01*
X174498296Y-110197900D02*
X174739596Y-110439200D01*
X174739596Y-110439200D02*
X174777400Y-110439200D01*
X173964600Y-110197900D02*
X174498296Y-110197900D01*
X177527908Y-110439190D02*
X174777400Y-110439200D01*
X182054480Y-122008920D02*
X182054480Y-121834814D01*
X182054540Y-121834754D02*
X182054540Y-121488200D01*
X182054480Y-121834814D02*
X182054540Y-121834754D01*
X181591180Y-122459980D02*
X181603420Y-122459980D01*
X181603420Y-122459980D02*
X182054480Y-122008920D01*
X177495200Y-110769400D02*
X177422694Y-110693200D01*
X177498894Y-110769400D02*
X177495200Y-110769400D01*
X175415000Y-128275000D02*
X175415000Y-127072919D01*
X181800530Y-121729540D02*
X181800530Y-112360522D01*
X181800530Y-112360522D02*
X180831759Y-111391751D01*
X180831759Y-111391751D02*
X178121244Y-111391750D01*
X178121244Y-111391750D02*
X177498894Y-110769400D01*
X177422695Y-110693201D02*
X177498894Y-110769400D01*
X173228116Y-110058201D02*
X173228116Y-110194462D01*
X173726855Y-110693201D02*
X177422695Y-110693201D01*
X173228116Y-110194462D02*
X173726855Y-110693201D01*
X175488260Y-126999660D02*
X175488260Y-126974940D01*
X175415000Y-127072919D02*
X175488260Y-126999660D01*
X176453790Y-126009410D02*
X177647590Y-126009410D01*
X177647590Y-126009410D02*
X178003200Y-125653800D01*
X175488260Y-126974940D02*
X176453790Y-126009410D01*
X178003200Y-125653800D02*
X181253647Y-122427247D01*
X181255153Y-122427247D02*
X181800470Y-121881930D01*
X181253647Y-122427247D02*
X181255153Y-122427247D01*
X181800470Y-121729600D02*
X181800530Y-121729540D01*
X181800470Y-121881930D02*
X181800470Y-121729600D01*
X182308490Y-121940028D02*
X182321200Y-121927318D01*
X182308490Y-127461568D02*
X182308490Y-121940028D01*
X178331673Y-110883731D02*
X177633122Y-110185180D01*
X181762400Y-128007658D02*
X182308490Y-127461568D01*
X180495000Y-130815000D02*
X181762400Y-129590800D01*
X181762400Y-129590800D02*
X181762400Y-128007658D01*
X182321200Y-112162744D02*
X181042187Y-110883731D01*
X182321200Y-121927318D02*
X182321200Y-112162744D01*
X181042187Y-110883731D02*
X178331673Y-110883731D01*
X174844800Y-110185180D02*
X175133020Y-110185180D01*
X174355213Y-109695593D02*
X174844800Y-110185180D01*
X174355213Y-109573399D02*
X174355213Y-109695593D01*
X177633122Y-110185180D02*
X175133020Y-110185180D01*
X177012600Y-106438700D02*
X175450500Y-106438700D01*
X175450500Y-106438700D02*
X172364400Y-103352600D01*
X172364400Y-103352600D02*
X172008800Y-102997000D01*
X172008800Y-102997000D02*
X170611800Y-102997000D01*
X181357829Y-110121701D02*
X180051455Y-110121701D01*
X183035000Y-130815000D02*
X184111901Y-129738099D01*
X183083230Y-121945430D02*
X183083231Y-111847103D01*
X183083231Y-111847103D02*
X181357829Y-110121701D01*
X177012600Y-109385130D02*
X177025270Y-109385130D01*
X180051455Y-110121701D02*
X179314884Y-109385130D01*
X179314884Y-109385130D02*
X177012600Y-109385130D01*
X183680101Y-124095255D02*
X183680101Y-126707899D01*
X183667400Y-124082554D02*
X183680101Y-124095255D01*
X183667400Y-122529600D02*
X183083230Y-121945430D01*
X183667400Y-122529600D02*
X183667400Y-124082554D01*
X184124600Y-127152398D02*
X184124600Y-127406400D01*
X183680101Y-126707899D02*
X184124600Y-127152398D01*
X184111901Y-129738099D02*
X184124600Y-127406400D01*
X175056800Y-106984800D02*
X172262800Y-104190800D01*
X172262800Y-104190800D02*
X170510200Y-104190800D01*
X183035000Y-127072919D02*
X182562499Y-126600418D01*
X183035000Y-127072919D02*
X183035000Y-128275000D01*
X183035000Y-127072919D02*
X182575210Y-126613129D01*
X177738336Y-109931170D02*
X175323836Y-109931170D01*
X182575210Y-112057530D02*
X181147401Y-110629721D01*
X182575210Y-126613129D02*
X182575210Y-112057530D01*
X178436887Y-110629721D02*
X177738336Y-109931170D01*
X175323836Y-109931170D02*
X175082546Y-109689880D01*
X181147401Y-110629721D02*
X178436887Y-110629721D01*
X175844200Y-106934000D02*
X175818800Y-106959400D01*
X175958490Y-108877110D02*
X176199780Y-108635820D01*
X175818800Y-108877110D02*
X175958490Y-108877110D01*
X177952420Y-108635820D02*
X178239106Y-108635820D01*
X176199780Y-108635820D02*
X177952420Y-108635820D01*
X175818800Y-106959400D02*
X177419000Y-106959400D01*
X177419000Y-106959400D02*
X177901600Y-106476800D01*
X186842400Y-129565400D02*
X186486800Y-129921000D01*
X186842400Y-126492000D02*
X186842400Y-129565400D01*
X185039020Y-124688620D02*
X186842400Y-126492000D01*
X186486800Y-129921000D02*
X185575000Y-130815000D01*
X185039019Y-122814422D02*
X185039020Y-124688620D01*
X183966797Y-121742200D02*
X185039019Y-122814422D01*
X177952420Y-108635820D02*
X180949620Y-108635820D01*
X183845258Y-111531458D02*
X183845258Y-121615258D01*
X180949620Y-108635820D02*
X183845258Y-111531458D01*
X183845258Y-121615258D02*
X183966797Y-121736797D01*
X183966797Y-121736797D02*
X183966797Y-121742200D01*
X175498123Y-109372411D02*
X175155213Y-109029501D01*
X175117112Y-108991400D02*
X175498123Y-109372411D01*
X174726600Y-108991400D02*
X175117112Y-108991400D01*
X173685200Y-108991400D02*
X174726600Y-108991400D01*
X175701312Y-109575600D02*
X175498123Y-109372411D01*
X176089084Y-109575600D02*
X175701312Y-109575600D01*
X177469830Y-108889830D02*
X176774854Y-108889830D01*
X176774854Y-108889830D02*
X176089084Y-109575600D01*
X180051434Y-109131120D02*
X177711120Y-109131120D01*
X181085675Y-109131099D02*
X180051455Y-109131099D01*
X180051455Y-109131099D02*
X180051434Y-109131120D01*
X184297887Y-122432514D02*
X184288762Y-122432514D01*
X177711120Y-109131120D02*
X177469830Y-108889830D01*
X184785010Y-124968010D02*
X184785010Y-122919637D01*
X183861573Y-121996200D02*
X183852448Y-121996200D01*
X184785010Y-122919637D02*
X184297887Y-122432514D01*
X185575000Y-128275000D02*
X185575000Y-125758000D01*
X185575000Y-125758000D02*
X184785010Y-124968010D01*
X184288762Y-122432514D02*
X183861573Y-122005325D01*
X183861573Y-122005325D02*
X183861573Y-121996200D01*
X183591248Y-121735000D02*
X183591248Y-111636672D01*
X183852448Y-121996200D02*
X183591248Y-121735000D01*
X183591248Y-111636672D02*
X181085675Y-109131099D01*
X170688000Y-109220000D02*
X171323010Y-108584990D01*
X171323010Y-108584990D02*
X171780200Y-108127800D01*
X171780200Y-108127800D02*
X183426099Y-108127800D01*
X183426099Y-108127800D02*
X183756299Y-107797600D01*
X184442101Y-106997501D02*
X184442101Y-111050835D01*
X183769351Y-106324751D02*
X184442101Y-106997501D01*
X184442101Y-111050835D02*
X184184545Y-111308391D01*
X184184545Y-111308391D02*
X184184545Y-121600724D01*
X184184545Y-121600724D02*
X185368311Y-122784489D01*
X187349870Y-126391678D02*
X187349870Y-126822730D01*
X185901696Y-124943504D02*
X185901696Y-124941696D01*
X185901696Y-124941696D02*
X185369200Y-124409200D01*
X185901696Y-124943504D02*
X187349870Y-126391678D01*
X185368311Y-122784489D02*
X185369200Y-124409200D01*
X171769460Y-108839000D02*
X171780200Y-108839000D01*
X170581030Y-110027430D02*
X171769460Y-108839000D01*
X171780200Y-108839000D02*
X172237390Y-108381810D01*
X172237390Y-108381810D02*
X183515000Y-108381810D01*
X183591200Y-108458010D02*
X183515000Y-108381810D01*
X183591200Y-108483400D02*
X183591200Y-108458010D01*
X183591200Y-108483400D02*
X183946800Y-108839000D01*
X172555000Y-113999950D02*
X172555000Y-117225000D01*
X172872400Y-113682550D02*
X172555000Y-113999950D01*
X173655000Y-116448000D02*
X173655000Y-117225000D01*
X173655000Y-115159433D02*
X173655000Y-116448000D01*
X174446821Y-114367612D02*
X173655000Y-115159433D01*
X174446821Y-113936560D02*
X174446821Y-114367612D01*
X176631600Y-114096800D02*
X176631600Y-114508075D01*
X176631600Y-114508075D02*
X178054000Y-115930475D01*
X178054000Y-115930475D02*
X178054000Y-116255800D01*
X178054000Y-116255800D02*
X178055000Y-117225000D01*
X179155000Y-116331014D02*
X179155000Y-117225000D01*
X177296893Y-114472907D02*
X179155000Y-116331014D01*
X178148861Y-114122434D02*
X178148861Y-114965651D01*
X178148861Y-114965651D02*
X179235810Y-116052600D01*
X179857400Y-116052600D02*
X180263800Y-116459000D01*
X179235810Y-116052600D02*
X179857400Y-116052600D01*
X180263800Y-116459000D02*
X180255000Y-117225000D01*
X185502641Y-122218359D02*
X184708800Y-121424518D01*
X184708800Y-121424518D02*
X184708800Y-120954800D01*
X175855000Y-114881182D02*
X175855000Y-117225000D01*
X175164388Y-114190570D02*
X175855000Y-114881182D01*
X168930065Y-125501380D02*
X170002220Y-125501380D01*
X170002220Y-125501380D02*
X171119790Y-125501380D01*
X171119790Y-125501380D02*
X171373800Y-125247370D01*
X157505402Y-114503202D02*
X157505401Y-113889977D01*
X159537400Y-116535200D02*
X157505402Y-114503202D01*
X161315400Y-116535200D02*
X159537400Y-116535200D01*
X166680690Y-121996200D02*
X166680690Y-121322994D01*
X152654000Y-110159800D02*
X148750000Y-110150000D01*
X166680690Y-121322994D02*
X164592000Y-119234304D01*
X153775224Y-110159800D02*
X152654000Y-110159800D01*
X162055696Y-116535202D02*
X161315400Y-116535200D01*
X157505401Y-113889977D02*
X153775224Y-110159800D01*
X164592000Y-119234304D02*
X164592000Y-119071506D01*
X164592000Y-119071506D02*
X162055696Y-116535202D01*
X166070431Y-121314113D02*
X166070431Y-122408711D01*
X153898600Y-110693200D02*
X155041600Y-111785400D01*
X155041600Y-111785400D02*
X157251392Y-113995192D01*
X161950481Y-116789211D02*
X164338000Y-119176730D01*
X145846800Y-110693200D02*
X153898600Y-110693200D01*
X157251392Y-113995192D02*
X157251392Y-114608416D01*
X157251392Y-114608416D02*
X159432186Y-116789210D01*
X159432186Y-116789210D02*
X161950481Y-116789211D01*
X164338000Y-119176730D02*
X164338000Y-119481600D01*
X164338000Y-119481600D02*
X164337990Y-119583190D01*
X164466528Y-119710210D02*
X166070431Y-121314113D01*
X164465010Y-119710210D02*
X164466528Y-119710210D01*
X164337990Y-119583190D02*
X164465010Y-119710210D01*
X164361313Y-119964219D02*
X165530747Y-121133653D01*
X145542000Y-111734600D02*
X146329390Y-110947210D01*
X165530747Y-121133653D02*
X165530747Y-122756591D01*
X146329390Y-110947210D02*
X153793386Y-110947210D01*
X153793386Y-110947210D02*
X154939979Y-112093805D01*
X165530747Y-122756591D02*
X166230856Y-123456700D01*
X154939979Y-112093805D02*
X154943605Y-112093805D01*
X156921200Y-114071400D02*
X156997382Y-114147582D01*
X154943605Y-112093805D02*
X156921200Y-114071400D01*
X164261843Y-119866338D02*
X164704669Y-120308732D01*
X161845266Y-117043220D02*
X164083980Y-119281934D01*
X159326972Y-117043220D02*
X161845266Y-117043220D01*
X156997381Y-114147581D02*
X156997383Y-114713631D01*
X156997383Y-114713631D02*
X159326972Y-117043220D01*
X156921200Y-114071400D02*
X156997381Y-114147581D01*
X164083981Y-119303819D02*
X164084000Y-119303800D01*
X164083981Y-119688405D02*
X164083981Y-119303819D01*
X164261843Y-119866267D02*
X164083981Y-119688405D01*
X164261843Y-119866338D02*
X164261843Y-119866267D01*
X164084000Y-119303800D02*
X164083980Y-119688475D01*
X164083980Y-119281934D02*
X164084000Y-119303800D01*
X156235354Y-114463226D02*
X156235354Y-117946720D01*
X154649737Y-112877609D02*
X156235354Y-114463226D01*
X149148412Y-112393530D02*
X149328070Y-112393530D01*
X154646111Y-112877609D02*
X154649737Y-112877609D01*
X149328070Y-112393530D02*
X149504390Y-112217210D01*
X149504390Y-112217210D02*
X153985712Y-112217210D01*
X153985712Y-112217210D02*
X154646111Y-112877609D01*
X158603017Y-120314383D02*
X158552217Y-120263583D01*
X156235354Y-117946720D02*
X158603017Y-120314383D01*
X159664400Y-121843800D02*
X159641600Y-122834400D01*
X159029448Y-120726248D02*
X159664400Y-121361200D01*
X159664400Y-121361200D02*
X159664400Y-121843800D01*
X159014882Y-120726248D02*
X159029448Y-120726248D01*
X158603017Y-120314383D02*
X159014882Y-120726248D01*
X158910639Y-120981229D02*
X158910639Y-122925382D01*
X155981344Y-118051934D02*
X158910639Y-120981229D01*
X155981344Y-114568440D02*
X155981344Y-118051934D01*
X150107174Y-112471220D02*
X153880498Y-112471220D01*
X149614359Y-112964035D02*
X150107174Y-112471220D01*
X154540896Y-113131618D02*
X154544523Y-113131619D01*
X153880498Y-112471220D02*
X154540896Y-113131618D01*
X154544523Y-113131619D02*
X155981344Y-114568440D01*
X148412200Y-112369600D02*
X148564600Y-112217200D01*
X148716999Y-112674399D02*
X148412200Y-112369600D01*
X149376614Y-113459336D02*
X148716999Y-112799721D01*
X150586210Y-112725230D02*
X149852104Y-113459336D01*
X158191180Y-120620994D02*
X155727334Y-118157148D01*
X148716999Y-112799721D02*
X148716999Y-112674399D01*
X155727334Y-114673654D02*
X154439307Y-113385627D01*
X155727334Y-118157148D02*
X155727334Y-114673654D01*
X149852104Y-113459336D02*
X149376614Y-113459336D01*
X154439307Y-113385627D02*
X154435681Y-113385627D01*
X153775284Y-112725230D02*
X150586210Y-112725230D01*
X154435681Y-113385627D02*
X153775284Y-112725230D01*
X158191180Y-120624580D02*
X158394400Y-120827800D01*
X158191180Y-120620994D02*
X158191180Y-120624580D01*
X158394400Y-120827800D02*
X158394400Y-122377200D01*
X158394400Y-123520200D02*
X158394400Y-122377200D01*
X149633846Y-113967354D02*
X149148800Y-114452400D01*
X157645089Y-123736111D02*
X157645089Y-120793351D01*
X153564856Y-113233250D02*
X150796638Y-113233250D01*
X157436216Y-123934190D02*
X157447010Y-123934190D01*
X155219314Y-118367576D02*
X155219314Y-114884082D01*
X157645089Y-120793351D02*
X155219314Y-118367576D01*
X150796638Y-113233250D02*
X150062532Y-113967354D01*
X157447010Y-123934190D02*
X157645089Y-123736111D01*
X155219314Y-114884082D02*
X154228879Y-113893647D01*
X154228879Y-113893647D02*
X154225252Y-113893646D01*
X150062532Y-113967354D02*
X149633846Y-113967354D01*
X154225252Y-113893646D02*
X153564856Y-113233250D01*
X150799052Y-125996700D02*
X151040342Y-125755410D01*
X150368000Y-125996700D02*
X150799052Y-125996700D01*
X152005724Y-125755400D02*
X151333200Y-125755400D01*
X153555124Y-124206000D02*
X152005724Y-125755400D01*
X151040342Y-125755410D02*
X151333200Y-125755400D01*
X153989743Y-123771381D02*
X153510962Y-124250162D01*
X155571814Y-123771381D02*
X153989743Y-123771381D01*
X156032200Y-123742047D02*
X155601148Y-123742047D01*
X155601148Y-123742047D02*
X155571814Y-123771381D01*
X150114001Y-125501399D02*
X149606000Y-126009400D01*
X151900500Y-125501400D02*
X150114001Y-125501399D01*
X153502377Y-123899523D02*
X151900500Y-125501400D01*
X154125820Y-123276080D02*
X153502377Y-123899523D01*
X155055162Y-123276080D02*
X154125820Y-123276080D01*
X148818600Y-125984000D02*
X149580600Y-125222000D01*
X151820676Y-125221999D02*
X150926801Y-125222003D01*
X150114003Y-125222003D02*
X150926801Y-125222003D01*
X150114000Y-125222000D02*
X150114003Y-125222003D01*
X149580600Y-125222000D02*
X150114000Y-125222000D01*
X154379070Y-122663604D02*
X153634337Y-123408337D01*
X155467873Y-122663604D02*
X154379070Y-122663604D01*
X153674876Y-123367800D02*
X153634337Y-123408337D01*
X153634337Y-123408337D02*
X151820676Y-125221999D01*
X155194000Y-121489452D02*
X155194000Y-121058400D01*
X151715462Y-124967990D02*
X155194000Y-121489452D01*
X148323299Y-126451948D02*
X148323299Y-125746255D01*
X148535292Y-126663941D02*
X148323299Y-126451948D01*
X149101554Y-124968000D02*
X149987000Y-124968000D01*
X148323299Y-125746255D02*
X149101554Y-124968000D01*
X149987000Y-124968000D02*
X151715462Y-124967990D01*
X154487204Y-120422652D02*
X154482800Y-120427056D01*
X154487204Y-119991600D02*
X154487204Y-120422652D01*
X154482800Y-120427056D02*
X154482800Y-121841428D01*
X154482800Y-121841428D02*
X151610245Y-124713983D01*
X147294617Y-124713983D02*
X145999200Y-126009400D01*
X149606017Y-124713983D02*
X147294617Y-124713983D01*
X151610245Y-124713983D02*
X149606017Y-124713983D01*
X153644600Y-122320404D02*
X151505031Y-124459973D01*
X153644600Y-119761000D02*
X153644600Y-122320404D01*
X151505031Y-124459973D02*
X148945633Y-124459973D01*
X148945633Y-124459973D02*
X148945630Y-124459970D01*
X145503899Y-125771655D02*
X145503899Y-126428499D01*
X145503899Y-126428499D02*
X145846800Y-126771400D01*
X148945630Y-124459970D02*
X146815584Y-124459970D01*
X146815584Y-124459970D02*
X145503899Y-125771655D01*
X151642951Y-119486551D02*
X150825200Y-120304302D01*
X150825200Y-120304302D02*
X150825200Y-120650700D01*
X150241000Y-120188042D02*
X150241000Y-121158000D01*
X150810121Y-119618921D02*
X150241000Y-120188042D01*
X149574373Y-121649337D02*
X149575736Y-121650700D01*
X149575736Y-121219648D02*
X149575736Y-121650700D01*
X149523821Y-121167733D02*
X149575736Y-121219648D01*
X149523821Y-119773709D02*
X149523821Y-121167733D01*
X149828620Y-119468910D02*
X149523821Y-119773709D01*
X149026583Y-120521088D02*
X149026583Y-122146000D01*
X149026583Y-121714948D02*
X149026583Y-122146000D01*
X149026583Y-119738797D02*
X149026583Y-121714948D01*
X149119428Y-119645952D02*
X149026583Y-119738797D01*
X149119428Y-119214900D02*
X149119428Y-119645952D01*
X148531282Y-122690733D02*
X148531030Y-122690985D01*
X148531282Y-120426083D02*
X148531282Y-122690733D01*
X148513800Y-122673755D02*
X148531030Y-122690985D01*
X148513800Y-118719600D02*
X148513800Y-122673755D01*
X153314400Y-114150240D02*
X153294055Y-114129895D01*
X153314400Y-116636800D02*
X153314400Y-114150240D01*
X152624825Y-114644347D02*
X152643977Y-114625195D01*
X152624825Y-116377826D02*
X152624825Y-114644347D01*
X151067400Y-115883406D02*
X151067400Y-117138900D01*
X151067400Y-117138900D02*
X151079200Y-117150700D01*
X150270460Y-115979885D02*
X150270460Y-116410937D01*
X150266400Y-116414997D02*
X150266400Y-116738400D01*
X150270460Y-116410937D02*
X150266400Y-116414997D01*
X150266400Y-115983945D02*
X150270460Y-115979885D01*
X150266400Y-117646000D02*
X150266400Y-115983945D01*
X149453600Y-116527336D02*
X149453600Y-118313200D01*
X149475442Y-116074442D02*
X149475442Y-116505494D01*
X149475442Y-116505494D02*
X149453600Y-116527336D01*
D20*
G36*
X147199648Y-100590031D02*
G01*
X146967086Y-100756724D01*
X146771513Y-100965585D01*
X146620444Y-101208587D01*
X146519685Y-101476392D01*
X146630372Y-101701600D01*
X147777200Y-101701600D01*
X147777200Y-101681600D01*
X148082000Y-101681600D01*
X148082000Y-101701600D01*
X148102000Y-101701600D01*
X148102000Y-102006400D01*
X148082000Y-102006400D01*
X148082000Y-102026400D01*
X147777200Y-102026400D01*
X147777200Y-102006400D01*
X146630372Y-102006400D01*
X146519685Y-102231608D01*
X146620444Y-102499413D01*
X146771513Y-102742415D01*
X146967086Y-102951276D01*
X147117468Y-103059065D01*
X147079600Y-103059065D01*
X146984994Y-103068383D01*
X146894023Y-103095978D01*
X146810185Y-103140791D01*
X146736699Y-103201099D01*
X146676391Y-103274585D01*
X146631578Y-103358423D01*
X146603983Y-103449394D01*
X146594665Y-103544000D01*
X146594665Y-105244000D01*
X146603983Y-105338606D01*
X146631578Y-105429577D01*
X146676391Y-105513415D01*
X146736699Y-105586901D01*
X146810185Y-105647209D01*
X146894023Y-105692022D01*
X146984994Y-105719617D01*
X147079600Y-105728935D01*
X147345401Y-105728935D01*
X147345401Y-106565016D01*
X144285589Y-109624828D01*
X144263300Y-109643120D01*
X144190296Y-109732077D01*
X144138664Y-109828673D01*
X144136049Y-109833566D01*
X144102644Y-109943687D01*
X144102041Y-109949806D01*
X144094190Y-110029519D01*
X144094190Y-110029526D01*
X144091365Y-110058210D01*
X144094190Y-110086894D01*
X144094191Y-127149096D01*
X144091365Y-127177790D01*
X144102644Y-127292313D01*
X144136049Y-127402434D01*
X144154986Y-127437862D01*
X144190297Y-127503924D01*
X144213852Y-127532626D01*
X144245010Y-127570593D01*
X144245013Y-127570596D01*
X144263301Y-127592880D01*
X144285585Y-127611168D01*
X144653000Y-127978583D01*
X144653000Y-128017352D01*
X144683259Y-128169476D01*
X144742615Y-128312774D01*
X144828786Y-128441738D01*
X144938462Y-128551414D01*
X145067426Y-128637585D01*
X145210724Y-128696941D01*
X145362848Y-128727200D01*
X145517952Y-128727200D01*
X145670076Y-128696941D01*
X145813374Y-128637585D01*
X145942338Y-128551414D01*
X145969752Y-128524000D01*
X148104116Y-128524000D01*
X148132800Y-128526825D01*
X148161484Y-128524000D01*
X148161492Y-128524000D01*
X148247323Y-128515546D01*
X148357445Y-128482141D01*
X148458934Y-128427894D01*
X148547890Y-128354890D01*
X148566182Y-128332601D01*
X148682400Y-128216383D01*
X148682400Y-128406250D01*
X148733611Y-128663705D01*
X148834065Y-128906223D01*
X148979902Y-129124483D01*
X149165517Y-129310098D01*
X149383777Y-129455935D01*
X149441819Y-129479977D01*
X149285048Y-129551031D01*
X149052486Y-129717724D01*
X148856913Y-129926585D01*
X148705844Y-130169587D01*
X148605085Y-130437392D01*
X148715772Y-130662600D01*
X149862600Y-130662600D01*
X149862600Y-130642600D01*
X150167400Y-130642600D01*
X150167400Y-130662600D01*
X150187400Y-130662600D01*
X150187400Y-130967400D01*
X150167400Y-130967400D01*
X150167400Y-130987400D01*
X149862600Y-130987400D01*
X149862600Y-130967400D01*
X148715772Y-130967400D01*
X148605085Y-131192608D01*
X148705844Y-131460413D01*
X148856913Y-131703415D01*
X149052486Y-131912276D01*
X149163713Y-131992000D01*
X140508000Y-131992000D01*
X140508000Y-105171624D01*
X140570200Y-105177750D01*
X142265400Y-105174800D01*
X142417800Y-105022400D01*
X142417800Y-102717600D01*
X142722600Y-102717600D01*
X142722600Y-105022400D01*
X142875000Y-105174800D01*
X144570200Y-105177750D01*
X144689703Y-105165980D01*
X144804613Y-105131122D01*
X144910515Y-105074517D01*
X145003338Y-104998338D01*
X145079517Y-104905515D01*
X145136122Y-104799613D01*
X145170980Y-104684703D01*
X145182750Y-104565200D01*
X145179800Y-102870000D01*
X145027400Y-102717600D01*
X142722600Y-102717600D01*
X142417800Y-102717600D01*
X142397800Y-102717600D01*
X142397800Y-102412800D01*
X142417800Y-102412800D01*
X142417800Y-102392800D01*
X142722600Y-102392800D01*
X142722600Y-102412800D01*
X145027400Y-102412800D01*
X145179800Y-102260400D01*
X145182750Y-100565200D01*
X145177116Y-100508000D01*
X147380637Y-100508000D01*
X147199648Y-100590031D01*
G37*
X147199648Y-100590031D02*
X146967086Y-100756724D01*
X146771513Y-100965585D01*
X146620444Y-101208587D01*
X146519685Y-101476392D01*
X146630372Y-101701600D01*
X147777200Y-101701600D01*
X147777200Y-101681600D01*
X148082000Y-101681600D01*
X148082000Y-101701600D01*
X148102000Y-101701600D01*
X148102000Y-102006400D01*
X148082000Y-102006400D01*
X148082000Y-102026400D01*
X147777200Y-102026400D01*
X147777200Y-102006400D01*
X146630372Y-102006400D01*
X146519685Y-102231608D01*
X146620444Y-102499413D01*
X146771513Y-102742415D01*
X146967086Y-102951276D01*
X147117468Y-103059065D01*
X147079600Y-103059065D01*
X146984994Y-103068383D01*
X146894023Y-103095978D01*
X146810185Y-103140791D01*
X146736699Y-103201099D01*
X146676391Y-103274585D01*
X146631578Y-103358423D01*
X146603983Y-103449394D01*
X146594665Y-103544000D01*
X146594665Y-105244000D01*
X146603983Y-105338606D01*
X146631578Y-105429577D01*
X146676391Y-105513415D01*
X146736699Y-105586901D01*
X146810185Y-105647209D01*
X146894023Y-105692022D01*
X146984994Y-105719617D01*
X147079600Y-105728935D01*
X147345401Y-105728935D01*
X147345401Y-106565016D01*
X144285589Y-109624828D01*
X144263300Y-109643120D01*
X144190296Y-109732077D01*
X144138664Y-109828673D01*
X144136049Y-109833566D01*
X144102644Y-109943687D01*
X144102041Y-109949806D01*
X144094190Y-110029519D01*
X144094190Y-110029526D01*
X144091365Y-110058210D01*
X144094190Y-110086894D01*
X144094191Y-127149096D01*
X144091365Y-127177790D01*
X144102644Y-127292313D01*
X144136049Y-127402434D01*
X144154986Y-127437862D01*
X144190297Y-127503924D01*
X144213852Y-127532626D01*
X144245010Y-127570593D01*
X144245013Y-127570596D01*
X144263301Y-127592880D01*
X144285585Y-127611168D01*
X144653000Y-127978583D01*
X144653000Y-128017352D01*
X144683259Y-128169476D01*
X144742615Y-128312774D01*
X144828786Y-128441738D01*
X144938462Y-128551414D01*
X145067426Y-128637585D01*
X145210724Y-128696941D01*
X145362848Y-128727200D01*
X145517952Y-128727200D01*
X145670076Y-128696941D01*
X145813374Y-128637585D01*
X145942338Y-128551414D01*
X145969752Y-128524000D01*
X148104116Y-128524000D01*
X148132800Y-128526825D01*
X148161484Y-128524000D01*
X148161492Y-128524000D01*
X148247323Y-128515546D01*
X148357445Y-128482141D01*
X148458934Y-128427894D01*
X148547890Y-128354890D01*
X148566182Y-128332601D01*
X148682400Y-128216383D01*
X148682400Y-128406250D01*
X148733611Y-128663705D01*
X148834065Y-128906223D01*
X148979902Y-129124483D01*
X149165517Y-129310098D01*
X149383777Y-129455935D01*
X149441819Y-129479977D01*
X149285048Y-129551031D01*
X149052486Y-129717724D01*
X148856913Y-129926585D01*
X148705844Y-130169587D01*
X148605085Y-130437392D01*
X148715772Y-130662600D01*
X149862600Y-130662600D01*
X149862600Y-130642600D01*
X150167400Y-130642600D01*
X150167400Y-130662600D01*
X150187400Y-130662600D01*
X150187400Y-130967400D01*
X150167400Y-130967400D01*
X150167400Y-130987400D01*
X149862600Y-130987400D01*
X149862600Y-130967400D01*
X148715772Y-130967400D01*
X148605085Y-131192608D01*
X148705844Y-131460413D01*
X148856913Y-131703415D01*
X149052486Y-131912276D01*
X149163713Y-131992000D01*
X140508000Y-131992000D01*
X140508000Y-105171624D01*
X140570200Y-105177750D01*
X142265400Y-105174800D01*
X142417800Y-105022400D01*
X142417800Y-102717600D01*
X142722600Y-102717600D01*
X142722600Y-105022400D01*
X142875000Y-105174800D01*
X144570200Y-105177750D01*
X144689703Y-105165980D01*
X144804613Y-105131122D01*
X144910515Y-105074517D01*
X145003338Y-104998338D01*
X145079517Y-104905515D01*
X145136122Y-104799613D01*
X145170980Y-104684703D01*
X145182750Y-104565200D01*
X145179800Y-102870000D01*
X145027400Y-102717600D01*
X142722600Y-102717600D01*
X142417800Y-102717600D01*
X142397800Y-102717600D01*
X142397800Y-102412800D01*
X142417800Y-102412800D01*
X142417800Y-102392800D01*
X142722600Y-102392800D01*
X142722600Y-102412800D01*
X145027400Y-102412800D01*
X145179800Y-102260400D01*
X145182750Y-100565200D01*
X145177116Y-100508000D01*
X147380637Y-100508000D01*
X147199648Y-100590031D01*
G36*
X178107400Y-130662600D02*
G01*
X178127400Y-130662600D01*
X178127400Y-130967400D01*
X178107400Y-130967400D01*
X178107400Y-130987400D01*
X177802600Y-130987400D01*
X177802600Y-130967400D01*
X177782600Y-130967400D01*
X177782600Y-130662600D01*
X177802600Y-130662600D01*
X177802600Y-130642600D01*
X178107400Y-130642600D01*
X178107400Y-130662600D01*
G37*
X178107400Y-130662600D02*
X178127400Y-130662600D01*
X178127400Y-130967400D01*
X178107400Y-130967400D01*
X178107400Y-130987400D01*
X177802600Y-130987400D01*
X177802600Y-130967400D01*
X177782600Y-130967400D01*
X177782600Y-130662600D01*
X177802600Y-130662600D01*
X177802600Y-130642600D01*
X178107400Y-130642600D01*
X178107400Y-130662600D01*
G36*
X179314065Y-128906223D02*
G01*
X179459902Y-129124483D01*
X179645517Y-129310098D01*
X179863777Y-129455935D01*
X180078799Y-129545000D01*
X179863777Y-129634065D01*
X179645517Y-129779902D01*
X179459902Y-129965517D01*
X179314065Y-130183777D01*
X179290709Y-130240163D01*
X179264156Y-130169587D01*
X179113087Y-129926585D01*
X178917514Y-129717724D01*
X178684952Y-129551031D01*
X178528181Y-129479977D01*
X178586223Y-129455935D01*
X178804483Y-129310098D01*
X178990098Y-129124483D01*
X179135935Y-128906223D01*
X179225000Y-128691201D01*
X179314065Y-128906223D01*
G37*
X179314065Y-128906223D02*
X179459902Y-129124483D01*
X179645517Y-129310098D01*
X179863777Y-129455935D01*
X180078799Y-129545000D01*
X179863777Y-129634065D01*
X179645517Y-129779902D01*
X179459902Y-129965517D01*
X179314065Y-130183777D01*
X179290709Y-130240163D01*
X179264156Y-130169587D01*
X179113087Y-129926585D01*
X178917514Y-129717724D01*
X178684952Y-129551031D01*
X178528181Y-129479977D01*
X178586223Y-129455935D01*
X178804483Y-129310098D01*
X178990098Y-129124483D01*
X179135935Y-128906223D01*
X179225000Y-128691201D01*
X179314065Y-128906223D01*
G36*
X191490847Y-101443855D02*
G01*
X190536042Y-101940354D01*
X190533257Y-101941199D01*
X190491689Y-101963418D01*
X190472100Y-101973604D01*
X190469677Y-101975183D01*
X190445005Y-101988371D01*
X190427853Y-102002447D01*
X190409271Y-102014560D01*
X190389276Y-102034106D01*
X190367652Y-102051852D01*
X190353575Y-102069005D01*
X190337714Y-102084510D01*
X190321916Y-102107582D01*
X190304171Y-102129205D01*
X190293711Y-102148775D01*
X190281179Y-102167077D01*
X190270185Y-102192789D01*
X190256999Y-102217458D01*
X190255440Y-102222598D01*
X190125709Y-102222598D01*
X190243233Y-102060442D01*
X190237528Y-101981655D01*
X190141458Y-101792927D01*
X190010415Y-101626568D01*
X189849435Y-101488971D01*
X189664704Y-101385423D01*
X189463321Y-101319904D01*
X189253026Y-101294932D01*
X189083800Y-101457246D01*
X189083800Y-102222600D01*
X189103800Y-102222600D01*
X189103800Y-102527400D01*
X189083800Y-102527400D01*
X189083800Y-103292754D01*
X189253026Y-103455068D01*
X189463321Y-103430096D01*
X189664704Y-103364577D01*
X189849435Y-103261029D01*
X190010415Y-103123432D01*
X190141458Y-102957073D01*
X190220600Y-102801600D01*
X190220600Y-109198401D01*
X190141458Y-109042927D01*
X190010415Y-108876568D01*
X189849435Y-108738971D01*
X189664704Y-108635423D01*
X189463321Y-108569904D01*
X189253026Y-108544932D01*
X189083800Y-108707246D01*
X189083800Y-109472600D01*
X189103800Y-109472600D01*
X189103800Y-109777400D01*
X189083800Y-109777400D01*
X189083800Y-110542754D01*
X189253026Y-110705068D01*
X189463321Y-110680096D01*
X189664704Y-110614577D01*
X189849435Y-110511029D01*
X190010415Y-110373432D01*
X190141458Y-110207073D01*
X190220600Y-110051599D01*
X190220600Y-113722598D01*
X190100309Y-113722598D01*
X190217833Y-113560442D01*
X190212128Y-113481655D01*
X190116058Y-113292927D01*
X189985015Y-113126568D01*
X189824035Y-112988971D01*
X189639304Y-112885423D01*
X189437921Y-112819904D01*
X189227626Y-112794932D01*
X189058400Y-112957246D01*
X189058400Y-113722600D01*
X189078400Y-113722600D01*
X189078400Y-114027400D01*
X189058400Y-114027400D01*
X189058400Y-114792754D01*
X189227626Y-114955068D01*
X189437921Y-114930096D01*
X189639304Y-114864577D01*
X189824035Y-114761029D01*
X189985015Y-114623432D01*
X190116058Y-114457073D01*
X190212128Y-114268345D01*
X190217833Y-114189558D01*
X190100309Y-114027402D01*
X190220600Y-114027402D01*
X190220601Y-120802844D01*
X190220600Y-120802854D01*
X190220600Y-120972598D01*
X190100309Y-120972598D01*
X190217833Y-120810442D01*
X190212128Y-120731655D01*
X190116058Y-120542927D01*
X189985015Y-120376568D01*
X189824035Y-120238971D01*
X189639304Y-120135423D01*
X189437921Y-120069904D01*
X189227626Y-120044932D01*
X189058400Y-120207246D01*
X189058400Y-120972600D01*
X189078400Y-120972600D01*
X189078400Y-121277400D01*
X189058400Y-121277400D01*
X189058400Y-122042754D01*
X189227626Y-122205068D01*
X189437921Y-122180096D01*
X189639304Y-122114577D01*
X189824035Y-122011029D01*
X189985015Y-121873432D01*
X190116058Y-121707073D01*
X190212128Y-121518345D01*
X190217833Y-121439558D01*
X190100309Y-121277402D01*
X190239244Y-121277402D01*
X190239496Y-121278696D01*
X190249407Y-121302914D01*
X190257000Y-121327943D01*
X190268309Y-121349101D01*
X190277397Y-121371307D01*
X190291840Y-121393123D01*
X190304172Y-121416195D01*
X190319390Y-121434738D01*
X190332636Y-121454747D01*
X190351058Y-121473327D01*
X190367653Y-121493548D01*
X190386197Y-121508767D01*
X190403092Y-121525806D01*
X190424786Y-121540436D01*
X190445006Y-121557029D01*
X190487978Y-121579998D01*
X191492000Y-122122170D01*
X191492001Y-127413340D01*
X191458600Y-127410050D01*
X189763400Y-127413000D01*
X189611000Y-127565400D01*
X189611000Y-129870200D01*
X189631000Y-129870200D01*
X189631000Y-130175000D01*
X189611000Y-130175000D01*
X189611000Y-130195000D01*
X189306200Y-130195000D01*
X189306200Y-130175000D01*
X189286200Y-130175000D01*
X189286200Y-129870200D01*
X189306200Y-129870200D01*
X189306200Y-127565400D01*
X189153800Y-127413000D01*
X187875377Y-127410775D01*
X187961484Y-127324668D01*
X188047655Y-127195704D01*
X188107011Y-127052406D01*
X188137270Y-126900282D01*
X188137270Y-126745178D01*
X188107011Y-126593054D01*
X188047655Y-126449756D01*
X187961484Y-126320792D01*
X187871849Y-126231157D01*
X187856842Y-126181684D01*
X187806132Y-126086813D01*
X187768029Y-126040385D01*
X187754988Y-126024494D01*
X187737889Y-126003659D01*
X187717054Y-125986560D01*
X186315093Y-124584600D01*
X186306814Y-124574512D01*
X186289715Y-124553677D01*
X186268880Y-124536578D01*
X185915176Y-124182874D01*
X185914469Y-122890183D01*
X186004579Y-122829973D01*
X186114255Y-122720297D01*
X186200426Y-122591333D01*
X186259782Y-122448035D01*
X186290041Y-122295911D01*
X186290041Y-122140807D01*
X186259782Y-121988683D01*
X186200426Y-121845385D01*
X186114255Y-121716421D01*
X186004579Y-121606745D01*
X185875615Y-121520574D01*
X185732317Y-121461218D01*
X185623424Y-121439558D01*
X187594167Y-121439558D01*
X187599872Y-121518345D01*
X187695942Y-121707073D01*
X187826985Y-121873432D01*
X187987965Y-122011029D01*
X188172696Y-122114577D01*
X188374079Y-122180096D01*
X188584374Y-122205068D01*
X188753600Y-122042754D01*
X188753600Y-121277400D01*
X187711692Y-121277400D01*
X187594167Y-121439558D01*
X185623424Y-121439558D01*
X185580193Y-121430959D01*
X185487542Y-121430959D01*
X185397682Y-121341098D01*
X185406585Y-121327774D01*
X185465941Y-121184476D01*
X185496200Y-121032352D01*
X185496200Y-120877248D01*
X185487538Y-120833699D01*
X185510184Y-120856345D01*
X185625753Y-120740776D01*
X185670283Y-120949156D01*
X185880764Y-121037892D01*
X186104512Y-121083860D01*
X186332929Y-121085294D01*
X186557236Y-121042139D01*
X186768815Y-120956052D01*
X186781717Y-120949156D01*
X186811360Y-120810442D01*
X187594167Y-120810442D01*
X187711692Y-120972600D01*
X188753600Y-120972600D01*
X188753600Y-120207246D01*
X188584374Y-120044932D01*
X188374079Y-120069904D01*
X188172696Y-120135423D01*
X187987965Y-120238971D01*
X187826985Y-120376568D01*
X187695942Y-120542927D01*
X187599872Y-120731655D01*
X187594167Y-120810442D01*
X186811360Y-120810442D01*
X186826248Y-120740774D01*
X186226000Y-120140526D01*
X186211858Y-120154669D01*
X185996332Y-119939143D01*
X186010474Y-119925000D01*
X186441526Y-119925000D01*
X187041774Y-120525248D01*
X187250156Y-120480717D01*
X187338892Y-120270236D01*
X187384860Y-120046488D01*
X187386294Y-119818071D01*
X187343139Y-119593764D01*
X187257052Y-119382185D01*
X187250156Y-119369283D01*
X187041774Y-119324752D01*
X186441526Y-119925000D01*
X186010474Y-119925000D01*
X185410226Y-119324752D01*
X185201844Y-119369283D01*
X185113108Y-119579764D01*
X185067140Y-119803512D01*
X185065706Y-120031929D01*
X185108861Y-120256236D01*
X185119410Y-120282163D01*
X185081774Y-120257015D01*
X184938476Y-120197659D01*
X184786352Y-120167400D01*
X184730645Y-120167400D01*
X184730645Y-119109226D01*
X185625752Y-119109226D01*
X186226000Y-119709474D01*
X186826248Y-119109226D01*
X186781717Y-118900844D01*
X186571236Y-118812108D01*
X186347488Y-118766140D01*
X186119071Y-118764706D01*
X185894764Y-118807861D01*
X185683185Y-118893948D01*
X185670283Y-118900844D01*
X185625752Y-119109226D01*
X184730645Y-119109226D01*
X184730645Y-118084155D01*
X184882600Y-117932200D01*
X184882600Y-116927400D01*
X185187400Y-116927400D01*
X185187400Y-117932200D01*
X185339800Y-118084600D01*
X185635000Y-118087550D01*
X185754503Y-118075780D01*
X185869413Y-118040922D01*
X185975315Y-117984317D01*
X186068138Y-117908138D01*
X186144317Y-117815315D01*
X186200922Y-117709413D01*
X186235780Y-117594503D01*
X186247550Y-117475000D01*
X186244600Y-117079800D01*
X186092200Y-116927400D01*
X185187400Y-116927400D01*
X184882600Y-116927400D01*
X184862600Y-116927400D01*
X184862600Y-116622600D01*
X184882600Y-116622600D01*
X184882600Y-115617800D01*
X184730645Y-115465845D01*
X184730645Y-115181929D01*
X185065706Y-115181929D01*
X185108861Y-115406236D01*
X185192761Y-115612439D01*
X185187400Y-115617800D01*
X185187400Y-116622600D01*
X186092200Y-116622600D01*
X186244600Y-116470200D01*
X186246358Y-116234751D01*
X186332929Y-116235294D01*
X186557236Y-116192139D01*
X186768815Y-116106052D01*
X186781717Y-116099156D01*
X186826248Y-115890774D01*
X186226000Y-115290526D01*
X186211858Y-115304669D01*
X185996332Y-115089143D01*
X186010474Y-115075000D01*
X186441526Y-115075000D01*
X187041774Y-115675248D01*
X187250156Y-115630717D01*
X187338892Y-115420236D01*
X187384860Y-115196488D01*
X187386294Y-114968071D01*
X187343139Y-114743764D01*
X187257052Y-114532185D01*
X187250156Y-114519283D01*
X187041774Y-114474752D01*
X186441526Y-115075000D01*
X186010474Y-115075000D01*
X185410226Y-114474752D01*
X185201844Y-114519283D01*
X185113108Y-114729764D01*
X185067140Y-114953512D01*
X185065706Y-115181929D01*
X184730645Y-115181929D01*
X184730645Y-114259226D01*
X185625752Y-114259226D01*
X186226000Y-114859474D01*
X186826248Y-114259226D01*
X186811361Y-114189558D01*
X187594167Y-114189558D01*
X187599872Y-114268345D01*
X187695942Y-114457073D01*
X187826985Y-114623432D01*
X187987965Y-114761029D01*
X188172696Y-114864577D01*
X188374079Y-114930096D01*
X188584374Y-114955068D01*
X188753600Y-114792754D01*
X188753600Y-114027400D01*
X187711692Y-114027400D01*
X187594167Y-114189558D01*
X186811361Y-114189558D01*
X186781717Y-114050844D01*
X186571236Y-113962108D01*
X186347488Y-113916140D01*
X186119071Y-113914706D01*
X185894764Y-113957861D01*
X185683185Y-114043948D01*
X185670283Y-114050844D01*
X185625752Y-114259226D01*
X184730645Y-114259226D01*
X184730645Y-113560442D01*
X187594167Y-113560442D01*
X187711692Y-113722600D01*
X188753600Y-113722600D01*
X188753600Y-112957246D01*
X188584374Y-112794932D01*
X188374079Y-112819904D01*
X188172696Y-112885423D01*
X187987965Y-112988971D01*
X187826985Y-113126568D01*
X187695942Y-113292927D01*
X187599872Y-113481655D01*
X187594167Y-113560442D01*
X184730645Y-113560442D01*
X184730645Y-111534592D01*
X184809280Y-111455957D01*
X184830120Y-111438854D01*
X184898363Y-111355700D01*
X184949073Y-111260829D01*
X184980299Y-111157889D01*
X184988201Y-111077659D01*
X184988201Y-111077650D01*
X184990842Y-111050836D01*
X184988201Y-111024022D01*
X184988201Y-109939558D01*
X187619567Y-109939558D01*
X187625272Y-110018345D01*
X187721342Y-110207073D01*
X187852385Y-110373432D01*
X188013365Y-110511029D01*
X188198096Y-110614577D01*
X188399479Y-110680096D01*
X188609774Y-110705068D01*
X188779000Y-110542754D01*
X188779000Y-109777400D01*
X187737092Y-109777400D01*
X187619567Y-109939558D01*
X184988201Y-109939558D01*
X184988201Y-109240774D01*
X185651152Y-109240774D01*
X185695683Y-109449156D01*
X185906164Y-109537892D01*
X186129912Y-109583860D01*
X186358329Y-109585294D01*
X186582636Y-109542139D01*
X186794215Y-109456052D01*
X186807117Y-109449156D01*
X186836760Y-109310442D01*
X187619567Y-109310442D01*
X187737092Y-109472600D01*
X188779000Y-109472600D01*
X188779000Y-108707246D01*
X188609774Y-108544932D01*
X188399479Y-108569904D01*
X188198096Y-108635423D01*
X188013365Y-108738971D01*
X187852385Y-108876568D01*
X187721342Y-109042927D01*
X187625272Y-109231655D01*
X187619567Y-109310442D01*
X186836760Y-109310442D01*
X186851648Y-109240774D01*
X186251400Y-108640526D01*
X185651152Y-109240774D01*
X184988201Y-109240774D01*
X184988201Y-108234302D01*
X185000587Y-108240922D01*
X185099250Y-108270851D01*
X185092540Y-108303512D01*
X185091106Y-108531929D01*
X185134261Y-108756236D01*
X185220348Y-108967815D01*
X185227244Y-108980717D01*
X185435626Y-109025248D01*
X186035874Y-108425000D01*
X186021732Y-108410858D01*
X186147908Y-108284681D01*
X186435000Y-108287550D01*
X186554503Y-108275780D01*
X186642988Y-108248938D01*
X186466926Y-108425000D01*
X187067174Y-109025248D01*
X187275556Y-108980717D01*
X187364292Y-108770236D01*
X187410260Y-108546488D01*
X187411694Y-108318071D01*
X187368539Y-108093764D01*
X187282452Y-107882185D01*
X187275556Y-107869283D01*
X187067174Y-107824752D01*
X187008938Y-107882988D01*
X187035780Y-107794503D01*
X187047550Y-107675000D01*
X187044600Y-106979800D01*
X186892200Y-106827400D01*
X185987400Y-106827400D01*
X185987400Y-106847400D01*
X185682600Y-106847400D01*
X185682600Y-106827400D01*
X185662600Y-106827400D01*
X185662600Y-106522600D01*
X185682600Y-106522600D01*
X185682600Y-105217800D01*
X185987400Y-105217800D01*
X185987400Y-106522600D01*
X186892200Y-106522600D01*
X187044600Y-106370200D01*
X187047550Y-105675000D01*
X187035780Y-105555497D01*
X187000922Y-105440587D01*
X186944317Y-105334685D01*
X186868138Y-105241862D01*
X186775315Y-105165683D01*
X186669413Y-105109078D01*
X186554503Y-105074220D01*
X186435000Y-105062450D01*
X186139800Y-105065400D01*
X185987400Y-105217800D01*
X185682600Y-105217800D01*
X185530200Y-105065400D01*
X185235000Y-105062450D01*
X185115497Y-105074220D01*
X185000587Y-105109078D01*
X184894685Y-105165683D01*
X184801862Y-105241862D01*
X184725683Y-105334685D01*
X184669078Y-105440587D01*
X184634220Y-105555497D01*
X184622450Y-105675000D01*
X184625400Y-106370200D01*
X184777798Y-106522598D01*
X184739500Y-106522598D01*
X184556751Y-106339849D01*
X184556751Y-106247199D01*
X184526492Y-106095075D01*
X184467136Y-105951777D01*
X184380965Y-105822813D01*
X184271289Y-105713137D01*
X184142325Y-105626966D01*
X183999027Y-105567610D01*
X183846903Y-105537351D01*
X183691799Y-105537351D01*
X183539675Y-105567610D01*
X183396377Y-105626966D01*
X183267413Y-105713137D01*
X183157737Y-105822813D01*
X183071566Y-105951777D01*
X183012210Y-106095075D01*
X182981951Y-106247199D01*
X182981951Y-106402303D01*
X183012210Y-106554427D01*
X183071566Y-106697725D01*
X183157737Y-106826689D01*
X183267413Y-106936365D01*
X183396377Y-107022536D01*
X183483135Y-107058472D01*
X183383325Y-107099815D01*
X183254361Y-107185986D01*
X183144685Y-107295662D01*
X183058514Y-107424626D01*
X182999158Y-107567924D01*
X182996418Y-107581700D01*
X181686320Y-107581700D01*
X181751371Y-107538235D01*
X181888235Y-107401371D01*
X181995768Y-107240435D01*
X182069839Y-107061614D01*
X182107600Y-106871778D01*
X182107600Y-106678222D01*
X182069839Y-106488386D01*
X181995768Y-106309565D01*
X181888235Y-106148629D01*
X181751371Y-106011765D01*
X181590435Y-105904232D01*
X181411614Y-105830161D01*
X181221778Y-105792400D01*
X181028222Y-105792400D01*
X180838386Y-105830161D01*
X180659565Y-105904232D01*
X180498629Y-106011765D01*
X180361765Y-106148629D01*
X180254232Y-106309565D01*
X180180161Y-106488386D01*
X180142400Y-106678222D01*
X180142400Y-106871778D01*
X180180161Y-107061614D01*
X180254232Y-107240435D01*
X180361765Y-107401371D01*
X180498629Y-107538235D01*
X180563680Y-107581700D01*
X178508943Y-107581700D01*
X178511200Y-107570352D01*
X178511200Y-107415248D01*
X178480941Y-107263124D01*
X178421585Y-107119826D01*
X178401504Y-107089773D01*
X178403538Y-107088414D01*
X178513214Y-106978738D01*
X178599385Y-106849774D01*
X178658741Y-106706476D01*
X178689000Y-106554352D01*
X178689000Y-106399248D01*
X178658741Y-106247124D01*
X178599385Y-106103826D01*
X178513214Y-105974862D01*
X178403538Y-105865186D01*
X178274574Y-105779015D01*
X178131276Y-105719659D01*
X177979152Y-105689400D01*
X177824048Y-105689400D01*
X177671924Y-105719659D01*
X177528626Y-105779015D01*
X177485610Y-105807757D01*
X177385574Y-105740915D01*
X177242276Y-105681559D01*
X177090152Y-105651300D01*
X176935048Y-105651300D01*
X176782924Y-105681559D01*
X176639626Y-105740915D01*
X176510662Y-105827086D01*
X176445148Y-105892600D01*
X175676702Y-105892600D01*
X174174876Y-104390774D01*
X185651152Y-104390774D01*
X185695683Y-104599156D01*
X185906164Y-104687892D01*
X186129912Y-104733860D01*
X186358329Y-104735294D01*
X186582636Y-104692139D01*
X186794215Y-104606052D01*
X186807117Y-104599156D01*
X186851648Y-104390774D01*
X186251400Y-103790526D01*
X185651152Y-104390774D01*
X174174876Y-104390774D01*
X172731583Y-102947482D01*
X172476300Y-102692199D01*
X179209764Y-102692199D01*
X179907366Y-103389801D01*
X179925658Y-103412090D01*
X180014614Y-103485094D01*
X180116103Y-103539341D01*
X180226225Y-103572746D01*
X180234843Y-103573595D01*
X180269862Y-103608614D01*
X180398826Y-103694785D01*
X180542124Y-103754141D01*
X180694248Y-103784400D01*
X180849352Y-103784400D01*
X181001476Y-103754141D01*
X181144774Y-103694785D01*
X181164014Y-103681929D01*
X185091106Y-103681929D01*
X185134261Y-103906236D01*
X185220348Y-104117815D01*
X185227244Y-104130717D01*
X185435626Y-104175248D01*
X186035874Y-103575000D01*
X186466926Y-103575000D01*
X187067174Y-104175248D01*
X187275556Y-104130717D01*
X187364292Y-103920236D01*
X187410260Y-103696488D01*
X187411694Y-103468071D01*
X187368539Y-103243764D01*
X187282452Y-103032185D01*
X187275556Y-103019283D01*
X187067174Y-102974752D01*
X186466926Y-103575000D01*
X186035874Y-103575000D01*
X185435626Y-102974752D01*
X185227244Y-103019283D01*
X185138508Y-103229764D01*
X185092540Y-103453512D01*
X185091106Y-103681929D01*
X181164014Y-103681929D01*
X181273738Y-103608614D01*
X181383414Y-103498938D01*
X181469585Y-103369974D01*
X181528941Y-103226676D01*
X181559200Y-103074552D01*
X181559200Y-102919448D01*
X181528941Y-102767324D01*
X181525587Y-102759226D01*
X185651152Y-102759226D01*
X186251400Y-103359474D01*
X186851648Y-102759226D01*
X186836761Y-102689558D01*
X187619567Y-102689558D01*
X187625272Y-102768345D01*
X187721342Y-102957073D01*
X187852385Y-103123432D01*
X188013365Y-103261029D01*
X188198096Y-103364577D01*
X188399479Y-103430096D01*
X188609774Y-103455068D01*
X188779000Y-103292754D01*
X188779000Y-102527400D01*
X187737092Y-102527400D01*
X187619567Y-102689558D01*
X186836761Y-102689558D01*
X186807117Y-102550844D01*
X186596636Y-102462108D01*
X186372888Y-102416140D01*
X186144471Y-102414706D01*
X185920164Y-102457861D01*
X185708585Y-102543948D01*
X185695683Y-102550844D01*
X185651152Y-102759226D01*
X181525587Y-102759226D01*
X181469585Y-102624026D01*
X181383414Y-102495062D01*
X181273738Y-102385386D01*
X181144774Y-102299215D01*
X181001476Y-102239859D01*
X180849352Y-102209600D01*
X180694248Y-102209600D01*
X180542124Y-102239859D01*
X180448550Y-102278619D01*
X180230373Y-102060442D01*
X187619567Y-102060442D01*
X187737092Y-102222600D01*
X188779000Y-102222600D01*
X188779000Y-101457246D01*
X188609774Y-101294932D01*
X188399479Y-101319904D01*
X188198096Y-101385423D01*
X188013365Y-101488971D01*
X187852385Y-101626568D01*
X187721342Y-101792927D01*
X187625272Y-101981655D01*
X187619567Y-102060442D01*
X180230373Y-102060442D01*
X179885129Y-101715198D01*
X179866837Y-101692909D01*
X179777881Y-101619905D01*
X179676392Y-101565658D01*
X179566270Y-101532253D01*
X179480439Y-101523799D01*
X179480431Y-101523799D01*
X179451747Y-101520974D01*
X179423063Y-101523799D01*
X170564293Y-101523799D01*
X170535601Y-101520973D01*
X170421078Y-101532253D01*
X170310956Y-101565658D01*
X170209467Y-101619905D01*
X170142797Y-101674619D01*
X170142795Y-101674621D01*
X170120511Y-101692909D01*
X170102223Y-101715193D01*
X169635227Y-102182190D01*
X169548828Y-102006400D01*
X168402000Y-102006400D01*
X168402000Y-102026400D01*
X168097200Y-102026400D01*
X168097200Y-102006400D01*
X168077200Y-102006400D01*
X168077200Y-101701600D01*
X168097200Y-101701600D01*
X168097200Y-101681600D01*
X168402000Y-101681600D01*
X168402000Y-101701600D01*
X169548828Y-101701600D01*
X169659515Y-101476392D01*
X169558756Y-101208587D01*
X169407687Y-100965585D01*
X169212114Y-100756724D01*
X168979552Y-100590031D01*
X168798563Y-100508000D01*
X191491595Y-100508000D01*
X191490847Y-101443855D01*
G37*
X191490847Y-101443855D02*
X190536042Y-101940354D01*
X190533257Y-101941199D01*
X190491689Y-101963418D01*
X190472100Y-101973604D01*
X190469677Y-101975183D01*
X190445005Y-101988371D01*
X190427853Y-102002447D01*
X190409271Y-102014560D01*
X190389276Y-102034106D01*
X190367652Y-102051852D01*
X190353575Y-102069005D01*
X190337714Y-102084510D01*
X190321916Y-102107582D01*
X190304171Y-102129205D01*
X190293711Y-102148775D01*
X190281179Y-102167077D01*
X190270185Y-102192789D01*
X190256999Y-102217458D01*
X190255440Y-102222598D01*
X190125709Y-102222598D01*
X190243233Y-102060442D01*
X190237528Y-101981655D01*
X190141458Y-101792927D01*
X190010415Y-101626568D01*
X189849435Y-101488971D01*
X189664704Y-101385423D01*
X189463321Y-101319904D01*
X189253026Y-101294932D01*
X189083800Y-101457246D01*
X189083800Y-102222600D01*
X189103800Y-102222600D01*
X189103800Y-102527400D01*
X189083800Y-102527400D01*
X189083800Y-103292754D01*
X189253026Y-103455068D01*
X189463321Y-103430096D01*
X189664704Y-103364577D01*
X189849435Y-103261029D01*
X190010415Y-103123432D01*
X190141458Y-102957073D01*
X190220600Y-102801600D01*
X190220600Y-109198401D01*
X190141458Y-109042927D01*
X190010415Y-108876568D01*
X189849435Y-108738971D01*
X189664704Y-108635423D01*
X189463321Y-108569904D01*
X189253026Y-108544932D01*
X189083800Y-108707246D01*
X189083800Y-109472600D01*
X189103800Y-109472600D01*
X189103800Y-109777400D01*
X189083800Y-109777400D01*
X189083800Y-110542754D01*
X189253026Y-110705068D01*
X189463321Y-110680096D01*
X189664704Y-110614577D01*
X189849435Y-110511029D01*
X190010415Y-110373432D01*
X190141458Y-110207073D01*
X190220600Y-110051599D01*
X190220600Y-113722598D01*
X190100309Y-113722598D01*
X190217833Y-113560442D01*
X190212128Y-113481655D01*
X190116058Y-113292927D01*
X189985015Y-113126568D01*
X189824035Y-112988971D01*
X189639304Y-112885423D01*
X189437921Y-112819904D01*
X189227626Y-112794932D01*
X189058400Y-112957246D01*
X189058400Y-113722600D01*
X189078400Y-113722600D01*
X189078400Y-114027400D01*
X189058400Y-114027400D01*
X189058400Y-114792754D01*
X189227626Y-114955068D01*
X189437921Y-114930096D01*
X189639304Y-114864577D01*
X189824035Y-114761029D01*
X189985015Y-114623432D01*
X190116058Y-114457073D01*
X190212128Y-114268345D01*
X190217833Y-114189558D01*
X190100309Y-114027402D01*
X190220600Y-114027402D01*
X190220601Y-120802844D01*
X190220600Y-120802854D01*
X190220600Y-120972598D01*
X190100309Y-120972598D01*
X190217833Y-120810442D01*
X190212128Y-120731655D01*
X190116058Y-120542927D01*
X189985015Y-120376568D01*
X189824035Y-120238971D01*
X189639304Y-120135423D01*
X189437921Y-120069904D01*
X189227626Y-120044932D01*
X189058400Y-120207246D01*
X189058400Y-120972600D01*
X189078400Y-120972600D01*
X189078400Y-121277400D01*
X189058400Y-121277400D01*
X189058400Y-122042754D01*
X189227626Y-122205068D01*
X189437921Y-122180096D01*
X189639304Y-122114577D01*
X189824035Y-122011029D01*
X189985015Y-121873432D01*
X190116058Y-121707073D01*
X190212128Y-121518345D01*
X190217833Y-121439558D01*
X190100309Y-121277402D01*
X190239244Y-121277402D01*
X190239496Y-121278696D01*
X190249407Y-121302914D01*
X190257000Y-121327943D01*
X190268309Y-121349101D01*
X190277397Y-121371307D01*
X190291840Y-121393123D01*
X190304172Y-121416195D01*
X190319390Y-121434738D01*
X190332636Y-121454747D01*
X190351058Y-121473327D01*
X190367653Y-121493548D01*
X190386197Y-121508767D01*
X190403092Y-121525806D01*
X190424786Y-121540436D01*
X190445006Y-121557029D01*
X190487978Y-121579998D01*
X191492000Y-122122170D01*
X191492001Y-127413340D01*
X191458600Y-127410050D01*
X189763400Y-127413000D01*
X189611000Y-127565400D01*
X189611000Y-129870200D01*
X189631000Y-129870200D01*
X189631000Y-130175000D01*
X189611000Y-130175000D01*
X189611000Y-130195000D01*
X189306200Y-130195000D01*
X189306200Y-130175000D01*
X189286200Y-130175000D01*
X189286200Y-129870200D01*
X189306200Y-129870200D01*
X189306200Y-127565400D01*
X189153800Y-127413000D01*
X187875377Y-127410775D01*
X187961484Y-127324668D01*
X188047655Y-127195704D01*
X188107011Y-127052406D01*
X188137270Y-126900282D01*
X188137270Y-126745178D01*
X188107011Y-126593054D01*
X188047655Y-126449756D01*
X187961484Y-126320792D01*
X187871849Y-126231157D01*
X187856842Y-126181684D01*
X187806132Y-126086813D01*
X187768029Y-126040385D01*
X187754988Y-126024494D01*
X187737889Y-126003659D01*
X187717054Y-125986560D01*
X186315093Y-124584600D01*
X186306814Y-124574512D01*
X186289715Y-124553677D01*
X186268880Y-124536578D01*
X185915176Y-124182874D01*
X185914469Y-122890183D01*
X186004579Y-122829973D01*
X186114255Y-122720297D01*
X186200426Y-122591333D01*
X186259782Y-122448035D01*
X186290041Y-122295911D01*
X186290041Y-122140807D01*
X186259782Y-121988683D01*
X186200426Y-121845385D01*
X186114255Y-121716421D01*
X186004579Y-121606745D01*
X185875615Y-121520574D01*
X185732317Y-121461218D01*
X185623424Y-121439558D01*
X187594167Y-121439558D01*
X187599872Y-121518345D01*
X187695942Y-121707073D01*
X187826985Y-121873432D01*
X187987965Y-122011029D01*
X188172696Y-122114577D01*
X188374079Y-122180096D01*
X188584374Y-122205068D01*
X188753600Y-122042754D01*
X188753600Y-121277400D01*
X187711692Y-121277400D01*
X187594167Y-121439558D01*
X185623424Y-121439558D01*
X185580193Y-121430959D01*
X185487542Y-121430959D01*
X185397682Y-121341098D01*
X185406585Y-121327774D01*
X185465941Y-121184476D01*
X185496200Y-121032352D01*
X185496200Y-120877248D01*
X185487538Y-120833699D01*
X185510184Y-120856345D01*
X185625753Y-120740776D01*
X185670283Y-120949156D01*
X185880764Y-121037892D01*
X186104512Y-121083860D01*
X186332929Y-121085294D01*
X186557236Y-121042139D01*
X186768815Y-120956052D01*
X186781717Y-120949156D01*
X186811360Y-120810442D01*
X187594167Y-120810442D01*
X187711692Y-120972600D01*
X188753600Y-120972600D01*
X188753600Y-120207246D01*
X188584374Y-120044932D01*
X188374079Y-120069904D01*
X188172696Y-120135423D01*
X187987965Y-120238971D01*
X187826985Y-120376568D01*
X187695942Y-120542927D01*
X187599872Y-120731655D01*
X187594167Y-120810442D01*
X186811360Y-120810442D01*
X186826248Y-120740774D01*
X186226000Y-120140526D01*
X186211858Y-120154669D01*
X185996332Y-119939143D01*
X186010474Y-119925000D01*
X186441526Y-119925000D01*
X187041774Y-120525248D01*
X187250156Y-120480717D01*
X187338892Y-120270236D01*
X187384860Y-120046488D01*
X187386294Y-119818071D01*
X187343139Y-119593764D01*
X187257052Y-119382185D01*
X187250156Y-119369283D01*
X187041774Y-119324752D01*
X186441526Y-119925000D01*
X186010474Y-119925000D01*
X185410226Y-119324752D01*
X185201844Y-119369283D01*
X185113108Y-119579764D01*
X185067140Y-119803512D01*
X185065706Y-120031929D01*
X185108861Y-120256236D01*
X185119410Y-120282163D01*
X185081774Y-120257015D01*
X184938476Y-120197659D01*
X184786352Y-120167400D01*
X184730645Y-120167400D01*
X184730645Y-119109226D01*
X185625752Y-119109226D01*
X186226000Y-119709474D01*
X186826248Y-119109226D01*
X186781717Y-118900844D01*
X186571236Y-118812108D01*
X186347488Y-118766140D01*
X186119071Y-118764706D01*
X185894764Y-118807861D01*
X185683185Y-118893948D01*
X185670283Y-118900844D01*
X185625752Y-119109226D01*
X184730645Y-119109226D01*
X184730645Y-118084155D01*
X184882600Y-117932200D01*
X184882600Y-116927400D01*
X185187400Y-116927400D01*
X185187400Y-117932200D01*
X185339800Y-118084600D01*
X185635000Y-118087550D01*
X185754503Y-118075780D01*
X185869413Y-118040922D01*
X185975315Y-117984317D01*
X186068138Y-117908138D01*
X186144317Y-117815315D01*
X186200922Y-117709413D01*
X186235780Y-117594503D01*
X186247550Y-117475000D01*
X186244600Y-117079800D01*
X186092200Y-116927400D01*
X185187400Y-116927400D01*
X184882600Y-116927400D01*
X184862600Y-116927400D01*
X184862600Y-116622600D01*
X184882600Y-116622600D01*
X184882600Y-115617800D01*
X184730645Y-115465845D01*
X184730645Y-115181929D01*
X185065706Y-115181929D01*
X185108861Y-115406236D01*
X185192761Y-115612439D01*
X185187400Y-115617800D01*
X185187400Y-116622600D01*
X186092200Y-116622600D01*
X186244600Y-116470200D01*
X186246358Y-116234751D01*
X186332929Y-116235294D01*
X186557236Y-116192139D01*
X186768815Y-116106052D01*
X186781717Y-116099156D01*
X186826248Y-115890774D01*
X186226000Y-115290526D01*
X186211858Y-115304669D01*
X185996332Y-115089143D01*
X186010474Y-115075000D01*
X186441526Y-115075000D01*
X187041774Y-115675248D01*
X187250156Y-115630717D01*
X187338892Y-115420236D01*
X187384860Y-115196488D01*
X187386294Y-114968071D01*
X187343139Y-114743764D01*
X187257052Y-114532185D01*
X187250156Y-114519283D01*
X187041774Y-114474752D01*
X186441526Y-115075000D01*
X186010474Y-115075000D01*
X185410226Y-114474752D01*
X185201844Y-114519283D01*
X185113108Y-114729764D01*
X185067140Y-114953512D01*
X185065706Y-115181929D01*
X184730645Y-115181929D01*
X184730645Y-114259226D01*
X185625752Y-114259226D01*
X186226000Y-114859474D01*
X186826248Y-114259226D01*
X186811361Y-114189558D01*
X187594167Y-114189558D01*
X187599872Y-114268345D01*
X187695942Y-114457073D01*
X187826985Y-114623432D01*
X187987965Y-114761029D01*
X188172696Y-114864577D01*
X188374079Y-114930096D01*
X188584374Y-114955068D01*
X188753600Y-114792754D01*
X188753600Y-114027400D01*
X187711692Y-114027400D01*
X187594167Y-114189558D01*
X186811361Y-114189558D01*
X186781717Y-114050844D01*
X186571236Y-113962108D01*
X186347488Y-113916140D01*
X186119071Y-113914706D01*
X185894764Y-113957861D01*
X185683185Y-114043948D01*
X185670283Y-114050844D01*
X185625752Y-114259226D01*
X184730645Y-114259226D01*
X184730645Y-113560442D01*
X187594167Y-113560442D01*
X187711692Y-113722600D01*
X188753600Y-113722600D01*
X188753600Y-112957246D01*
X188584374Y-112794932D01*
X188374079Y-112819904D01*
X188172696Y-112885423D01*
X187987965Y-112988971D01*
X187826985Y-113126568D01*
X187695942Y-113292927D01*
X187599872Y-113481655D01*
X187594167Y-113560442D01*
X184730645Y-113560442D01*
X184730645Y-111534592D01*
X184809280Y-111455957D01*
X184830120Y-111438854D01*
X184898363Y-111355700D01*
X184949073Y-111260829D01*
X184980299Y-111157889D01*
X184988201Y-111077659D01*
X184988201Y-111077650D01*
X184990842Y-111050836D01*
X184988201Y-111024022D01*
X184988201Y-109939558D01*
X187619567Y-109939558D01*
X187625272Y-110018345D01*
X187721342Y-110207073D01*
X187852385Y-110373432D01*
X188013365Y-110511029D01*
X188198096Y-110614577D01*
X188399479Y-110680096D01*
X188609774Y-110705068D01*
X188779000Y-110542754D01*
X188779000Y-109777400D01*
X187737092Y-109777400D01*
X187619567Y-109939558D01*
X184988201Y-109939558D01*
X184988201Y-109240774D01*
X185651152Y-109240774D01*
X185695683Y-109449156D01*
X185906164Y-109537892D01*
X186129912Y-109583860D01*
X186358329Y-109585294D01*
X186582636Y-109542139D01*
X186794215Y-109456052D01*
X186807117Y-109449156D01*
X186836760Y-109310442D01*
X187619567Y-109310442D01*
X187737092Y-109472600D01*
X188779000Y-109472600D01*
X188779000Y-108707246D01*
X188609774Y-108544932D01*
X188399479Y-108569904D01*
X188198096Y-108635423D01*
X188013365Y-108738971D01*
X187852385Y-108876568D01*
X187721342Y-109042927D01*
X187625272Y-109231655D01*
X187619567Y-109310442D01*
X186836760Y-109310442D01*
X186851648Y-109240774D01*
X186251400Y-108640526D01*
X185651152Y-109240774D01*
X184988201Y-109240774D01*
X184988201Y-108234302D01*
X185000587Y-108240922D01*
X185099250Y-108270851D01*
X185092540Y-108303512D01*
X185091106Y-108531929D01*
X185134261Y-108756236D01*
X185220348Y-108967815D01*
X185227244Y-108980717D01*
X185435626Y-109025248D01*
X186035874Y-108425000D01*
X186021732Y-108410858D01*
X186147908Y-108284681D01*
X186435000Y-108287550D01*
X186554503Y-108275780D01*
X186642988Y-108248938D01*
X186466926Y-108425000D01*
X187067174Y-109025248D01*
X187275556Y-108980717D01*
X187364292Y-108770236D01*
X187410260Y-108546488D01*
X187411694Y-108318071D01*
X187368539Y-108093764D01*
X187282452Y-107882185D01*
X187275556Y-107869283D01*
X187067174Y-107824752D01*
X187008938Y-107882988D01*
X187035780Y-107794503D01*
X187047550Y-107675000D01*
X187044600Y-106979800D01*
X186892200Y-106827400D01*
X185987400Y-106827400D01*
X185987400Y-106847400D01*
X185682600Y-106847400D01*
X185682600Y-106827400D01*
X185662600Y-106827400D01*
X185662600Y-106522600D01*
X185682600Y-106522600D01*
X185682600Y-105217800D01*
X185987400Y-105217800D01*
X185987400Y-106522600D01*
X186892200Y-106522600D01*
X187044600Y-106370200D01*
X187047550Y-105675000D01*
X187035780Y-105555497D01*
X187000922Y-105440587D01*
X186944317Y-105334685D01*
X186868138Y-105241862D01*
X186775315Y-105165683D01*
X186669413Y-105109078D01*
X186554503Y-105074220D01*
X186435000Y-105062450D01*
X186139800Y-105065400D01*
X185987400Y-105217800D01*
X185682600Y-105217800D01*
X185530200Y-105065400D01*
X185235000Y-105062450D01*
X185115497Y-105074220D01*
X185000587Y-105109078D01*
X184894685Y-105165683D01*
X184801862Y-105241862D01*
X184725683Y-105334685D01*
X184669078Y-105440587D01*
X184634220Y-105555497D01*
X184622450Y-105675000D01*
X184625400Y-106370200D01*
X184777798Y-106522598D01*
X184739500Y-106522598D01*
X184556751Y-106339849D01*
X184556751Y-106247199D01*
X184526492Y-106095075D01*
X184467136Y-105951777D01*
X184380965Y-105822813D01*
X184271289Y-105713137D01*
X184142325Y-105626966D01*
X183999027Y-105567610D01*
X183846903Y-105537351D01*
X183691799Y-105537351D01*
X183539675Y-105567610D01*
X183396377Y-105626966D01*
X183267413Y-105713137D01*
X183157737Y-105822813D01*
X183071566Y-105951777D01*
X183012210Y-106095075D01*
X182981951Y-106247199D01*
X182981951Y-106402303D01*
X183012210Y-106554427D01*
X183071566Y-106697725D01*
X183157737Y-106826689D01*
X183267413Y-106936365D01*
X183396377Y-107022536D01*
X183483135Y-107058472D01*
X183383325Y-107099815D01*
X183254361Y-107185986D01*
X183144685Y-107295662D01*
X183058514Y-107424626D01*
X182999158Y-107567924D01*
X182996418Y-107581700D01*
X181686320Y-107581700D01*
X181751371Y-107538235D01*
X181888235Y-107401371D01*
X181995768Y-107240435D01*
X182069839Y-107061614D01*
X182107600Y-106871778D01*
X182107600Y-106678222D01*
X182069839Y-106488386D01*
X181995768Y-106309565D01*
X181888235Y-106148629D01*
X181751371Y-106011765D01*
X181590435Y-105904232D01*
X181411614Y-105830161D01*
X181221778Y-105792400D01*
X181028222Y-105792400D01*
X180838386Y-105830161D01*
X180659565Y-105904232D01*
X180498629Y-106011765D01*
X180361765Y-106148629D01*
X180254232Y-106309565D01*
X180180161Y-106488386D01*
X180142400Y-106678222D01*
X180142400Y-106871778D01*
X180180161Y-107061614D01*
X180254232Y-107240435D01*
X180361765Y-107401371D01*
X180498629Y-107538235D01*
X180563680Y-107581700D01*
X178508943Y-107581700D01*
X178511200Y-107570352D01*
X178511200Y-107415248D01*
X178480941Y-107263124D01*
X178421585Y-107119826D01*
X178401504Y-107089773D01*
X178403538Y-107088414D01*
X178513214Y-106978738D01*
X178599385Y-106849774D01*
X178658741Y-106706476D01*
X178689000Y-106554352D01*
X178689000Y-106399248D01*
X178658741Y-106247124D01*
X178599385Y-106103826D01*
X178513214Y-105974862D01*
X178403538Y-105865186D01*
X178274574Y-105779015D01*
X178131276Y-105719659D01*
X177979152Y-105689400D01*
X177824048Y-105689400D01*
X177671924Y-105719659D01*
X177528626Y-105779015D01*
X177485610Y-105807757D01*
X177385574Y-105740915D01*
X177242276Y-105681559D01*
X177090152Y-105651300D01*
X176935048Y-105651300D01*
X176782924Y-105681559D01*
X176639626Y-105740915D01*
X176510662Y-105827086D01*
X176445148Y-105892600D01*
X175676702Y-105892600D01*
X174174876Y-104390774D01*
X185651152Y-104390774D01*
X185695683Y-104599156D01*
X185906164Y-104687892D01*
X186129912Y-104733860D01*
X186358329Y-104735294D01*
X186582636Y-104692139D01*
X186794215Y-104606052D01*
X186807117Y-104599156D01*
X186851648Y-104390774D01*
X186251400Y-103790526D01*
X185651152Y-104390774D01*
X174174876Y-104390774D01*
X172731583Y-102947482D01*
X172476300Y-102692199D01*
X179209764Y-102692199D01*
X179907366Y-103389801D01*
X179925658Y-103412090D01*
X180014614Y-103485094D01*
X180116103Y-103539341D01*
X180226225Y-103572746D01*
X180234843Y-103573595D01*
X180269862Y-103608614D01*
X180398826Y-103694785D01*
X180542124Y-103754141D01*
X180694248Y-103784400D01*
X180849352Y-103784400D01*
X181001476Y-103754141D01*
X181144774Y-103694785D01*
X181164014Y-103681929D01*
X185091106Y-103681929D01*
X185134261Y-103906236D01*
X185220348Y-104117815D01*
X185227244Y-104130717D01*
X185435626Y-104175248D01*
X186035874Y-103575000D01*
X186466926Y-103575000D01*
X187067174Y-104175248D01*
X187275556Y-104130717D01*
X187364292Y-103920236D01*
X187410260Y-103696488D01*
X187411694Y-103468071D01*
X187368539Y-103243764D01*
X187282452Y-103032185D01*
X187275556Y-103019283D01*
X187067174Y-102974752D01*
X186466926Y-103575000D01*
X186035874Y-103575000D01*
X185435626Y-102974752D01*
X185227244Y-103019283D01*
X185138508Y-103229764D01*
X185092540Y-103453512D01*
X185091106Y-103681929D01*
X181164014Y-103681929D01*
X181273738Y-103608614D01*
X181383414Y-103498938D01*
X181469585Y-103369974D01*
X181528941Y-103226676D01*
X181559200Y-103074552D01*
X181559200Y-102919448D01*
X181528941Y-102767324D01*
X181525587Y-102759226D01*
X185651152Y-102759226D01*
X186251400Y-103359474D01*
X186851648Y-102759226D01*
X186836761Y-102689558D01*
X187619567Y-102689558D01*
X187625272Y-102768345D01*
X187721342Y-102957073D01*
X187852385Y-103123432D01*
X188013365Y-103261029D01*
X188198096Y-103364577D01*
X188399479Y-103430096D01*
X188609774Y-103455068D01*
X188779000Y-103292754D01*
X188779000Y-102527400D01*
X187737092Y-102527400D01*
X187619567Y-102689558D01*
X186836761Y-102689558D01*
X186807117Y-102550844D01*
X186596636Y-102462108D01*
X186372888Y-102416140D01*
X186144471Y-102414706D01*
X185920164Y-102457861D01*
X185708585Y-102543948D01*
X185695683Y-102550844D01*
X185651152Y-102759226D01*
X181525587Y-102759226D01*
X181469585Y-102624026D01*
X181383414Y-102495062D01*
X181273738Y-102385386D01*
X181144774Y-102299215D01*
X181001476Y-102239859D01*
X180849352Y-102209600D01*
X180694248Y-102209600D01*
X180542124Y-102239859D01*
X180448550Y-102278619D01*
X180230373Y-102060442D01*
X187619567Y-102060442D01*
X187737092Y-102222600D01*
X188779000Y-102222600D01*
X188779000Y-101457246D01*
X188609774Y-101294932D01*
X188399479Y-101319904D01*
X188198096Y-101385423D01*
X188013365Y-101488971D01*
X187852385Y-101626568D01*
X187721342Y-101792927D01*
X187625272Y-101981655D01*
X187619567Y-102060442D01*
X180230373Y-102060442D01*
X179885129Y-101715198D01*
X179866837Y-101692909D01*
X179777881Y-101619905D01*
X179676392Y-101565658D01*
X179566270Y-101532253D01*
X179480439Y-101523799D01*
X179480431Y-101523799D01*
X179451747Y-101520974D01*
X179423063Y-101523799D01*
X170564293Y-101523799D01*
X170535601Y-101520973D01*
X170421078Y-101532253D01*
X170310956Y-101565658D01*
X170209467Y-101619905D01*
X170142797Y-101674619D01*
X170142795Y-101674621D01*
X170120511Y-101692909D01*
X170102223Y-101715193D01*
X169635227Y-102182190D01*
X169548828Y-102006400D01*
X168402000Y-102006400D01*
X168402000Y-102026400D01*
X168097200Y-102026400D01*
X168097200Y-102006400D01*
X168077200Y-102006400D01*
X168077200Y-101701600D01*
X168097200Y-101701600D01*
X168097200Y-101681600D01*
X168402000Y-101681600D01*
X168402000Y-101701600D01*
X169548828Y-101701600D01*
X169659515Y-101476392D01*
X169558756Y-101208587D01*
X169407687Y-100965585D01*
X169212114Y-100756724D01*
X168979552Y-100590031D01*
X168798563Y-100508000D01*
X191491595Y-100508000D01*
X191490847Y-101443855D01*
G36*
X157787400Y-128122600D02*
G01*
X160022600Y-128122600D01*
X160022600Y-128102600D01*
X160327400Y-128102600D01*
X160327400Y-128122600D01*
X160347400Y-128122600D01*
X160347400Y-128427400D01*
X160327400Y-128427400D01*
X160327400Y-128447400D01*
X160022600Y-128447400D01*
X160022600Y-128427400D01*
X157787400Y-128427400D01*
X157787400Y-128447400D01*
X157482600Y-128447400D01*
X157482600Y-128427400D01*
X157462600Y-128427400D01*
X157462600Y-128122600D01*
X157482600Y-128122600D01*
X157482600Y-128102600D01*
X157787400Y-128102600D01*
X157787400Y-128122600D01*
G37*
X157787400Y-128122600D02*
X160022600Y-128122600D01*
X160022600Y-128102600D01*
X160327400Y-128102600D01*
X160327400Y-128122600D01*
X160347400Y-128122600D01*
X160347400Y-128427400D01*
X160327400Y-128427400D01*
X160327400Y-128447400D01*
X160022600Y-128447400D01*
X160022600Y-128427400D01*
X157787400Y-128427400D01*
X157787400Y-128447400D01*
X157482600Y-128447400D01*
X157482600Y-128427400D01*
X157462600Y-128427400D01*
X157462600Y-128122600D01*
X157482600Y-128122600D01*
X157482600Y-128102600D01*
X157787400Y-128102600D01*
X157787400Y-128122600D01*
G36*
X170487400Y-128122600D02*
G01*
X170507400Y-128122600D01*
X170507400Y-128427400D01*
X170487400Y-128427400D01*
X170487400Y-128447400D01*
X170182600Y-128447400D01*
X170182600Y-128427400D01*
X170162600Y-128427400D01*
X170162600Y-128122600D01*
X170182600Y-128122600D01*
X170182600Y-128102600D01*
X170487400Y-128102600D01*
X170487400Y-128122600D01*
G37*
X170487400Y-128122600D02*
X170507400Y-128122600D01*
X170507400Y-128427400D01*
X170487400Y-128427400D01*
X170487400Y-128447400D01*
X170182600Y-128447400D01*
X170182600Y-128427400D01*
X170162600Y-128427400D01*
X170162600Y-128122600D01*
X170182600Y-128122600D01*
X170182600Y-128102600D01*
X170487400Y-128102600D01*
X170487400Y-128122600D01*
G36*
X181762390Y-127235366D02*
G01*
X181546978Y-127450779D01*
X181530098Y-127425517D01*
X181344483Y-127239902D01*
X181126223Y-127094065D01*
X180883705Y-126993611D01*
X180626250Y-126942400D01*
X180363750Y-126942400D01*
X180106295Y-126993611D01*
X179863777Y-127094065D01*
X179645517Y-127239902D01*
X179459902Y-127425517D01*
X179314065Y-127643777D01*
X179225000Y-127858799D01*
X179135935Y-127643777D01*
X178990098Y-127425517D01*
X178804483Y-127239902D01*
X178586223Y-127094065D01*
X178343705Y-126993611D01*
X178086250Y-126942400D01*
X177892294Y-126942400D01*
X181762391Y-123061663D01*
X181762390Y-127235366D01*
G37*
X181762390Y-127235366D02*
X181546978Y-127450779D01*
X181530098Y-127425517D01*
X181344483Y-127239902D01*
X181126223Y-127094065D01*
X180883705Y-126993611D01*
X180626250Y-126942400D01*
X180363750Y-126942400D01*
X180106295Y-126993611D01*
X179863777Y-127094065D01*
X179645517Y-127239902D01*
X179459902Y-127425517D01*
X179314065Y-127643777D01*
X179225000Y-127858799D01*
X179135935Y-127643777D01*
X178990098Y-127425517D01*
X178804483Y-127239902D01*
X178586223Y-127094065D01*
X178343705Y-126993611D01*
X178086250Y-126942400D01*
X177892294Y-126942400D01*
X181762391Y-123061663D01*
X181762390Y-127235366D01*
G36*
X147956115Y-125341138D02*
G01*
X147935281Y-125358236D01*
X147918182Y-125379071D01*
X147918181Y-125379072D01*
X147867037Y-125441391D01*
X147816328Y-125536260D01*
X147807190Y-125566385D01*
X147785101Y-125639201D01*
X147777199Y-125719431D01*
X147777199Y-125719438D01*
X147774558Y-125746255D01*
X147777199Y-125773072D01*
X147777199Y-126425131D01*
X147774558Y-126451948D01*
X147774583Y-126452202D01*
X147747892Y-126586389D01*
X147747892Y-126741493D01*
X147778151Y-126893617D01*
X147837507Y-127036915D01*
X147923678Y-127165879D01*
X148002108Y-127244309D01*
X147890817Y-127355600D01*
X146376152Y-127355600D01*
X146458414Y-127273338D01*
X146544585Y-127144374D01*
X146603941Y-127001076D01*
X146634200Y-126848952D01*
X146634200Y-126693848D01*
X146603941Y-126541724D01*
X146597054Y-126525098D01*
X146610814Y-126511338D01*
X146696985Y-126382374D01*
X146756341Y-126239076D01*
X146786600Y-126086952D01*
X146786600Y-125994301D01*
X147520819Y-125260083D01*
X148037170Y-125260083D01*
X147956115Y-125341138D01*
G37*
X147956115Y-125341138D02*
X147935281Y-125358236D01*
X147918182Y-125379071D01*
X147918181Y-125379072D01*
X147867037Y-125441391D01*
X147816328Y-125536260D01*
X147807190Y-125566385D01*
X147785101Y-125639201D01*
X147777199Y-125719431D01*
X147777199Y-125719438D01*
X147774558Y-125746255D01*
X147777199Y-125773072D01*
X147777199Y-126425131D01*
X147774558Y-126451948D01*
X147774583Y-126452202D01*
X147747892Y-126586389D01*
X147747892Y-126741493D01*
X147778151Y-126893617D01*
X147837507Y-127036915D01*
X147923678Y-127165879D01*
X148002108Y-127244309D01*
X147890817Y-127355600D01*
X146376152Y-127355600D01*
X146458414Y-127273338D01*
X146544585Y-127144374D01*
X146603941Y-127001076D01*
X146634200Y-126848952D01*
X146634200Y-126693848D01*
X146603941Y-126541724D01*
X146597054Y-126525098D01*
X146610814Y-126511338D01*
X146696985Y-126382374D01*
X146756341Y-126239076D01*
X146786600Y-126086952D01*
X146786600Y-125994301D01*
X147520819Y-125260083D01*
X148037170Y-125260083D01*
X147956115Y-125341138D01*
G36*
X172962015Y-125213974D02*
G01*
X173048186Y-125342938D01*
X173157862Y-125452614D01*
X173228005Y-125499482D01*
X171419495Y-127307992D01*
X171297514Y-127177724D01*
X171158619Y-127078168D01*
X172300007Y-125936781D01*
X172322291Y-125918493D01*
X172340577Y-125896211D01*
X172340581Y-125896207D01*
X172395295Y-125829537D01*
X172449542Y-125728048D01*
X172482947Y-125617926D01*
X172494227Y-125503403D01*
X172493169Y-125492666D01*
X172909827Y-125087981D01*
X172962015Y-125213974D01*
G37*
X172962015Y-125213974D02*
X173048186Y-125342938D01*
X173157862Y-125452614D01*
X173228005Y-125499482D01*
X171419495Y-127307992D01*
X171297514Y-127177724D01*
X171158619Y-127078168D01*
X172300007Y-125936781D01*
X172322291Y-125918493D01*
X172340577Y-125896211D01*
X172340581Y-125896207D01*
X172395295Y-125829537D01*
X172449542Y-125728048D01*
X172482947Y-125617926D01*
X172494227Y-125503403D01*
X172493169Y-125492666D01*
X172909827Y-125087981D01*
X172962015Y-125213974D01*
G36*
X184238911Y-123145840D02*
G01*
X184238910Y-124941193D01*
X184236269Y-124968010D01*
X184238910Y-124994827D01*
X184238910Y-124994833D01*
X184246812Y-125075063D01*
X184278038Y-125178003D01*
X184328748Y-125272875D01*
X184396991Y-125356029D01*
X184417831Y-125373132D01*
X185028901Y-125984203D01*
X185028901Y-126940065D01*
X184725000Y-126940065D01*
X184633593Y-126949068D01*
X184631572Y-126942404D01*
X184580862Y-126847533D01*
X184555629Y-126816787D01*
X184529718Y-126785214D01*
X184512619Y-126764379D01*
X184491784Y-126747280D01*
X184226201Y-126481698D01*
X184226201Y-124122072D01*
X184228842Y-124095255D01*
X184226201Y-124068438D01*
X184226201Y-124068431D01*
X184218299Y-123988201D01*
X184213500Y-123972381D01*
X184213500Y-123120429D01*
X184238911Y-123145840D01*
G37*
X184238911Y-123145840D02*
X184238910Y-124941193D01*
X184236269Y-124968010D01*
X184238910Y-124994827D01*
X184238910Y-124994833D01*
X184246812Y-125075063D01*
X184278038Y-125178003D01*
X184328748Y-125272875D01*
X184396991Y-125356029D01*
X184417831Y-125373132D01*
X185028901Y-125984203D01*
X185028901Y-126940065D01*
X184725000Y-126940065D01*
X184633593Y-126949068D01*
X184631572Y-126942404D01*
X184580862Y-126847533D01*
X184555629Y-126816787D01*
X184529718Y-126785214D01*
X184512619Y-126764379D01*
X184491784Y-126747280D01*
X184226201Y-126481698D01*
X184226201Y-124122072D01*
X184228842Y-124095255D01*
X184226201Y-124068438D01*
X184226201Y-124068431D01*
X184218299Y-123988201D01*
X184213500Y-123972381D01*
X184213500Y-123120429D01*
X184238911Y-123145840D01*
G36*
X183129202Y-124189607D02*
G01*
X183134001Y-124205427D01*
X183134002Y-126399619D01*
X183121310Y-126386928D01*
X183121310Y-124109472D01*
X183129202Y-124189607D01*
G37*
X183129202Y-124189607D02*
X183134001Y-124205427D01*
X183134002Y-126399619D01*
X183121310Y-126386928D01*
X183121310Y-124109472D01*
X183129202Y-124189607D01*
G36*
X181000421Y-121550453D02*
G01*
X180788045Y-121762829D01*
X180783683Y-121766382D01*
X180783573Y-121766492D01*
X180762579Y-121783610D01*
X180745514Y-121804271D01*
X179501638Y-123039003D01*
X179493061Y-123043588D01*
X179409907Y-123111831D01*
X179392808Y-123132666D01*
X177316175Y-125209300D01*
X175421413Y-125209300D01*
X175394599Y-125206659D01*
X175367785Y-125209300D01*
X175367776Y-125209300D01*
X175287546Y-125217202D01*
X175184606Y-125248428D01*
X175089735Y-125299138D01*
X175058317Y-125324922D01*
X175039439Y-125340415D01*
X175112441Y-125267413D01*
X175134725Y-125249125D01*
X175153016Y-125226838D01*
X177901054Y-122478800D01*
X178972448Y-122478800D01*
X178999862Y-122506214D01*
X179128826Y-122592385D01*
X179272124Y-122651741D01*
X179424248Y-122682000D01*
X179579352Y-122682000D01*
X179731476Y-122651741D01*
X179874774Y-122592385D01*
X180003738Y-122506214D01*
X180113414Y-122396538D01*
X180199585Y-122267574D01*
X180258941Y-122124276D01*
X180289200Y-121972152D01*
X180289200Y-121933383D01*
X181000421Y-121222162D01*
X181000421Y-121550453D01*
G37*
X181000421Y-121550453D02*
X180788045Y-121762829D01*
X180783683Y-121766382D01*
X180783573Y-121766492D01*
X180762579Y-121783610D01*
X180745514Y-121804271D01*
X179501638Y-123039003D01*
X179493061Y-123043588D01*
X179409907Y-123111831D01*
X179392808Y-123132666D01*
X177316175Y-125209300D01*
X175421413Y-125209300D01*
X175394599Y-125206659D01*
X175367785Y-125209300D01*
X175367776Y-125209300D01*
X175287546Y-125217202D01*
X175184606Y-125248428D01*
X175089735Y-125299138D01*
X175058317Y-125324922D01*
X175039439Y-125340415D01*
X175112441Y-125267413D01*
X175134725Y-125249125D01*
X175153016Y-125226838D01*
X177901054Y-122478800D01*
X178972448Y-122478800D01*
X178999862Y-122506214D01*
X179128826Y-122592385D01*
X179272124Y-122651741D01*
X179424248Y-122682000D01*
X179579352Y-122682000D01*
X179731476Y-122651741D01*
X179874774Y-122592385D01*
X180003738Y-122506214D01*
X180113414Y-122396538D01*
X180199585Y-122267574D01*
X180258941Y-122124276D01*
X180289200Y-121972152D01*
X180289200Y-121933383D01*
X181000421Y-121222162D01*
X181000421Y-121550453D01*
G36*
X145787092Y-124312076D02*
G01*
X145805380Y-124334360D01*
X145827664Y-124352648D01*
X145827666Y-124352650D01*
X145833229Y-124357215D01*
X145894336Y-124407364D01*
X145995825Y-124461611D01*
X146030978Y-124472274D01*
X145262590Y-125240663D01*
X145262590Y-123787574D01*
X145787092Y-124312076D01*
G37*
X145787092Y-124312076D02*
X145805380Y-124334360D01*
X145827664Y-124352648D01*
X145827666Y-124352650D01*
X145833229Y-124357215D01*
X145894336Y-124407364D01*
X145995825Y-124461611D01*
X146030978Y-124472274D01*
X145262590Y-125240663D01*
X145262590Y-123787574D01*
X145787092Y-124312076D01*
G36*
X155530262Y-124353661D02*
G01*
X155659226Y-124439832D01*
X155802524Y-124499188D01*
X155954648Y-124529447D01*
X156018651Y-124529447D01*
X156023259Y-124544639D01*
X156077506Y-124646128D01*
X156150510Y-124735085D01*
X156172799Y-124753377D01*
X156180610Y-124761189D01*
X156108719Y-124760951D01*
X156107747Y-124760855D01*
X156079799Y-124760855D01*
X156052297Y-124760764D01*
X156051341Y-124760855D01*
X155762239Y-124760855D01*
X155318864Y-124317481D01*
X155494082Y-124317481D01*
X155530262Y-124353661D01*
G37*
X155530262Y-124353661D02*
X155659226Y-124439832D01*
X155802524Y-124499188D01*
X155954648Y-124529447D01*
X156018651Y-124529447D01*
X156023259Y-124544639D01*
X156077506Y-124646128D01*
X156150510Y-124735085D01*
X156172799Y-124753377D01*
X156180610Y-124761189D01*
X156108719Y-124760951D01*
X156107747Y-124760855D01*
X156079799Y-124760855D01*
X156052297Y-124760764D01*
X156051341Y-124760855D01*
X155762239Y-124760855D01*
X155318864Y-124317481D01*
X155494082Y-124317481D01*
X155530262Y-124353661D01*
G36*
X167433359Y-118109985D02*
G01*
X167462200Y-118112826D01*
X167491314Y-118109958D01*
X167881912Y-118109399D01*
X167947434Y-118174920D01*
X167947434Y-118213689D01*
X167977693Y-118365813D01*
X168037049Y-118509111D01*
X168123220Y-118638075D01*
X168232896Y-118747751D01*
X168361860Y-118833922D01*
X168505158Y-118893278D01*
X168657282Y-118923537D01*
X168812386Y-118923537D01*
X168964510Y-118893278D01*
X169107808Y-118833922D01*
X169236772Y-118747751D01*
X169346448Y-118638075D01*
X169432619Y-118509111D01*
X169491975Y-118365813D01*
X169522234Y-118213689D01*
X169522234Y-118119899D01*
X170407838Y-119005504D01*
X170426126Y-119027788D01*
X170448410Y-119046076D01*
X170448412Y-119046078D01*
X170512328Y-119098532D01*
X170515082Y-119100792D01*
X170616571Y-119155039D01*
X170726693Y-119188444D01*
X170794991Y-119195171D01*
X170841216Y-119199724D01*
X170869908Y-119196898D01*
X174447740Y-119196898D01*
X174447741Y-121965453D01*
X172043076Y-124301028D01*
X171340067Y-123598020D01*
X171321775Y-123575731D01*
X171232819Y-123502727D01*
X171131330Y-123448480D01*
X171021208Y-123415075D01*
X170935377Y-123406621D01*
X170935369Y-123406621D01*
X170906685Y-123403796D01*
X170878001Y-123406621D01*
X169916183Y-123406621D01*
X169888769Y-123379207D01*
X169759805Y-123293036D01*
X169616507Y-123233680D01*
X169464383Y-123203421D01*
X169309279Y-123203421D01*
X169157155Y-123233680D01*
X169013857Y-123293036D01*
X168884893Y-123379207D01*
X168824926Y-123439174D01*
X168776938Y-123391186D01*
X168647974Y-123305015D01*
X168504676Y-123245659D01*
X168352552Y-123215400D01*
X168197448Y-123215400D01*
X168045324Y-123245659D01*
X167902026Y-123305015D01*
X167788865Y-123380627D01*
X167789837Y-123377422D01*
X167801117Y-123262899D01*
X167798291Y-123234207D01*
X167798291Y-121471972D01*
X167801116Y-121443290D01*
X167798291Y-121414608D01*
X167798291Y-121414599D01*
X167789837Y-121328768D01*
X167756432Y-121218646D01*
X167702185Y-121117157D01*
X167629181Y-121028201D01*
X167606893Y-121009910D01*
X165633400Y-119036417D01*
X165633400Y-118224983D01*
X165749214Y-118109169D01*
X167433359Y-118109985D01*
G37*
X167433359Y-118109985D02*
X167462200Y-118112826D01*
X167491314Y-118109958D01*
X167881912Y-118109399D01*
X167947434Y-118174920D01*
X167947434Y-118213689D01*
X167977693Y-118365813D01*
X168037049Y-118509111D01*
X168123220Y-118638075D01*
X168232896Y-118747751D01*
X168361860Y-118833922D01*
X168505158Y-118893278D01*
X168657282Y-118923537D01*
X168812386Y-118923537D01*
X168964510Y-118893278D01*
X169107808Y-118833922D01*
X169236772Y-118747751D01*
X169346448Y-118638075D01*
X169432619Y-118509111D01*
X169491975Y-118365813D01*
X169522234Y-118213689D01*
X169522234Y-118119899D01*
X170407838Y-119005504D01*
X170426126Y-119027788D01*
X170448410Y-119046076D01*
X170448412Y-119046078D01*
X170512328Y-119098532D01*
X170515082Y-119100792D01*
X170616571Y-119155039D01*
X170726693Y-119188444D01*
X170794991Y-119195171D01*
X170841216Y-119199724D01*
X170869908Y-119196898D01*
X174447740Y-119196898D01*
X174447741Y-121965453D01*
X172043076Y-124301028D01*
X171340067Y-123598020D01*
X171321775Y-123575731D01*
X171232819Y-123502727D01*
X171131330Y-123448480D01*
X171021208Y-123415075D01*
X170935377Y-123406621D01*
X170935369Y-123406621D01*
X170906685Y-123403796D01*
X170878001Y-123406621D01*
X169916183Y-123406621D01*
X169888769Y-123379207D01*
X169759805Y-123293036D01*
X169616507Y-123233680D01*
X169464383Y-123203421D01*
X169309279Y-123203421D01*
X169157155Y-123233680D01*
X169013857Y-123293036D01*
X168884893Y-123379207D01*
X168824926Y-123439174D01*
X168776938Y-123391186D01*
X168647974Y-123305015D01*
X168504676Y-123245659D01*
X168352552Y-123215400D01*
X168197448Y-123215400D01*
X168045324Y-123245659D01*
X167902026Y-123305015D01*
X167788865Y-123380627D01*
X167789837Y-123377422D01*
X167801117Y-123262899D01*
X167798291Y-123234207D01*
X167798291Y-121471972D01*
X167801116Y-121443290D01*
X167798291Y-121414608D01*
X167798291Y-121414599D01*
X167789837Y-121328768D01*
X167756432Y-121218646D01*
X167702185Y-121117157D01*
X167629181Y-121028201D01*
X167606893Y-121009910D01*
X165633400Y-119036417D01*
X165633400Y-118224983D01*
X165749214Y-118109169D01*
X167433359Y-118109985D01*
G36*
X158921853Y-117410403D02*
G01*
X158938953Y-117431239D01*
X159022107Y-117499482D01*
X159116978Y-117550192D01*
X159219918Y-117581418D01*
X159300148Y-117589320D01*
X159300157Y-117589320D01*
X159326971Y-117591961D01*
X159353785Y-117589320D01*
X161619065Y-117589320D01*
X163537881Y-119508137D01*
X163537881Y-119661588D01*
X163535240Y-119688405D01*
X163537879Y-119715201D01*
X163537879Y-119715270D01*
X163545777Y-119795501D01*
X163576998Y-119898442D01*
X163627703Y-119993316D01*
X163695941Y-120076473D01*
X163717182Y-120093907D01*
X163856396Y-120233121D01*
X163873824Y-120254357D01*
X163894764Y-120271542D01*
X164337683Y-120714029D01*
X164344004Y-120719212D01*
X164984647Y-121359855D01*
X164984648Y-122729765D01*
X164982006Y-122756591D01*
X164992549Y-122863644D01*
X165023776Y-122966586D01*
X165074485Y-123061455D01*
X165124575Y-123122489D01*
X165142729Y-123144610D01*
X165163563Y-123161708D01*
X165443456Y-123441601D01*
X165443456Y-123534252D01*
X165473715Y-123686376D01*
X165533071Y-123829674D01*
X165619242Y-123958638D01*
X165655705Y-123995101D01*
X165423353Y-124227454D01*
X164781032Y-124227454D01*
X164753618Y-124200040D01*
X164624654Y-124113869D01*
X164481356Y-124054513D01*
X164329232Y-124024254D01*
X164174128Y-124024254D01*
X164022004Y-124054513D01*
X163878706Y-124113869D01*
X163749742Y-124200040D01*
X163714723Y-124235059D01*
X163706105Y-124235908D01*
X163595983Y-124269313D01*
X163571856Y-124282209D01*
X158599603Y-124282209D01*
X158624076Y-124277341D01*
X158767374Y-124217985D01*
X158896338Y-124131814D01*
X159006014Y-124022138D01*
X159092185Y-123893174D01*
X159151541Y-123749876D01*
X159167149Y-123671408D01*
X159283613Y-123623167D01*
X159361934Y-123570835D01*
X159411924Y-123591541D01*
X159564048Y-123621800D01*
X159719152Y-123621800D01*
X159871276Y-123591541D01*
X160014574Y-123532185D01*
X160143538Y-123446014D01*
X160253214Y-123336338D01*
X160339385Y-123207374D01*
X160398741Y-123064076D01*
X160429000Y-122911952D01*
X160429000Y-122756848D01*
X160398741Y-122604724D01*
X160339385Y-122461426D01*
X160253214Y-122332462D01*
X160200608Y-122279856D01*
X160209882Y-121876894D01*
X160210500Y-121870623D01*
X160210500Y-121850040D01*
X160210972Y-121829550D01*
X160210500Y-121823282D01*
X160210500Y-121388017D01*
X160213141Y-121361200D01*
X160210500Y-121334383D01*
X160210500Y-121334376D01*
X160202598Y-121254146D01*
X160171372Y-121151206D01*
X160120662Y-121056335D01*
X160089479Y-121018339D01*
X160606638Y-121018339D01*
X161886900Y-122298602D01*
X161886900Y-122419348D01*
X161821359Y-122484889D01*
X161735188Y-122613853D01*
X161675832Y-122757151D01*
X161645573Y-122909275D01*
X161645573Y-123064379D01*
X161675832Y-123216503D01*
X161735188Y-123359801D01*
X161821359Y-123488765D01*
X161931035Y-123598441D01*
X162059999Y-123684612D01*
X162203297Y-123743968D01*
X162355421Y-123774227D01*
X162510525Y-123774227D01*
X162662649Y-123743968D01*
X162785299Y-123693165D01*
X162814369Y-123712589D01*
X162957667Y-123771945D01*
X163109791Y-123802204D01*
X163264895Y-123802204D01*
X163417019Y-123771945D01*
X163560317Y-123712589D01*
X163689281Y-123626418D01*
X163798957Y-123516742D01*
X163885128Y-123387778D01*
X163944484Y-123244480D01*
X163974743Y-123092356D01*
X163974743Y-122937252D01*
X163944484Y-122785128D01*
X163885128Y-122641830D01*
X163798957Y-122512866D01*
X163709322Y-122423231D01*
X163694315Y-122373758D01*
X163643605Y-122278887D01*
X163575362Y-122195733D01*
X163554522Y-122178630D01*
X163539102Y-122163210D01*
X163540541Y-122148600D01*
X163537896Y-122121743D01*
X163537896Y-122121710D01*
X163534959Y-122091923D01*
X163529998Y-122041546D01*
X163529988Y-122041514D01*
X163529985Y-122041481D01*
X163514113Y-121989181D01*
X163498771Y-121938604D01*
X163498755Y-121938573D01*
X163498746Y-121938545D01*
X163472335Y-121889147D01*
X163448062Y-121843735D01*
X163448040Y-121843708D01*
X163448025Y-121843680D01*
X163414996Y-121803444D01*
X163396918Y-121781416D01*
X163396890Y-121781388D01*
X163379772Y-121760535D01*
X163358967Y-121743465D01*
X161466551Y-119851050D01*
X161449448Y-119830210D01*
X161366294Y-119761967D01*
X161271423Y-119711257D01*
X161168483Y-119680031D01*
X161088253Y-119672129D01*
X161088246Y-119672129D01*
X161061429Y-119669488D01*
X161034612Y-119672129D01*
X159451513Y-119672129D01*
X157289473Y-117510090D01*
X157289472Y-115778021D01*
X158921853Y-117410403D01*
G37*
X158921853Y-117410403D02*
X158938953Y-117431239D01*
X159022107Y-117499482D01*
X159116978Y-117550192D01*
X159219918Y-117581418D01*
X159300148Y-117589320D01*
X159300157Y-117589320D01*
X159326971Y-117591961D01*
X159353785Y-117589320D01*
X161619065Y-117589320D01*
X163537881Y-119508137D01*
X163537881Y-119661588D01*
X163535240Y-119688405D01*
X163537879Y-119715201D01*
X163537879Y-119715270D01*
X163545777Y-119795501D01*
X163576998Y-119898442D01*
X163627703Y-119993316D01*
X163695941Y-120076473D01*
X163717182Y-120093907D01*
X163856396Y-120233121D01*
X163873824Y-120254357D01*
X163894764Y-120271542D01*
X164337683Y-120714029D01*
X164344004Y-120719212D01*
X164984647Y-121359855D01*
X164984648Y-122729765D01*
X164982006Y-122756591D01*
X164992549Y-122863644D01*
X165023776Y-122966586D01*
X165074485Y-123061455D01*
X165124575Y-123122489D01*
X165142729Y-123144610D01*
X165163563Y-123161708D01*
X165443456Y-123441601D01*
X165443456Y-123534252D01*
X165473715Y-123686376D01*
X165533071Y-123829674D01*
X165619242Y-123958638D01*
X165655705Y-123995101D01*
X165423353Y-124227454D01*
X164781032Y-124227454D01*
X164753618Y-124200040D01*
X164624654Y-124113869D01*
X164481356Y-124054513D01*
X164329232Y-124024254D01*
X164174128Y-124024254D01*
X164022004Y-124054513D01*
X163878706Y-124113869D01*
X163749742Y-124200040D01*
X163714723Y-124235059D01*
X163706105Y-124235908D01*
X163595983Y-124269313D01*
X163571856Y-124282209D01*
X158599603Y-124282209D01*
X158624076Y-124277341D01*
X158767374Y-124217985D01*
X158896338Y-124131814D01*
X159006014Y-124022138D01*
X159092185Y-123893174D01*
X159151541Y-123749876D01*
X159167149Y-123671408D01*
X159283613Y-123623167D01*
X159361934Y-123570835D01*
X159411924Y-123591541D01*
X159564048Y-123621800D01*
X159719152Y-123621800D01*
X159871276Y-123591541D01*
X160014574Y-123532185D01*
X160143538Y-123446014D01*
X160253214Y-123336338D01*
X160339385Y-123207374D01*
X160398741Y-123064076D01*
X160429000Y-122911952D01*
X160429000Y-122756848D01*
X160398741Y-122604724D01*
X160339385Y-122461426D01*
X160253214Y-122332462D01*
X160200608Y-122279856D01*
X160209882Y-121876894D01*
X160210500Y-121870623D01*
X160210500Y-121850040D01*
X160210972Y-121829550D01*
X160210500Y-121823282D01*
X160210500Y-121388017D01*
X160213141Y-121361200D01*
X160210500Y-121334383D01*
X160210500Y-121334376D01*
X160202598Y-121254146D01*
X160171372Y-121151206D01*
X160120662Y-121056335D01*
X160089479Y-121018339D01*
X160606638Y-121018339D01*
X161886900Y-122298602D01*
X161886900Y-122419348D01*
X161821359Y-122484889D01*
X161735188Y-122613853D01*
X161675832Y-122757151D01*
X161645573Y-122909275D01*
X161645573Y-123064379D01*
X161675832Y-123216503D01*
X161735188Y-123359801D01*
X161821359Y-123488765D01*
X161931035Y-123598441D01*
X162059999Y-123684612D01*
X162203297Y-123743968D01*
X162355421Y-123774227D01*
X162510525Y-123774227D01*
X162662649Y-123743968D01*
X162785299Y-123693165D01*
X162814369Y-123712589D01*
X162957667Y-123771945D01*
X163109791Y-123802204D01*
X163264895Y-123802204D01*
X163417019Y-123771945D01*
X163560317Y-123712589D01*
X163689281Y-123626418D01*
X163798957Y-123516742D01*
X163885128Y-123387778D01*
X163944484Y-123244480D01*
X163974743Y-123092356D01*
X163974743Y-122937252D01*
X163944484Y-122785128D01*
X163885128Y-122641830D01*
X163798957Y-122512866D01*
X163709322Y-122423231D01*
X163694315Y-122373758D01*
X163643605Y-122278887D01*
X163575362Y-122195733D01*
X163554522Y-122178630D01*
X163539102Y-122163210D01*
X163540541Y-122148600D01*
X163537896Y-122121743D01*
X163537896Y-122121710D01*
X163534959Y-122091923D01*
X163529998Y-122041546D01*
X163529988Y-122041514D01*
X163529985Y-122041481D01*
X163514113Y-121989181D01*
X163498771Y-121938604D01*
X163498755Y-121938573D01*
X163498746Y-121938545D01*
X163472335Y-121889147D01*
X163448062Y-121843735D01*
X163448040Y-121843708D01*
X163448025Y-121843680D01*
X163414996Y-121803444D01*
X163396918Y-121781416D01*
X163396890Y-121781388D01*
X163379772Y-121760535D01*
X163358967Y-121743465D01*
X161466551Y-119851050D01*
X161449448Y-119830210D01*
X161366294Y-119761967D01*
X161271423Y-119711257D01*
X161168483Y-119680031D01*
X161088253Y-119672129D01*
X161088246Y-119672129D01*
X161061429Y-119669488D01*
X161034612Y-119672129D01*
X159451513Y-119672129D01*
X157289473Y-117510090D01*
X157289472Y-115778021D01*
X158921853Y-117410403D01*
G36*
X179719423Y-118323022D02*
G01*
X179810394Y-118350617D01*
X179905000Y-118359935D01*
X180416201Y-118359935D01*
X180416201Y-120154016D01*
X179463017Y-121107200D01*
X179424248Y-121107200D01*
X179272124Y-121137459D01*
X179128826Y-121196815D01*
X178999862Y-121282986D01*
X178972448Y-121310400D01*
X177687762Y-121310400D01*
X177659070Y-121307574D01*
X177544547Y-121318854D01*
X177434425Y-121352259D01*
X177332936Y-121406506D01*
X177266266Y-121461220D01*
X177266264Y-121461222D01*
X177243980Y-121479510D01*
X177225692Y-121501794D01*
X174477652Y-124249835D01*
X174182187Y-124249835D01*
X174161738Y-124229386D01*
X174032774Y-124143215D01*
X173927456Y-124099591D01*
X175421446Y-122648526D01*
X175447030Y-122627530D01*
X175480847Y-122586324D01*
X175515228Y-122545653D01*
X175517306Y-122541898D01*
X175520034Y-122538574D01*
X175545164Y-122491560D01*
X175570949Y-122444966D01*
X175572256Y-122440874D01*
X175574281Y-122437085D01*
X175589757Y-122386068D01*
X175605955Y-122335342D01*
X175606438Y-122331077D01*
X175607686Y-122326963D01*
X175612913Y-122273894D01*
X175618903Y-122220996D01*
X175616140Y-122188025D01*
X175616140Y-118875823D01*
X175618965Y-118847139D01*
X175616140Y-118818455D01*
X175616140Y-118818448D01*
X175607686Y-118732617D01*
X175601397Y-118711883D01*
X175593412Y-118685563D01*
X175574281Y-118622495D01*
X175520034Y-118521006D01*
X175447030Y-118432050D01*
X175424742Y-118413759D01*
X175412721Y-118401738D01*
X175445315Y-118384317D01*
X175478236Y-118357299D01*
X175505000Y-118359935D01*
X176205000Y-118359935D01*
X176299606Y-118350617D01*
X176390577Y-118323022D01*
X176405000Y-118315313D01*
X176419423Y-118323022D01*
X176510394Y-118350617D01*
X176605000Y-118359935D01*
X177305000Y-118359935D01*
X177399606Y-118350617D01*
X177490577Y-118323022D01*
X177505000Y-118315313D01*
X177519423Y-118323022D01*
X177610394Y-118350617D01*
X177705000Y-118359935D01*
X178405000Y-118359935D01*
X178499606Y-118350617D01*
X178590577Y-118323022D01*
X178605000Y-118315313D01*
X178619423Y-118323022D01*
X178710394Y-118350617D01*
X178805000Y-118359935D01*
X179505000Y-118359935D01*
X179599606Y-118350617D01*
X179690577Y-118323022D01*
X179705000Y-118315313D01*
X179719423Y-118323022D01*
G37*
X179719423Y-118323022D02*
X179810394Y-118350617D01*
X179905000Y-118359935D01*
X180416201Y-118359935D01*
X180416201Y-120154016D01*
X179463017Y-121107200D01*
X179424248Y-121107200D01*
X179272124Y-121137459D01*
X179128826Y-121196815D01*
X178999862Y-121282986D01*
X178972448Y-121310400D01*
X177687762Y-121310400D01*
X177659070Y-121307574D01*
X177544547Y-121318854D01*
X177434425Y-121352259D01*
X177332936Y-121406506D01*
X177266266Y-121461220D01*
X177266264Y-121461222D01*
X177243980Y-121479510D01*
X177225692Y-121501794D01*
X174477652Y-124249835D01*
X174182187Y-124249835D01*
X174161738Y-124229386D01*
X174032774Y-124143215D01*
X173927456Y-124099591D01*
X175421446Y-122648526D01*
X175447030Y-122627530D01*
X175480847Y-122586324D01*
X175515228Y-122545653D01*
X175517306Y-122541898D01*
X175520034Y-122538574D01*
X175545164Y-122491560D01*
X175570949Y-122444966D01*
X175572256Y-122440874D01*
X175574281Y-122437085D01*
X175589757Y-122386068D01*
X175605955Y-122335342D01*
X175606438Y-122331077D01*
X175607686Y-122326963D01*
X175612913Y-122273894D01*
X175618903Y-122220996D01*
X175616140Y-122188025D01*
X175616140Y-118875823D01*
X175618965Y-118847139D01*
X175616140Y-118818455D01*
X175616140Y-118818448D01*
X175607686Y-118732617D01*
X175601397Y-118711883D01*
X175593412Y-118685563D01*
X175574281Y-118622495D01*
X175520034Y-118521006D01*
X175447030Y-118432050D01*
X175424742Y-118413759D01*
X175412721Y-118401738D01*
X175445315Y-118384317D01*
X175478236Y-118357299D01*
X175505000Y-118359935D01*
X176205000Y-118359935D01*
X176299606Y-118350617D01*
X176390577Y-118323022D01*
X176405000Y-118315313D01*
X176419423Y-118323022D01*
X176510394Y-118350617D01*
X176605000Y-118359935D01*
X177305000Y-118359935D01*
X177399606Y-118350617D01*
X177490577Y-118323022D01*
X177505000Y-118315313D01*
X177519423Y-118323022D01*
X177610394Y-118350617D01*
X177705000Y-118359935D01*
X178405000Y-118359935D01*
X178499606Y-118350617D01*
X178590577Y-118323022D01*
X178605000Y-118315313D01*
X178619423Y-118323022D01*
X178710394Y-118350617D01*
X178805000Y-118359935D01*
X179505000Y-118359935D01*
X179599606Y-118350617D01*
X179690577Y-118323022D01*
X179705000Y-118315313D01*
X179719423Y-118323022D01*
G36*
X147853400Y-111580848D02*
G01*
X147853400Y-111735952D01*
X147866490Y-111801758D01*
X147800586Y-111867662D01*
X147714415Y-111996626D01*
X147655059Y-112139924D01*
X147624800Y-112292048D01*
X147624800Y-112447152D01*
X147655059Y-112599276D01*
X147714415Y-112742574D01*
X147800586Y-112871538D01*
X147910262Y-112981214D01*
X148039226Y-113067385D01*
X148182524Y-113126741D01*
X148297725Y-113149656D01*
X148328980Y-113187740D01*
X148349820Y-113204843D01*
X148863341Y-113718365D01*
X148775826Y-113754615D01*
X148646862Y-113840786D01*
X148537186Y-113950462D01*
X148451015Y-114079426D01*
X148391659Y-114222724D01*
X148361400Y-114374848D01*
X148361400Y-114529952D01*
X148391659Y-114682076D01*
X148451015Y-114825374D01*
X148537186Y-114954338D01*
X148646862Y-115064014D01*
X148775826Y-115150185D01*
X148919124Y-115209541D01*
X149071248Y-115239800D01*
X149226352Y-115239800D01*
X149378476Y-115209541D01*
X149521774Y-115150185D01*
X149650738Y-115064014D01*
X149760414Y-114954338D01*
X149846585Y-114825374D01*
X149905941Y-114682076D01*
X149936200Y-114529952D01*
X149936200Y-114513454D01*
X150035718Y-114513454D01*
X150062532Y-114516095D01*
X150089349Y-114513454D01*
X150089356Y-114513454D01*
X150169586Y-114505552D01*
X150272526Y-114474326D01*
X150367397Y-114423616D01*
X150450551Y-114355373D01*
X150467653Y-114334534D01*
X151022839Y-113779350D01*
X152586980Y-113779350D01*
X152562443Y-113838587D01*
X152414301Y-113868054D01*
X152271003Y-113927410D01*
X152142039Y-114013581D01*
X152032363Y-114123257D01*
X151946192Y-114252221D01*
X151886836Y-114395519D01*
X151856577Y-114547643D01*
X151856577Y-114702747D01*
X151886836Y-114854871D01*
X151946192Y-114998169D01*
X152032363Y-115127133D01*
X152078726Y-115173496D01*
X152078725Y-115810374D01*
X152013211Y-115875888D01*
X151927040Y-116004852D01*
X151867684Y-116148150D01*
X151837425Y-116300274D01*
X151837425Y-116455378D01*
X151867684Y-116607502D01*
X151927040Y-116750800D01*
X152013211Y-116879764D01*
X152122887Y-116989440D01*
X152251851Y-117075611D01*
X152395149Y-117134967D01*
X152547273Y-117165226D01*
X152702377Y-117165226D01*
X152724812Y-117160764D01*
X152812462Y-117248414D01*
X152941426Y-117334585D01*
X153084724Y-117393941D01*
X153236848Y-117424200D01*
X153391952Y-117424200D01*
X153544076Y-117393941D01*
X153687374Y-117334585D01*
X153816338Y-117248414D01*
X153926014Y-117138738D01*
X154012185Y-117009774D01*
X154071541Y-116866476D01*
X154101800Y-116714352D01*
X154101800Y-116559248D01*
X154071541Y-116407124D01*
X154012185Y-116263826D01*
X153926014Y-116134862D01*
X153860500Y-116069348D01*
X153860500Y-114677002D01*
X153905669Y-114631833D01*
X153991840Y-114502869D01*
X154013502Y-114450572D01*
X154673215Y-115110285D01*
X154673214Y-118340759D01*
X154670573Y-118367576D01*
X154673214Y-118394393D01*
X154673214Y-118394399D01*
X154681116Y-118474629D01*
X154712342Y-118577569D01*
X154763052Y-118672441D01*
X154831295Y-118755595D01*
X154852135Y-118772698D01*
X157098990Y-121019554D01*
X157098989Y-122466008D01*
X157053694Y-122381266D01*
X156980690Y-122292310D01*
X156958401Y-122274018D01*
X156613413Y-121929030D01*
X156586141Y-121791924D01*
X156526785Y-121648626D01*
X156440614Y-121519662D01*
X156330938Y-121409986D01*
X156201974Y-121323815D01*
X156058676Y-121264459D01*
X155959753Y-121244782D01*
X155981400Y-121135952D01*
X155981400Y-120980848D01*
X155951141Y-120828724D01*
X155891785Y-120685426D01*
X155805614Y-120556462D01*
X155695938Y-120446786D01*
X155566974Y-120360615D01*
X155423676Y-120301259D01*
X155271552Y-120271000D01*
X155223749Y-120271000D01*
X155244345Y-120221276D01*
X155274604Y-120069152D01*
X155274604Y-119914048D01*
X155244345Y-119761924D01*
X155184989Y-119618626D01*
X155098818Y-119489662D01*
X154989142Y-119379986D01*
X154860178Y-119293815D01*
X154716880Y-119234459D01*
X154564756Y-119204200D01*
X154409652Y-119204200D01*
X154257528Y-119234459D01*
X154239202Y-119242050D01*
X154146538Y-119149386D01*
X154017574Y-119063215D01*
X153874276Y-119003859D01*
X153722152Y-118973600D01*
X153567048Y-118973600D01*
X153414924Y-119003859D01*
X153271626Y-119063215D01*
X153142662Y-119149386D01*
X153032986Y-119259062D01*
X152946815Y-119388026D01*
X152887459Y-119531324D01*
X152857200Y-119683448D01*
X152857200Y-119838552D01*
X152887459Y-119990676D01*
X152946815Y-120133974D01*
X153032986Y-120262938D01*
X153098500Y-120328452D01*
X153098501Y-122094201D01*
X151278830Y-123913873D01*
X149573270Y-123913873D01*
X149573270Y-123841718D01*
X149543011Y-123689594D01*
X149483655Y-123546296D01*
X149397484Y-123417332D01*
X149287808Y-123307656D01*
X149158844Y-123221485D01*
X149127192Y-123208375D01*
X149142644Y-123192923D01*
X149228815Y-123063959D01*
X149288171Y-122920661D01*
X149294834Y-122887163D01*
X149399557Y-122843785D01*
X149528521Y-122757614D01*
X149638197Y-122647938D01*
X149724368Y-122518974D01*
X149767257Y-122415430D01*
X149805412Y-122407841D01*
X149948710Y-122348485D01*
X150077674Y-122262314D01*
X150187350Y-122152638D01*
X150273521Y-122023674D01*
X150305943Y-121945400D01*
X150318552Y-121945400D01*
X150470676Y-121915141D01*
X150613974Y-121855785D01*
X150742938Y-121769614D01*
X150852614Y-121659938D01*
X150938785Y-121530974D01*
X150983944Y-121421950D01*
X151054876Y-121407841D01*
X151198174Y-121348485D01*
X151327138Y-121262314D01*
X151436814Y-121152638D01*
X151522985Y-121023674D01*
X151582341Y-120880376D01*
X151612600Y-120728252D01*
X151612600Y-120573148D01*
X151582341Y-120421024D01*
X151552594Y-120349209D01*
X151627853Y-120273951D01*
X151720503Y-120273951D01*
X151872627Y-120243692D01*
X152015925Y-120184336D01*
X152144889Y-120098165D01*
X152254565Y-119988489D01*
X152340736Y-119859525D01*
X152400092Y-119716227D01*
X152430351Y-119564103D01*
X152430351Y-119408999D01*
X152400092Y-119256875D01*
X152340736Y-119113577D01*
X152254565Y-118984613D01*
X152144889Y-118874937D01*
X152015925Y-118788766D01*
X151872627Y-118729410D01*
X151720503Y-118699151D01*
X151565399Y-118699151D01*
X151413275Y-118729410D01*
X151269977Y-118788766D01*
X151141013Y-118874937D01*
X151120671Y-118895279D01*
X151039797Y-118861780D01*
X150887673Y-118831521D01*
X150732569Y-118831521D01*
X150580445Y-118861780D01*
X150437147Y-118921136D01*
X150411521Y-118938259D01*
X150330558Y-118857296D01*
X150201594Y-118771125D01*
X150058296Y-118711769D01*
X150014746Y-118703106D01*
X150065214Y-118652638D01*
X150151385Y-118523674D01*
X150188783Y-118433387D01*
X150188848Y-118433400D01*
X150343952Y-118433400D01*
X150496076Y-118403141D01*
X150639374Y-118343785D01*
X150768338Y-118257614D01*
X150878014Y-118147938D01*
X150964185Y-118018974D01*
X150997986Y-117937372D01*
X151001648Y-117938100D01*
X151156752Y-117938100D01*
X151308876Y-117907841D01*
X151452174Y-117848485D01*
X151581138Y-117762314D01*
X151690814Y-117652638D01*
X151776985Y-117523674D01*
X151836341Y-117380376D01*
X151866600Y-117228252D01*
X151866600Y-117073148D01*
X151836341Y-116921024D01*
X151776985Y-116777726D01*
X151690814Y-116648762D01*
X151613500Y-116571448D01*
X151613500Y-116450858D01*
X151679014Y-116385344D01*
X151765185Y-116256380D01*
X151824541Y-116113082D01*
X151854800Y-115960958D01*
X151854800Y-115805854D01*
X151824541Y-115653730D01*
X151765185Y-115510432D01*
X151679014Y-115381468D01*
X151569338Y-115271792D01*
X151440374Y-115185621D01*
X151297076Y-115126265D01*
X151144952Y-115096006D01*
X150989848Y-115096006D01*
X150837724Y-115126265D01*
X150694426Y-115185621D01*
X150585777Y-115258218D01*
X150500136Y-115222744D01*
X150348012Y-115192485D01*
X150192908Y-115192485D01*
X150040784Y-115222744D01*
X149897486Y-115282100D01*
X149791348Y-115353019D01*
X149705118Y-115317301D01*
X149552994Y-115287042D01*
X149397890Y-115287042D01*
X149245766Y-115317301D01*
X149102468Y-115376657D01*
X148973504Y-115462828D01*
X148863828Y-115572504D01*
X148777657Y-115701468D01*
X148718301Y-115844766D01*
X148688042Y-115996890D01*
X148688042Y-116151994D01*
X148718301Y-116304118D01*
X148777657Y-116447416D01*
X148863828Y-116576380D01*
X148907500Y-116620052D01*
X148907501Y-117583247D01*
X148841986Y-117648762D01*
X148755815Y-117777726D01*
X148696459Y-117921024D01*
X148690320Y-117951886D01*
X148591352Y-117932200D01*
X148436248Y-117932200D01*
X148284124Y-117962459D01*
X148140826Y-118021815D01*
X148011862Y-118107986D01*
X147902186Y-118217662D01*
X147816015Y-118346626D01*
X147756659Y-118489924D01*
X147726400Y-118642048D01*
X147726400Y-118797152D01*
X147756659Y-118949276D01*
X147816015Y-119092574D01*
X147902186Y-119221538D01*
X147967700Y-119287052D01*
X147967701Y-122140762D01*
X147919416Y-122189047D01*
X147833245Y-122318011D01*
X147773889Y-122461309D01*
X147743630Y-122613433D01*
X147743630Y-122768537D01*
X147773889Y-122920661D01*
X147833245Y-123063959D01*
X147919416Y-123192923D01*
X148029092Y-123302599D01*
X148077688Y-123335070D01*
X146462454Y-123335070D01*
X145592799Y-122465416D01*
X145592799Y-112522000D01*
X145619552Y-112522000D01*
X145771676Y-112491741D01*
X145914974Y-112432385D01*
X146043938Y-112346214D01*
X146153614Y-112236538D01*
X146239785Y-112107574D01*
X146299141Y-111964276D01*
X146329400Y-111812152D01*
X146329400Y-111719502D01*
X146555592Y-111493310D01*
X147870812Y-111493310D01*
X147853400Y-111580848D01*
G37*
X147853400Y-111580848D02*
X147853400Y-111735952D01*
X147866490Y-111801758D01*
X147800586Y-111867662D01*
X147714415Y-111996626D01*
X147655059Y-112139924D01*
X147624800Y-112292048D01*
X147624800Y-112447152D01*
X147655059Y-112599276D01*
X147714415Y-112742574D01*
X147800586Y-112871538D01*
X147910262Y-112981214D01*
X148039226Y-113067385D01*
X148182524Y-113126741D01*
X148297725Y-113149656D01*
X148328980Y-113187740D01*
X148349820Y-113204843D01*
X148863341Y-113718365D01*
X148775826Y-113754615D01*
X148646862Y-113840786D01*
X148537186Y-113950462D01*
X148451015Y-114079426D01*
X148391659Y-114222724D01*
X148361400Y-114374848D01*
X148361400Y-114529952D01*
X148391659Y-114682076D01*
X148451015Y-114825374D01*
X148537186Y-114954338D01*
X148646862Y-115064014D01*
X148775826Y-115150185D01*
X148919124Y-115209541D01*
X149071248Y-115239800D01*
X149226352Y-115239800D01*
X149378476Y-115209541D01*
X149521774Y-115150185D01*
X149650738Y-115064014D01*
X149760414Y-114954338D01*
X149846585Y-114825374D01*
X149905941Y-114682076D01*
X149936200Y-114529952D01*
X149936200Y-114513454D01*
X150035718Y-114513454D01*
X150062532Y-114516095D01*
X150089349Y-114513454D01*
X150089356Y-114513454D01*
X150169586Y-114505552D01*
X150272526Y-114474326D01*
X150367397Y-114423616D01*
X150450551Y-114355373D01*
X150467653Y-114334534D01*
X151022839Y-113779350D01*
X152586980Y-113779350D01*
X152562443Y-113838587D01*
X152414301Y-113868054D01*
X152271003Y-113927410D01*
X152142039Y-114013581D01*
X152032363Y-114123257D01*
X151946192Y-114252221D01*
X151886836Y-114395519D01*
X151856577Y-114547643D01*
X151856577Y-114702747D01*
X151886836Y-114854871D01*
X151946192Y-114998169D01*
X152032363Y-115127133D01*
X152078726Y-115173496D01*
X152078725Y-115810374D01*
X152013211Y-115875888D01*
X151927040Y-116004852D01*
X151867684Y-116148150D01*
X151837425Y-116300274D01*
X151837425Y-116455378D01*
X151867684Y-116607502D01*
X151927040Y-116750800D01*
X152013211Y-116879764D01*
X152122887Y-116989440D01*
X152251851Y-117075611D01*
X152395149Y-117134967D01*
X152547273Y-117165226D01*
X152702377Y-117165226D01*
X152724812Y-117160764D01*
X152812462Y-117248414D01*
X152941426Y-117334585D01*
X153084724Y-117393941D01*
X153236848Y-117424200D01*
X153391952Y-117424200D01*
X153544076Y-117393941D01*
X153687374Y-117334585D01*
X153816338Y-117248414D01*
X153926014Y-117138738D01*
X154012185Y-117009774D01*
X154071541Y-116866476D01*
X154101800Y-116714352D01*
X154101800Y-116559248D01*
X154071541Y-116407124D01*
X154012185Y-116263826D01*
X153926014Y-116134862D01*
X153860500Y-116069348D01*
X153860500Y-114677002D01*
X153905669Y-114631833D01*
X153991840Y-114502869D01*
X154013502Y-114450572D01*
X154673215Y-115110285D01*
X154673214Y-118340759D01*
X154670573Y-118367576D01*
X154673214Y-118394393D01*
X154673214Y-118394399D01*
X154681116Y-118474629D01*
X154712342Y-118577569D01*
X154763052Y-118672441D01*
X154831295Y-118755595D01*
X154852135Y-118772698D01*
X157098990Y-121019554D01*
X157098989Y-122466008D01*
X157053694Y-122381266D01*
X156980690Y-122292310D01*
X156958401Y-122274018D01*
X156613413Y-121929030D01*
X156586141Y-121791924D01*
X156526785Y-121648626D01*
X156440614Y-121519662D01*
X156330938Y-121409986D01*
X156201974Y-121323815D01*
X156058676Y-121264459D01*
X155959753Y-121244782D01*
X155981400Y-121135952D01*
X155981400Y-120980848D01*
X155951141Y-120828724D01*
X155891785Y-120685426D01*
X155805614Y-120556462D01*
X155695938Y-120446786D01*
X155566974Y-120360615D01*
X155423676Y-120301259D01*
X155271552Y-120271000D01*
X155223749Y-120271000D01*
X155244345Y-120221276D01*
X155274604Y-120069152D01*
X155274604Y-119914048D01*
X155244345Y-119761924D01*
X155184989Y-119618626D01*
X155098818Y-119489662D01*
X154989142Y-119379986D01*
X154860178Y-119293815D01*
X154716880Y-119234459D01*
X154564756Y-119204200D01*
X154409652Y-119204200D01*
X154257528Y-119234459D01*
X154239202Y-119242050D01*
X154146538Y-119149386D01*
X154017574Y-119063215D01*
X153874276Y-119003859D01*
X153722152Y-118973600D01*
X153567048Y-118973600D01*
X153414924Y-119003859D01*
X153271626Y-119063215D01*
X153142662Y-119149386D01*
X153032986Y-119259062D01*
X152946815Y-119388026D01*
X152887459Y-119531324D01*
X152857200Y-119683448D01*
X152857200Y-119838552D01*
X152887459Y-119990676D01*
X152946815Y-120133974D01*
X153032986Y-120262938D01*
X153098500Y-120328452D01*
X153098501Y-122094201D01*
X151278830Y-123913873D01*
X149573270Y-123913873D01*
X149573270Y-123841718D01*
X149543011Y-123689594D01*
X149483655Y-123546296D01*
X149397484Y-123417332D01*
X149287808Y-123307656D01*
X149158844Y-123221485D01*
X149127192Y-123208375D01*
X149142644Y-123192923D01*
X149228815Y-123063959D01*
X149288171Y-122920661D01*
X149294834Y-122887163D01*
X149399557Y-122843785D01*
X149528521Y-122757614D01*
X149638197Y-122647938D01*
X149724368Y-122518974D01*
X149767257Y-122415430D01*
X149805412Y-122407841D01*
X149948710Y-122348485D01*
X150077674Y-122262314D01*
X150187350Y-122152638D01*
X150273521Y-122023674D01*
X150305943Y-121945400D01*
X150318552Y-121945400D01*
X150470676Y-121915141D01*
X150613974Y-121855785D01*
X150742938Y-121769614D01*
X150852614Y-121659938D01*
X150938785Y-121530974D01*
X150983944Y-121421950D01*
X151054876Y-121407841D01*
X151198174Y-121348485D01*
X151327138Y-121262314D01*
X151436814Y-121152638D01*
X151522985Y-121023674D01*
X151582341Y-120880376D01*
X151612600Y-120728252D01*
X151612600Y-120573148D01*
X151582341Y-120421024D01*
X151552594Y-120349209D01*
X151627853Y-120273951D01*
X151720503Y-120273951D01*
X151872627Y-120243692D01*
X152015925Y-120184336D01*
X152144889Y-120098165D01*
X152254565Y-119988489D01*
X152340736Y-119859525D01*
X152400092Y-119716227D01*
X152430351Y-119564103D01*
X152430351Y-119408999D01*
X152400092Y-119256875D01*
X152340736Y-119113577D01*
X152254565Y-118984613D01*
X152144889Y-118874937D01*
X152015925Y-118788766D01*
X151872627Y-118729410D01*
X151720503Y-118699151D01*
X151565399Y-118699151D01*
X151413275Y-118729410D01*
X151269977Y-118788766D01*
X151141013Y-118874937D01*
X151120671Y-118895279D01*
X151039797Y-118861780D01*
X150887673Y-118831521D01*
X150732569Y-118831521D01*
X150580445Y-118861780D01*
X150437147Y-118921136D01*
X150411521Y-118938259D01*
X150330558Y-118857296D01*
X150201594Y-118771125D01*
X150058296Y-118711769D01*
X150014746Y-118703106D01*
X150065214Y-118652638D01*
X150151385Y-118523674D01*
X150188783Y-118433387D01*
X150188848Y-118433400D01*
X150343952Y-118433400D01*
X150496076Y-118403141D01*
X150639374Y-118343785D01*
X150768338Y-118257614D01*
X150878014Y-118147938D01*
X150964185Y-118018974D01*
X150997986Y-117937372D01*
X151001648Y-117938100D01*
X151156752Y-117938100D01*
X151308876Y-117907841D01*
X151452174Y-117848485D01*
X151581138Y-117762314D01*
X151690814Y-117652638D01*
X151776985Y-117523674D01*
X151836341Y-117380376D01*
X151866600Y-117228252D01*
X151866600Y-117073148D01*
X151836341Y-116921024D01*
X151776985Y-116777726D01*
X151690814Y-116648762D01*
X151613500Y-116571448D01*
X151613500Y-116450858D01*
X151679014Y-116385344D01*
X151765185Y-116256380D01*
X151824541Y-116113082D01*
X151854800Y-115960958D01*
X151854800Y-115805854D01*
X151824541Y-115653730D01*
X151765185Y-115510432D01*
X151679014Y-115381468D01*
X151569338Y-115271792D01*
X151440374Y-115185621D01*
X151297076Y-115126265D01*
X151144952Y-115096006D01*
X150989848Y-115096006D01*
X150837724Y-115126265D01*
X150694426Y-115185621D01*
X150585777Y-115258218D01*
X150500136Y-115222744D01*
X150348012Y-115192485D01*
X150192908Y-115192485D01*
X150040784Y-115222744D01*
X149897486Y-115282100D01*
X149791348Y-115353019D01*
X149705118Y-115317301D01*
X149552994Y-115287042D01*
X149397890Y-115287042D01*
X149245766Y-115317301D01*
X149102468Y-115376657D01*
X148973504Y-115462828D01*
X148863828Y-115572504D01*
X148777657Y-115701468D01*
X148718301Y-115844766D01*
X148688042Y-115996890D01*
X148688042Y-116151994D01*
X148718301Y-116304118D01*
X148777657Y-116447416D01*
X148863828Y-116576380D01*
X148907500Y-116620052D01*
X148907501Y-117583247D01*
X148841986Y-117648762D01*
X148755815Y-117777726D01*
X148696459Y-117921024D01*
X148690320Y-117951886D01*
X148591352Y-117932200D01*
X148436248Y-117932200D01*
X148284124Y-117962459D01*
X148140826Y-118021815D01*
X148011862Y-118107986D01*
X147902186Y-118217662D01*
X147816015Y-118346626D01*
X147756659Y-118489924D01*
X147726400Y-118642048D01*
X147726400Y-118797152D01*
X147756659Y-118949276D01*
X147816015Y-119092574D01*
X147902186Y-119221538D01*
X147967700Y-119287052D01*
X147967701Y-122140762D01*
X147919416Y-122189047D01*
X147833245Y-122318011D01*
X147773889Y-122461309D01*
X147743630Y-122613433D01*
X147743630Y-122768537D01*
X147773889Y-122920661D01*
X147833245Y-123063959D01*
X147919416Y-123192923D01*
X148029092Y-123302599D01*
X148077688Y-123335070D01*
X146462454Y-123335070D01*
X145592799Y-122465416D01*
X145592799Y-112522000D01*
X145619552Y-112522000D01*
X145771676Y-112491741D01*
X145914974Y-112432385D01*
X146043938Y-112346214D01*
X146153614Y-112236538D01*
X146239785Y-112107574D01*
X146299141Y-111964276D01*
X146329400Y-111812152D01*
X146329400Y-111719502D01*
X146555592Y-111493310D01*
X147870812Y-111493310D01*
X147853400Y-111580848D01*
G36*
X164528665Y-105025223D02*
G01*
X164674502Y-105243483D01*
X164860117Y-105429098D01*
X165078377Y-105574935D01*
X165320895Y-105675389D01*
X165578350Y-105726600D01*
X165840850Y-105726600D01*
X166098305Y-105675389D01*
X166340823Y-105574935D01*
X166559083Y-105429098D01*
X166744698Y-105243483D01*
X166809989Y-105145768D01*
X166807130Y-105174800D01*
X166801800Y-105228908D01*
X166801800Y-105228916D01*
X166798975Y-105257600D01*
X166801800Y-105286284D01*
X166801800Y-105697903D01*
X166780465Y-105709307D01*
X166773772Y-105714800D01*
X166724248Y-105714800D01*
X166572124Y-105745059D01*
X166428826Y-105804415D01*
X166299862Y-105890586D01*
X166190186Y-106000262D01*
X166104015Y-106129226D01*
X166044659Y-106272524D01*
X166014400Y-106424648D01*
X166014400Y-106579752D01*
X166044659Y-106731876D01*
X166104015Y-106875174D01*
X166190186Y-107004138D01*
X166299862Y-107113814D01*
X166428826Y-107199985D01*
X166572124Y-107259341D01*
X166724248Y-107289600D01*
X166879352Y-107289600D01*
X167031476Y-107259341D01*
X167174774Y-107199985D01*
X167303738Y-107113814D01*
X167413414Y-107004138D01*
X167434525Y-106972542D01*
X168843883Y-108381900D01*
X168843882Y-110662649D01*
X168816468Y-110690063D01*
X168730297Y-110819027D01*
X168670941Y-110962325D01*
X168640682Y-111114449D01*
X168640682Y-111269553D01*
X168670941Y-111421677D01*
X168730297Y-111564975D01*
X168816468Y-111693939D01*
X168926144Y-111803615D01*
X169055108Y-111889786D01*
X169198406Y-111949142D01*
X169350530Y-111979401D01*
X169389299Y-111979401D01*
X170749255Y-113339358D01*
X170767543Y-113361642D01*
X170789827Y-113379930D01*
X170789829Y-113379932D01*
X170856499Y-113434646D01*
X170957988Y-113488893D01*
X171068110Y-113522298D01*
X171182633Y-113533578D01*
X171211325Y-113530752D01*
X171447766Y-113530752D01*
X171447767Y-114466650D01*
X171284217Y-114630200D01*
X169845001Y-114630200D01*
X169833626Y-114628397D01*
X169787605Y-114630200D01*
X169770308Y-114630200D01*
X169758884Y-114631325D01*
X169718637Y-114632902D01*
X169701760Y-114636952D01*
X169684477Y-114638654D01*
X169645908Y-114650354D01*
X169606737Y-114659753D01*
X169590973Y-114667018D01*
X169574355Y-114672059D01*
X169538814Y-114691056D01*
X169502224Y-114707919D01*
X169488179Y-114718121D01*
X169472866Y-114726306D01*
X169441709Y-114751876D01*
X169432445Y-114758605D01*
X169419549Y-114770062D01*
X169383910Y-114799310D01*
X169376597Y-114808221D01*
X169106936Y-115047791D01*
X169071309Y-115077029D01*
X169045745Y-115108180D01*
X169018393Y-115137762D01*
X169009320Y-115152564D01*
X168998305Y-115165986D01*
X168979309Y-115201526D01*
X168958254Y-115235875D01*
X168952244Y-115252161D01*
X168944058Y-115267475D01*
X168932361Y-115306035D01*
X168918411Y-115343834D01*
X168915693Y-115360982D01*
X168910653Y-115377597D01*
X168906703Y-115417703D01*
X168900396Y-115457493D01*
X168902199Y-115503514D01*
X168902200Y-117229187D01*
X168899374Y-117257881D01*
X168910239Y-117368201D01*
X168812386Y-117348737D01*
X168773617Y-117348737D01*
X168556628Y-117131749D01*
X168538042Y-117109168D01*
X168494023Y-117073148D01*
X168449681Y-117036758D01*
X168449308Y-117036558D01*
X168448982Y-117036292D01*
X168398726Y-117009522D01*
X168348192Y-116982511D01*
X168347787Y-116982388D01*
X168347415Y-116982190D01*
X168292955Y-116965755D01*
X168238070Y-116949106D01*
X168237647Y-116949064D01*
X168237245Y-116948943D01*
X168180411Y-116943427D01*
X168123548Y-116937827D01*
X168094441Y-116940694D01*
X168046400Y-116940762D01*
X168046400Y-110587552D01*
X168073814Y-110560138D01*
X168159985Y-110431174D01*
X168219341Y-110287876D01*
X168249600Y-110135752D01*
X168249600Y-109980648D01*
X168219341Y-109828524D01*
X168159985Y-109685226D01*
X168073814Y-109556262D01*
X167964138Y-109446586D01*
X167835174Y-109360415D01*
X167691876Y-109301059D01*
X167539752Y-109270800D01*
X167384648Y-109270800D01*
X167232524Y-109301059D01*
X167089226Y-109360415D01*
X166960262Y-109446586D01*
X166850586Y-109556262D01*
X166764415Y-109685226D01*
X166705059Y-109828524D01*
X166674800Y-109980648D01*
X166674800Y-110135752D01*
X166705059Y-110287876D01*
X166764415Y-110431174D01*
X166850586Y-110560138D01*
X166878000Y-110587552D01*
X166878001Y-115211098D01*
X166878000Y-115211108D01*
X166878000Y-115293891D01*
X166878001Y-115293901D01*
X166878000Y-116834811D01*
X166878000Y-116941317D01*
X165536181Y-116940667D01*
X165507347Y-116937827D01*
X165449470Y-116943527D01*
X165393105Y-116949051D01*
X165392971Y-116949091D01*
X165392824Y-116949106D01*
X165336509Y-116966189D01*
X165282967Y-116982403D01*
X165282843Y-116982469D01*
X165282702Y-116982512D01*
X165231953Y-117009638D01*
X165181451Y-117036600D01*
X165181338Y-117036693D01*
X165181214Y-117036759D01*
X165136208Y-117073693D01*
X165092460Y-117109561D01*
X165074076Y-117131940D01*
X164656399Y-117549618D01*
X164634110Y-117567910D01*
X164561106Y-117656867D01*
X164510672Y-117751222D01*
X164506859Y-117758356D01*
X164478261Y-117852633D01*
X164473454Y-117868478D01*
X164465000Y-117954309D01*
X164465000Y-117954316D01*
X164462175Y-117983000D01*
X164465000Y-118011684D01*
X164465000Y-118172204D01*
X162460811Y-116168016D01*
X162443716Y-116147185D01*
X162411835Y-116121020D01*
X162398569Y-116110133D01*
X162360562Y-116078941D01*
X162265691Y-116028231D01*
X162261560Y-116026978D01*
X162162749Y-115997004D01*
X162055696Y-115986461D01*
X162028871Y-115989103D01*
X161342226Y-115989100D01*
X159763602Y-115989100D01*
X158051501Y-114277000D01*
X158051500Y-113916802D01*
X158054142Y-113889977D01*
X158043599Y-113782923D01*
X158012372Y-113679981D01*
X157961663Y-113585112D01*
X157910519Y-113522793D01*
X157910513Y-113522787D01*
X157893419Y-113501958D01*
X157872590Y-113484864D01*
X154180346Y-109792621D01*
X154163243Y-109771781D01*
X154080089Y-109703538D01*
X153985218Y-109652828D01*
X153882278Y-109621602D01*
X153802048Y-109613700D01*
X153802041Y-109613700D01*
X153775224Y-109611059D01*
X153748407Y-109613700D01*
X152654309Y-109613700D01*
X150210048Y-109607564D01*
X150267476Y-109596141D01*
X150410774Y-109536785D01*
X150539738Y-109450614D01*
X150649414Y-109340938D01*
X150735585Y-109211974D01*
X150794941Y-109068676D01*
X150825200Y-108916552D01*
X150825200Y-108761448D01*
X150794941Y-108609324D01*
X150735585Y-108466026D01*
X150649414Y-108337062D01*
X150539738Y-108227386D01*
X150410774Y-108141215D01*
X150267476Y-108081859D01*
X150115352Y-108051600D01*
X150076584Y-108051600D01*
X149709182Y-107684199D01*
X149690890Y-107661910D01*
X149601934Y-107588906D01*
X149500445Y-107534659D01*
X149390323Y-107501254D01*
X149304492Y-107492800D01*
X149304484Y-107492800D01*
X149275800Y-107489975D01*
X149247116Y-107492800D01*
X148069983Y-107492800D01*
X148322401Y-107240382D01*
X148344690Y-107222090D01*
X148417694Y-107133134D01*
X148471941Y-107031645D01*
X148505346Y-106921523D01*
X148513800Y-106835692D01*
X148513800Y-106835683D01*
X148516625Y-106807001D01*
X148513800Y-106778319D01*
X148513800Y-106432448D01*
X150212600Y-106432448D01*
X150212600Y-106587552D01*
X150242859Y-106739676D01*
X150302215Y-106882974D01*
X150388386Y-107011938D01*
X150498062Y-107121614D01*
X150627026Y-107207785D01*
X150770324Y-107267141D01*
X150922448Y-107297400D01*
X151077552Y-107297400D01*
X151229676Y-107267141D01*
X151372974Y-107207785D01*
X151501938Y-107121614D01*
X151503952Y-107119600D01*
X153183771Y-107119600D01*
X153169693Y-107140669D01*
X153110337Y-107283967D01*
X153080078Y-107436091D01*
X153080078Y-107591195D01*
X153110337Y-107743319D01*
X153169693Y-107886617D01*
X153255864Y-108015581D01*
X153365540Y-108125257D01*
X153494504Y-108211428D01*
X153637802Y-108270784D01*
X153789926Y-108301043D01*
X153792775Y-108301043D01*
X156882955Y-111391225D01*
X156902043Y-111414484D01*
X156994867Y-111490662D01*
X157084754Y-111538707D01*
X157100769Y-111547267D01*
X157215678Y-111582125D01*
X157335181Y-111593895D01*
X157365122Y-111590946D01*
X159575748Y-111590946D01*
X159577762Y-111592960D01*
X159706726Y-111679131D01*
X159850024Y-111738487D01*
X160002148Y-111768746D01*
X160157252Y-111768746D01*
X160309376Y-111738487D01*
X160452674Y-111679131D01*
X160581638Y-111592960D01*
X160691314Y-111483284D01*
X160777485Y-111354320D01*
X160836841Y-111211022D01*
X160867100Y-111058898D01*
X160867100Y-110903794D01*
X160836841Y-110751670D01*
X160777485Y-110608372D01*
X160691314Y-110479408D01*
X160581638Y-110369732D01*
X160452674Y-110283561D01*
X160309376Y-110224205D01*
X160157252Y-110193946D01*
X160002148Y-110193946D01*
X159850024Y-110224205D01*
X159706726Y-110283561D01*
X159577762Y-110369732D01*
X159575748Y-110371746D01*
X157587686Y-110371746D01*
X154654878Y-107438940D01*
X154654878Y-107436091D01*
X154624619Y-107283967D01*
X154565263Y-107140669D01*
X154551185Y-107119600D01*
X158562082Y-107119600D01*
X158687026Y-107203085D01*
X158830324Y-107262441D01*
X158982448Y-107292700D01*
X159137552Y-107292700D01*
X159289676Y-107262441D01*
X159432974Y-107203085D01*
X159561938Y-107116914D01*
X159563952Y-107114900D01*
X163341348Y-107114900D01*
X163348062Y-107121614D01*
X163477026Y-107207785D01*
X163620324Y-107267141D01*
X163772448Y-107297400D01*
X163927552Y-107297400D01*
X164079676Y-107267141D01*
X164222974Y-107207785D01*
X164351938Y-107121614D01*
X164461614Y-107011938D01*
X164547785Y-106882974D01*
X164607141Y-106739676D01*
X164637400Y-106587552D01*
X164637400Y-106432448D01*
X164607141Y-106280324D01*
X164547785Y-106137026D01*
X164461614Y-106008062D01*
X164351938Y-105898386D01*
X164222974Y-105812215D01*
X164079676Y-105752859D01*
X163927552Y-105722600D01*
X163772448Y-105722600D01*
X163620324Y-105752859D01*
X163477026Y-105812215D01*
X163352082Y-105895700D01*
X159563952Y-105895700D01*
X159561938Y-105893686D01*
X159432974Y-105807515D01*
X159289676Y-105748159D01*
X159137552Y-105717900D01*
X158982448Y-105717900D01*
X158830324Y-105748159D01*
X158687026Y-105807515D01*
X158558062Y-105893686D01*
X158551348Y-105900400D01*
X151503952Y-105900400D01*
X151501938Y-105898386D01*
X151372974Y-105812215D01*
X151229676Y-105752859D01*
X151077552Y-105722600D01*
X150922448Y-105722600D01*
X150770324Y-105752859D01*
X150627026Y-105812215D01*
X150498062Y-105898386D01*
X150388386Y-106008062D01*
X150302215Y-106137026D01*
X150242859Y-106280324D01*
X150212600Y-106432448D01*
X148513800Y-106432448D01*
X148513800Y-105728935D01*
X148779600Y-105728935D01*
X148874206Y-105719617D01*
X148965177Y-105692022D01*
X149049015Y-105647209D01*
X149122501Y-105586901D01*
X149182809Y-105513415D01*
X149227622Y-105429577D01*
X149255217Y-105338606D01*
X149264535Y-105244000D01*
X149264535Y-104966968D01*
X149288665Y-105025223D01*
X149434502Y-105243483D01*
X149620117Y-105429098D01*
X149838377Y-105574935D01*
X150080895Y-105675389D01*
X150338350Y-105726600D01*
X150600850Y-105726600D01*
X150858305Y-105675389D01*
X151100823Y-105574935D01*
X151319083Y-105429098D01*
X151504698Y-105243483D01*
X151650535Y-105025223D01*
X151739600Y-104810201D01*
X151828665Y-105025223D01*
X151974502Y-105243483D01*
X152160117Y-105429098D01*
X152378377Y-105574935D01*
X152620895Y-105675389D01*
X152878350Y-105726600D01*
X153140850Y-105726600D01*
X153398305Y-105675389D01*
X153640823Y-105574935D01*
X153859083Y-105429098D01*
X154044698Y-105243483D01*
X154190535Y-105025223D01*
X154279600Y-104810201D01*
X154368665Y-105025223D01*
X154514502Y-105243483D01*
X154700117Y-105429098D01*
X154918377Y-105574935D01*
X155160895Y-105675389D01*
X155418350Y-105726600D01*
X155680850Y-105726600D01*
X155938305Y-105675389D01*
X156180823Y-105574935D01*
X156399083Y-105429098D01*
X156584698Y-105243483D01*
X156730535Y-105025223D01*
X156819600Y-104810201D01*
X156908665Y-105025223D01*
X157054502Y-105243483D01*
X157240117Y-105429098D01*
X157458377Y-105574935D01*
X157700895Y-105675389D01*
X157958350Y-105726600D01*
X158220850Y-105726600D01*
X158478305Y-105675389D01*
X158720823Y-105574935D01*
X158939083Y-105429098D01*
X159124698Y-105243483D01*
X159270535Y-105025223D01*
X159359600Y-104810201D01*
X159448665Y-105025223D01*
X159594502Y-105243483D01*
X159780117Y-105429098D01*
X159998377Y-105574935D01*
X160240895Y-105675389D01*
X160498350Y-105726600D01*
X160760850Y-105726600D01*
X161018305Y-105675389D01*
X161260823Y-105574935D01*
X161479083Y-105429098D01*
X161664698Y-105243483D01*
X161810535Y-105025223D01*
X161899600Y-104810201D01*
X161988665Y-105025223D01*
X162134502Y-105243483D01*
X162320117Y-105429098D01*
X162538377Y-105574935D01*
X162780895Y-105675389D01*
X163038350Y-105726600D01*
X163300850Y-105726600D01*
X163558305Y-105675389D01*
X163800823Y-105574935D01*
X164019083Y-105429098D01*
X164204698Y-105243483D01*
X164350535Y-105025223D01*
X164439600Y-104810201D01*
X164528665Y-105025223D01*
G37*
X164528665Y-105025223D02*
X164674502Y-105243483D01*
X164860117Y-105429098D01*
X165078377Y-105574935D01*
X165320895Y-105675389D01*
X165578350Y-105726600D01*
X165840850Y-105726600D01*
X166098305Y-105675389D01*
X166340823Y-105574935D01*
X166559083Y-105429098D01*
X166744698Y-105243483D01*
X166809989Y-105145768D01*
X166807130Y-105174800D01*
X166801800Y-105228908D01*
X166801800Y-105228916D01*
X166798975Y-105257600D01*
X166801800Y-105286284D01*
X166801800Y-105697903D01*
X166780465Y-105709307D01*
X166773772Y-105714800D01*
X166724248Y-105714800D01*
X166572124Y-105745059D01*
X166428826Y-105804415D01*
X166299862Y-105890586D01*
X166190186Y-106000262D01*
X166104015Y-106129226D01*
X166044659Y-106272524D01*
X166014400Y-106424648D01*
X166014400Y-106579752D01*
X166044659Y-106731876D01*
X166104015Y-106875174D01*
X166190186Y-107004138D01*
X166299862Y-107113814D01*
X166428826Y-107199985D01*
X166572124Y-107259341D01*
X166724248Y-107289600D01*
X166879352Y-107289600D01*
X167031476Y-107259341D01*
X167174774Y-107199985D01*
X167303738Y-107113814D01*
X167413414Y-107004138D01*
X167434525Y-106972542D01*
X168843883Y-108381900D01*
X168843882Y-110662649D01*
X168816468Y-110690063D01*
X168730297Y-110819027D01*
X168670941Y-110962325D01*
X168640682Y-111114449D01*
X168640682Y-111269553D01*
X168670941Y-111421677D01*
X168730297Y-111564975D01*
X168816468Y-111693939D01*
X168926144Y-111803615D01*
X169055108Y-111889786D01*
X169198406Y-111949142D01*
X169350530Y-111979401D01*
X169389299Y-111979401D01*
X170749255Y-113339358D01*
X170767543Y-113361642D01*
X170789827Y-113379930D01*
X170789829Y-113379932D01*
X170856499Y-113434646D01*
X170957988Y-113488893D01*
X171068110Y-113522298D01*
X171182633Y-113533578D01*
X171211325Y-113530752D01*
X171447766Y-113530752D01*
X171447767Y-114466650D01*
X171284217Y-114630200D01*
X169845001Y-114630200D01*
X169833626Y-114628397D01*
X169787605Y-114630200D01*
X169770308Y-114630200D01*
X169758884Y-114631325D01*
X169718637Y-114632902D01*
X169701760Y-114636952D01*
X169684477Y-114638654D01*
X169645908Y-114650354D01*
X169606737Y-114659753D01*
X169590973Y-114667018D01*
X169574355Y-114672059D01*
X169538814Y-114691056D01*
X169502224Y-114707919D01*
X169488179Y-114718121D01*
X169472866Y-114726306D01*
X169441709Y-114751876D01*
X169432445Y-114758605D01*
X169419549Y-114770062D01*
X169383910Y-114799310D01*
X169376597Y-114808221D01*
X169106936Y-115047791D01*
X169071309Y-115077029D01*
X169045745Y-115108180D01*
X169018393Y-115137762D01*
X169009320Y-115152564D01*
X168998305Y-115165986D01*
X168979309Y-115201526D01*
X168958254Y-115235875D01*
X168952244Y-115252161D01*
X168944058Y-115267475D01*
X168932361Y-115306035D01*
X168918411Y-115343834D01*
X168915693Y-115360982D01*
X168910653Y-115377597D01*
X168906703Y-115417703D01*
X168900396Y-115457493D01*
X168902199Y-115503514D01*
X168902200Y-117229187D01*
X168899374Y-117257881D01*
X168910239Y-117368201D01*
X168812386Y-117348737D01*
X168773617Y-117348737D01*
X168556628Y-117131749D01*
X168538042Y-117109168D01*
X168494023Y-117073148D01*
X168449681Y-117036758D01*
X168449308Y-117036558D01*
X168448982Y-117036292D01*
X168398726Y-117009522D01*
X168348192Y-116982511D01*
X168347787Y-116982388D01*
X168347415Y-116982190D01*
X168292955Y-116965755D01*
X168238070Y-116949106D01*
X168237647Y-116949064D01*
X168237245Y-116948943D01*
X168180411Y-116943427D01*
X168123548Y-116937827D01*
X168094441Y-116940694D01*
X168046400Y-116940762D01*
X168046400Y-110587552D01*
X168073814Y-110560138D01*
X168159985Y-110431174D01*
X168219341Y-110287876D01*
X168249600Y-110135752D01*
X168249600Y-109980648D01*
X168219341Y-109828524D01*
X168159985Y-109685226D01*
X168073814Y-109556262D01*
X167964138Y-109446586D01*
X167835174Y-109360415D01*
X167691876Y-109301059D01*
X167539752Y-109270800D01*
X167384648Y-109270800D01*
X167232524Y-109301059D01*
X167089226Y-109360415D01*
X166960262Y-109446586D01*
X166850586Y-109556262D01*
X166764415Y-109685226D01*
X166705059Y-109828524D01*
X166674800Y-109980648D01*
X166674800Y-110135752D01*
X166705059Y-110287876D01*
X166764415Y-110431174D01*
X166850586Y-110560138D01*
X166878000Y-110587552D01*
X166878001Y-115211098D01*
X166878000Y-115211108D01*
X166878000Y-115293891D01*
X166878001Y-115293901D01*
X166878000Y-116834811D01*
X166878000Y-116941317D01*
X165536181Y-116940667D01*
X165507347Y-116937827D01*
X165449470Y-116943527D01*
X165393105Y-116949051D01*
X165392971Y-116949091D01*
X165392824Y-116949106D01*
X165336509Y-116966189D01*
X165282967Y-116982403D01*
X165282843Y-116982469D01*
X165282702Y-116982512D01*
X165231953Y-117009638D01*
X165181451Y-117036600D01*
X165181338Y-117036693D01*
X165181214Y-117036759D01*
X165136208Y-117073693D01*
X165092460Y-117109561D01*
X165074076Y-117131940D01*
X164656399Y-117549618D01*
X164634110Y-117567910D01*
X164561106Y-117656867D01*
X164510672Y-117751222D01*
X164506859Y-117758356D01*
X164478261Y-117852633D01*
X164473454Y-117868478D01*
X164465000Y-117954309D01*
X164465000Y-117954316D01*
X164462175Y-117983000D01*
X164465000Y-118011684D01*
X164465000Y-118172204D01*
X162460811Y-116168016D01*
X162443716Y-116147185D01*
X162411835Y-116121020D01*
X162398569Y-116110133D01*
X162360562Y-116078941D01*
X162265691Y-116028231D01*
X162261560Y-116026978D01*
X162162749Y-115997004D01*
X162055696Y-115986461D01*
X162028871Y-115989103D01*
X161342226Y-115989100D01*
X159763602Y-115989100D01*
X158051501Y-114277000D01*
X158051500Y-113916802D01*
X158054142Y-113889977D01*
X158043599Y-113782923D01*
X158012372Y-113679981D01*
X157961663Y-113585112D01*
X157910519Y-113522793D01*
X157910513Y-113522787D01*
X157893419Y-113501958D01*
X157872590Y-113484864D01*
X154180346Y-109792621D01*
X154163243Y-109771781D01*
X154080089Y-109703538D01*
X153985218Y-109652828D01*
X153882278Y-109621602D01*
X153802048Y-109613700D01*
X153802041Y-109613700D01*
X153775224Y-109611059D01*
X153748407Y-109613700D01*
X152654309Y-109613700D01*
X150210048Y-109607564D01*
X150267476Y-109596141D01*
X150410774Y-109536785D01*
X150539738Y-109450614D01*
X150649414Y-109340938D01*
X150735585Y-109211974D01*
X150794941Y-109068676D01*
X150825200Y-108916552D01*
X150825200Y-108761448D01*
X150794941Y-108609324D01*
X150735585Y-108466026D01*
X150649414Y-108337062D01*
X150539738Y-108227386D01*
X150410774Y-108141215D01*
X150267476Y-108081859D01*
X150115352Y-108051600D01*
X150076584Y-108051600D01*
X149709182Y-107684199D01*
X149690890Y-107661910D01*
X149601934Y-107588906D01*
X149500445Y-107534659D01*
X149390323Y-107501254D01*
X149304492Y-107492800D01*
X149304484Y-107492800D01*
X149275800Y-107489975D01*
X149247116Y-107492800D01*
X148069983Y-107492800D01*
X148322401Y-107240382D01*
X148344690Y-107222090D01*
X148417694Y-107133134D01*
X148471941Y-107031645D01*
X148505346Y-106921523D01*
X148513800Y-106835692D01*
X148513800Y-106835683D01*
X148516625Y-106807001D01*
X148513800Y-106778319D01*
X148513800Y-106432448D01*
X150212600Y-106432448D01*
X150212600Y-106587552D01*
X150242859Y-106739676D01*
X150302215Y-106882974D01*
X150388386Y-107011938D01*
X150498062Y-107121614D01*
X150627026Y-107207785D01*
X150770324Y-107267141D01*
X150922448Y-107297400D01*
X151077552Y-107297400D01*
X151229676Y-107267141D01*
X151372974Y-107207785D01*
X151501938Y-107121614D01*
X151503952Y-107119600D01*
X153183771Y-107119600D01*
X153169693Y-107140669D01*
X153110337Y-107283967D01*
X153080078Y-107436091D01*
X153080078Y-107591195D01*
X153110337Y-107743319D01*
X153169693Y-107886617D01*
X153255864Y-108015581D01*
X153365540Y-108125257D01*
X153494504Y-108211428D01*
X153637802Y-108270784D01*
X153789926Y-108301043D01*
X153792775Y-108301043D01*
X156882955Y-111391225D01*
X156902043Y-111414484D01*
X156994867Y-111490662D01*
X157084754Y-111538707D01*
X157100769Y-111547267D01*
X157215678Y-111582125D01*
X157335181Y-111593895D01*
X157365122Y-111590946D01*
X159575748Y-111590946D01*
X159577762Y-111592960D01*
X159706726Y-111679131D01*
X159850024Y-111738487D01*
X160002148Y-111768746D01*
X160157252Y-111768746D01*
X160309376Y-111738487D01*
X160452674Y-111679131D01*
X160581638Y-111592960D01*
X160691314Y-111483284D01*
X160777485Y-111354320D01*
X160836841Y-111211022D01*
X160867100Y-111058898D01*
X160867100Y-110903794D01*
X160836841Y-110751670D01*
X160777485Y-110608372D01*
X160691314Y-110479408D01*
X160581638Y-110369732D01*
X160452674Y-110283561D01*
X160309376Y-110224205D01*
X160157252Y-110193946D01*
X160002148Y-110193946D01*
X159850024Y-110224205D01*
X159706726Y-110283561D01*
X159577762Y-110369732D01*
X159575748Y-110371746D01*
X157587686Y-110371746D01*
X154654878Y-107438940D01*
X154654878Y-107436091D01*
X154624619Y-107283967D01*
X154565263Y-107140669D01*
X154551185Y-107119600D01*
X158562082Y-107119600D01*
X158687026Y-107203085D01*
X158830324Y-107262441D01*
X158982448Y-107292700D01*
X159137552Y-107292700D01*
X159289676Y-107262441D01*
X159432974Y-107203085D01*
X159561938Y-107116914D01*
X159563952Y-107114900D01*
X163341348Y-107114900D01*
X163348062Y-107121614D01*
X163477026Y-107207785D01*
X163620324Y-107267141D01*
X163772448Y-107297400D01*
X163927552Y-107297400D01*
X164079676Y-107267141D01*
X164222974Y-107207785D01*
X164351938Y-107121614D01*
X164461614Y-107011938D01*
X164547785Y-106882974D01*
X164607141Y-106739676D01*
X164637400Y-106587552D01*
X164637400Y-106432448D01*
X164607141Y-106280324D01*
X164547785Y-106137026D01*
X164461614Y-106008062D01*
X164351938Y-105898386D01*
X164222974Y-105812215D01*
X164079676Y-105752859D01*
X163927552Y-105722600D01*
X163772448Y-105722600D01*
X163620324Y-105752859D01*
X163477026Y-105812215D01*
X163352082Y-105895700D01*
X159563952Y-105895700D01*
X159561938Y-105893686D01*
X159432974Y-105807515D01*
X159289676Y-105748159D01*
X159137552Y-105717900D01*
X158982448Y-105717900D01*
X158830324Y-105748159D01*
X158687026Y-105807515D01*
X158558062Y-105893686D01*
X158551348Y-105900400D01*
X151503952Y-105900400D01*
X151501938Y-105898386D01*
X151372974Y-105812215D01*
X151229676Y-105752859D01*
X151077552Y-105722600D01*
X150922448Y-105722600D01*
X150770324Y-105752859D01*
X150627026Y-105812215D01*
X150498062Y-105898386D01*
X150388386Y-106008062D01*
X150302215Y-106137026D01*
X150242859Y-106280324D01*
X150212600Y-106432448D01*
X148513800Y-106432448D01*
X148513800Y-105728935D01*
X148779600Y-105728935D01*
X148874206Y-105719617D01*
X148965177Y-105692022D01*
X149049015Y-105647209D01*
X149122501Y-105586901D01*
X149182809Y-105513415D01*
X149227622Y-105429577D01*
X149255217Y-105338606D01*
X149264535Y-105244000D01*
X149264535Y-104966968D01*
X149288665Y-105025223D01*
X149434502Y-105243483D01*
X149620117Y-105429098D01*
X149838377Y-105574935D01*
X150080895Y-105675389D01*
X150338350Y-105726600D01*
X150600850Y-105726600D01*
X150858305Y-105675389D01*
X151100823Y-105574935D01*
X151319083Y-105429098D01*
X151504698Y-105243483D01*
X151650535Y-105025223D01*
X151739600Y-104810201D01*
X151828665Y-105025223D01*
X151974502Y-105243483D01*
X152160117Y-105429098D01*
X152378377Y-105574935D01*
X152620895Y-105675389D01*
X152878350Y-105726600D01*
X153140850Y-105726600D01*
X153398305Y-105675389D01*
X153640823Y-105574935D01*
X153859083Y-105429098D01*
X154044698Y-105243483D01*
X154190535Y-105025223D01*
X154279600Y-104810201D01*
X154368665Y-105025223D01*
X154514502Y-105243483D01*
X154700117Y-105429098D01*
X154918377Y-105574935D01*
X155160895Y-105675389D01*
X155418350Y-105726600D01*
X155680850Y-105726600D01*
X155938305Y-105675389D01*
X156180823Y-105574935D01*
X156399083Y-105429098D01*
X156584698Y-105243483D01*
X156730535Y-105025223D01*
X156819600Y-104810201D01*
X156908665Y-105025223D01*
X157054502Y-105243483D01*
X157240117Y-105429098D01*
X157458377Y-105574935D01*
X157700895Y-105675389D01*
X157958350Y-105726600D01*
X158220850Y-105726600D01*
X158478305Y-105675389D01*
X158720823Y-105574935D01*
X158939083Y-105429098D01*
X159124698Y-105243483D01*
X159270535Y-105025223D01*
X159359600Y-104810201D01*
X159448665Y-105025223D01*
X159594502Y-105243483D01*
X159780117Y-105429098D01*
X159998377Y-105574935D01*
X160240895Y-105675389D01*
X160498350Y-105726600D01*
X160760850Y-105726600D01*
X161018305Y-105675389D01*
X161260823Y-105574935D01*
X161479083Y-105429098D01*
X161664698Y-105243483D01*
X161810535Y-105025223D01*
X161899600Y-104810201D01*
X161988665Y-105025223D01*
X162134502Y-105243483D01*
X162320117Y-105429098D01*
X162538377Y-105574935D01*
X162780895Y-105675389D01*
X163038350Y-105726600D01*
X163300850Y-105726600D01*
X163558305Y-105675389D01*
X163800823Y-105574935D01*
X164019083Y-105429098D01*
X164204698Y-105243483D01*
X164350535Y-105025223D01*
X164439600Y-104810201D01*
X164528665Y-105025223D01*
G36*
X174791414Y-114888355D02*
G01*
X174934712Y-114947711D01*
X175086836Y-114977970D01*
X175179486Y-114977970D01*
X175308900Y-115107384D01*
X175308900Y-115999822D01*
X175224503Y-115974220D01*
X175105000Y-115962450D01*
X175059800Y-115965400D01*
X174907400Y-116117800D01*
X174907400Y-117072600D01*
X174927400Y-117072600D01*
X174927400Y-117377400D01*
X174907400Y-117377400D01*
X174907400Y-117397400D01*
X174602600Y-117397400D01*
X174602600Y-117377400D01*
X174582600Y-117377400D01*
X174582600Y-117072600D01*
X174602600Y-117072600D01*
X174602600Y-116117800D01*
X174450200Y-115965400D01*
X174405000Y-115962450D01*
X174285497Y-115974220D01*
X174201100Y-115999822D01*
X174201100Y-115385634D01*
X174735644Y-114851091D01*
X174791414Y-114888355D01*
G37*
X174791414Y-114888355D02*
X174934712Y-114947711D01*
X175086836Y-114977970D01*
X175179486Y-114977970D01*
X175308900Y-115107384D01*
X175308900Y-115999822D01*
X175224503Y-115974220D01*
X175105000Y-115962450D01*
X175059800Y-115965400D01*
X174907400Y-116117800D01*
X174907400Y-117072600D01*
X174927400Y-117072600D01*
X174927400Y-117377400D01*
X174907400Y-117377400D01*
X174907400Y-117397400D01*
X174602600Y-117397400D01*
X174602600Y-117377400D01*
X174582600Y-117377400D01*
X174582600Y-117072600D01*
X174602600Y-117072600D01*
X174602600Y-116117800D01*
X174450200Y-115965400D01*
X174405000Y-115962450D01*
X174285497Y-115974220D01*
X174201100Y-115999822D01*
X174201100Y-115385634D01*
X174735644Y-114851091D01*
X174791414Y-114888355D01*
G36*
X170467400Y-116222600D02*
G01*
X170487400Y-116222600D01*
X170487400Y-116527400D01*
X170467400Y-116527400D01*
X170467400Y-116547400D01*
X170162600Y-116547400D01*
X170162600Y-116527400D01*
X170142600Y-116527400D01*
X170142600Y-116222600D01*
X170162600Y-116222600D01*
X170162600Y-116202600D01*
X170467400Y-116202600D01*
X170467400Y-116222600D01*
G37*
X170467400Y-116222600D02*
X170487400Y-116222600D01*
X170487400Y-116527400D01*
X170467400Y-116527400D01*
X170467400Y-116547400D01*
X170162600Y-116547400D01*
X170162600Y-116527400D01*
X170142600Y-116527400D01*
X170142600Y-116222600D01*
X170162600Y-116222600D01*
X170162600Y-116202600D01*
X170467400Y-116202600D01*
X170467400Y-116222600D01*
G36*
X172008901Y-116132602D02*
G01*
X172005000Y-116134687D01*
X171990577Y-116126978D01*
X171899606Y-116099383D01*
X171805000Y-116090065D01*
X171504735Y-116090065D01*
X171524600Y-116070200D01*
X171526607Y-115801385D01*
X171554884Y-115798600D01*
X171554892Y-115798600D01*
X171640723Y-115790146D01*
X171750845Y-115756741D01*
X171852334Y-115702494D01*
X171941290Y-115629490D01*
X171959582Y-115607201D01*
X172008900Y-115557883D01*
X172008901Y-116132602D01*
G37*
X172008901Y-116132602D02*
X172005000Y-116134687D01*
X171990577Y-116126978D01*
X171899606Y-116099383D01*
X171805000Y-116090065D01*
X171504735Y-116090065D01*
X171524600Y-116070200D01*
X171526607Y-115801385D01*
X171554884Y-115798600D01*
X171554892Y-115798600D01*
X171640723Y-115790146D01*
X171750845Y-115756741D01*
X171852334Y-115702494D01*
X171941290Y-115629490D01*
X171959582Y-115607201D01*
X172008900Y-115557883D01*
X172008901Y-116132602D01*
G36*
X172897800Y-109068952D02*
G01*
X172928059Y-109221076D01*
X172966645Y-109314230D01*
X172855142Y-109360416D01*
X172726178Y-109446587D01*
X172616502Y-109556263D01*
X172530331Y-109685227D01*
X172470975Y-109828525D01*
X172440716Y-109980649D01*
X172440716Y-110135753D01*
X172470975Y-110287877D01*
X172530331Y-110431175D01*
X172616502Y-110560139D01*
X172726178Y-110669815D01*
X172855142Y-110755986D01*
X172998440Y-110815342D01*
X173096125Y-110834773D01*
X173321736Y-111060384D01*
X173338836Y-111081220D01*
X173421990Y-111149463D01*
X173516861Y-111200173D01*
X173619801Y-111231399D01*
X173700031Y-111239301D01*
X173700040Y-111239301D01*
X173726854Y-111241942D01*
X173753668Y-111239301D01*
X174802800Y-111239301D01*
X174802800Y-111291452D01*
X174833059Y-111443576D01*
X174892415Y-111586874D01*
X174978586Y-111715838D01*
X175088262Y-111825514D01*
X175217226Y-111911685D01*
X175360524Y-111971041D01*
X175512648Y-112001300D01*
X175667752Y-112001300D01*
X175819876Y-111971041D01*
X175963174Y-111911685D01*
X176092138Y-111825514D01*
X176157652Y-111760000D01*
X177154699Y-111760000D01*
X177407638Y-112012939D01*
X177424741Y-112033779D01*
X177507895Y-112102022D01*
X177602766Y-112152732D01*
X177705706Y-112183958D01*
X177785936Y-112191860D01*
X177785943Y-112191860D01*
X177812760Y-112194501D01*
X177839577Y-112191860D01*
X180500343Y-112191860D01*
X181000420Y-112691938D01*
X181000420Y-113707093D01*
X180980494Y-113669814D01*
X180907490Y-113580858D01*
X180885206Y-113562570D01*
X179876386Y-112553751D01*
X179858094Y-112531462D01*
X179769138Y-112458458D01*
X179667649Y-112404211D01*
X179557527Y-112370806D01*
X179471696Y-112362352D01*
X179471688Y-112362352D01*
X179443004Y-112359527D01*
X179414320Y-112362352D01*
X173371944Y-112362352D01*
X173344530Y-112334938D01*
X173215566Y-112248767D01*
X173072268Y-112189411D01*
X172920144Y-112159152D01*
X172765040Y-112159152D01*
X172612916Y-112189411D01*
X172469618Y-112248767D01*
X172340654Y-112334938D01*
X172313240Y-112362352D01*
X172060657Y-112362352D01*
X172031966Y-112359526D01*
X172003274Y-112362352D01*
X171424617Y-112362352D01*
X170215482Y-111153218D01*
X170215482Y-111114449D01*
X170185223Y-110962325D01*
X170125867Y-110819027D01*
X170039696Y-110690063D01*
X170012282Y-110662649D01*
X170012282Y-110572234D01*
X170079092Y-110639044D01*
X170208056Y-110725215D01*
X170351354Y-110784571D01*
X170503478Y-110814830D01*
X170658582Y-110814830D01*
X170810706Y-110784571D01*
X170954004Y-110725215D01*
X171082968Y-110639044D01*
X171192644Y-110529368D01*
X171278815Y-110400404D01*
X171338171Y-110257106D01*
X171368430Y-110104982D01*
X171368430Y-110012331D01*
X172087490Y-109293271D01*
X172168219Y-109227019D01*
X172185322Y-109206179D01*
X172463592Y-108927910D01*
X172897800Y-108927910D01*
X172897800Y-109068952D01*
G37*
X172897800Y-109068952D02*
X172928059Y-109221076D01*
X172966645Y-109314230D01*
X172855142Y-109360416D01*
X172726178Y-109446587D01*
X172616502Y-109556263D01*
X172530331Y-109685227D01*
X172470975Y-109828525D01*
X172440716Y-109980649D01*
X172440716Y-110135753D01*
X172470975Y-110287877D01*
X172530331Y-110431175D01*
X172616502Y-110560139D01*
X172726178Y-110669815D01*
X172855142Y-110755986D01*
X172998440Y-110815342D01*
X173096125Y-110834773D01*
X173321736Y-111060384D01*
X173338836Y-111081220D01*
X173421990Y-111149463D01*
X173516861Y-111200173D01*
X173619801Y-111231399D01*
X173700031Y-111239301D01*
X173700040Y-111239301D01*
X173726854Y-111241942D01*
X173753668Y-111239301D01*
X174802800Y-111239301D01*
X174802800Y-111291452D01*
X174833059Y-111443576D01*
X174892415Y-111586874D01*
X174978586Y-111715838D01*
X175088262Y-111825514D01*
X175217226Y-111911685D01*
X175360524Y-111971041D01*
X175512648Y-112001300D01*
X175667752Y-112001300D01*
X175819876Y-111971041D01*
X175963174Y-111911685D01*
X176092138Y-111825514D01*
X176157652Y-111760000D01*
X177154699Y-111760000D01*
X177407638Y-112012939D01*
X177424741Y-112033779D01*
X177507895Y-112102022D01*
X177602766Y-112152732D01*
X177705706Y-112183958D01*
X177785936Y-112191860D01*
X177785943Y-112191860D01*
X177812760Y-112194501D01*
X177839577Y-112191860D01*
X180500343Y-112191860D01*
X181000420Y-112691938D01*
X181000420Y-113707093D01*
X180980494Y-113669814D01*
X180907490Y-113580858D01*
X180885206Y-113562570D01*
X179876386Y-112553751D01*
X179858094Y-112531462D01*
X179769138Y-112458458D01*
X179667649Y-112404211D01*
X179557527Y-112370806D01*
X179471696Y-112362352D01*
X179471688Y-112362352D01*
X179443004Y-112359527D01*
X179414320Y-112362352D01*
X173371944Y-112362352D01*
X173344530Y-112334938D01*
X173215566Y-112248767D01*
X173072268Y-112189411D01*
X172920144Y-112159152D01*
X172765040Y-112159152D01*
X172612916Y-112189411D01*
X172469618Y-112248767D01*
X172340654Y-112334938D01*
X172313240Y-112362352D01*
X172060657Y-112362352D01*
X172031966Y-112359526D01*
X172003274Y-112362352D01*
X171424617Y-112362352D01*
X170215482Y-111153218D01*
X170215482Y-111114449D01*
X170185223Y-110962325D01*
X170125867Y-110819027D01*
X170039696Y-110690063D01*
X170012282Y-110662649D01*
X170012282Y-110572234D01*
X170079092Y-110639044D01*
X170208056Y-110725215D01*
X170351354Y-110784571D01*
X170503478Y-110814830D01*
X170658582Y-110814830D01*
X170810706Y-110784571D01*
X170954004Y-110725215D01*
X171082968Y-110639044D01*
X171192644Y-110529368D01*
X171278815Y-110400404D01*
X171338171Y-110257106D01*
X171368430Y-110104982D01*
X171368430Y-110012331D01*
X172087490Y-109293271D01*
X172168219Y-109227019D01*
X172185322Y-109206179D01*
X172463592Y-108927910D01*
X172897800Y-108927910D01*
X172897800Y-109068952D01*
G36*
X183189659Y-109068676D02*
G01*
X183249015Y-109211974D01*
X183335186Y-109340938D01*
X183444862Y-109450614D01*
X183573826Y-109536785D01*
X183717124Y-109596141D01*
X183869248Y-109626400D01*
X183896002Y-109626400D01*
X183896002Y-110809900D01*
X182014011Y-108927910D01*
X183161659Y-108927910D01*
X183189659Y-109068676D01*
G37*
X183189659Y-109068676D02*
X183249015Y-109211974D01*
X183335186Y-109340938D01*
X183444862Y-109450614D01*
X183573826Y-109536785D01*
X183717124Y-109596141D01*
X183869248Y-109626400D01*
X183896002Y-109626400D01*
X183896002Y-110809900D01*
X182014011Y-108927910D01*
X183161659Y-108927910D01*
X183189659Y-109068676D01*
G36*
X149250400Y-108877784D02*
G01*
X149250400Y-108916552D01*
X149280659Y-109068676D01*
X149340015Y-109211974D01*
X149426186Y-109340938D01*
X149535862Y-109450614D01*
X149664826Y-109536785D01*
X149808124Y-109596141D01*
X149861149Y-109606688D01*
X149318879Y-109605327D01*
X149251938Y-109538386D01*
X149122974Y-109452215D01*
X148979676Y-109392859D01*
X148827552Y-109362600D01*
X148672448Y-109362600D01*
X148520324Y-109392859D01*
X148377026Y-109452215D01*
X148248062Y-109538386D01*
X148138386Y-109648062D01*
X148052215Y-109777026D01*
X147992859Y-109920324D01*
X147962600Y-110072448D01*
X147962600Y-110147100D01*
X146429648Y-110147100D01*
X147915549Y-108661200D01*
X149033817Y-108661200D01*
X149250400Y-108877784D01*
G37*
X149250400Y-108877784D02*
X149250400Y-108916552D01*
X149280659Y-109068676D01*
X149340015Y-109211974D01*
X149426186Y-109340938D01*
X149535862Y-109450614D01*
X149664826Y-109536785D01*
X149808124Y-109596141D01*
X149861149Y-109606688D01*
X149318879Y-109605327D01*
X149251938Y-109538386D01*
X149122974Y-109452215D01*
X148979676Y-109392859D01*
X148827552Y-109362600D01*
X148672448Y-109362600D01*
X148520324Y-109392859D01*
X148377026Y-109452215D01*
X148248062Y-109538386D01*
X148138386Y-109648062D01*
X148052215Y-109777026D01*
X147992859Y-109920324D01*
X147962600Y-110072448D01*
X147962600Y-110147100D01*
X146429648Y-110147100D01*
X147915549Y-108661200D01*
X149033817Y-108661200D01*
X149250400Y-108877784D01*
G36*
X179241074Y-110083621D02*
G01*
X178663089Y-110083621D01*
X178510698Y-109931230D01*
X179088683Y-109931230D01*
X179241074Y-110083621D01*
G37*
X179241074Y-110083621D02*
X178663089Y-110083621D01*
X178510698Y-109931230D01*
X179088683Y-109931230D01*
X179241074Y-110083621D01*
G36*
X170000186Y-103498938D02*
G01*
X170051526Y-103550278D01*
X170008262Y-103579186D01*
X169898586Y-103688862D01*
X169812415Y-103817826D01*
X169753059Y-103961124D01*
X169722800Y-104113248D01*
X169722800Y-104268352D01*
X169753059Y-104420476D01*
X169812415Y-104563774D01*
X169898586Y-104692738D01*
X170008262Y-104802414D01*
X170137226Y-104888585D01*
X170280524Y-104947941D01*
X170432648Y-104978200D01*
X170587752Y-104978200D01*
X170739876Y-104947941D01*
X170883174Y-104888585D01*
X171012138Y-104802414D01*
X171077652Y-104736900D01*
X172036599Y-104736900D01*
X173092099Y-105792400D01*
X173028222Y-105792400D01*
X172838386Y-105830161D01*
X172659565Y-105904232D01*
X172498629Y-106011765D01*
X172361765Y-106148629D01*
X172254232Y-106309565D01*
X172180161Y-106488386D01*
X172153079Y-106624533D01*
X172094476Y-106600259D01*
X171942352Y-106570000D01*
X171787248Y-106570000D01*
X171635124Y-106600259D01*
X171524600Y-106646040D01*
X171524600Y-106522598D01*
X171372202Y-106522598D01*
X171524600Y-106370200D01*
X171527550Y-105675000D01*
X171515780Y-105555497D01*
X171480922Y-105440587D01*
X171424317Y-105334685D01*
X171348138Y-105241862D01*
X171255315Y-105165683D01*
X171149413Y-105109078D01*
X171034503Y-105074220D01*
X170915000Y-105062450D01*
X170619800Y-105065400D01*
X170467400Y-105217800D01*
X170467400Y-106522600D01*
X170487400Y-106522600D01*
X170487400Y-106827400D01*
X170467400Y-106827400D01*
X170467400Y-108132200D01*
X170619800Y-108284600D01*
X170848810Y-108286889D01*
X170703098Y-108432600D01*
X170610448Y-108432600D01*
X170458324Y-108462859D01*
X170315026Y-108522215D01*
X170186062Y-108608386D01*
X170076386Y-108718062D01*
X170012282Y-108814000D01*
X170012282Y-108282518D01*
X170162600Y-108132200D01*
X170162600Y-106827400D01*
X169257800Y-106827400D01*
X169105400Y-106979800D01*
X169105352Y-106991003D01*
X167970200Y-105855851D01*
X167970200Y-105697131D01*
X168118350Y-105726600D01*
X168380850Y-105726600D01*
X168638305Y-105675389D01*
X168880823Y-105574935D01*
X169099083Y-105429098D01*
X169261462Y-105266719D01*
X169205683Y-105334685D01*
X169149078Y-105440587D01*
X169114220Y-105555497D01*
X169102450Y-105675000D01*
X169105400Y-106370200D01*
X169257800Y-106522600D01*
X170162600Y-106522600D01*
X170162600Y-105217800D01*
X170010200Y-105065400D01*
X169715000Y-105062450D01*
X169595497Y-105074220D01*
X169480587Y-105109078D01*
X169374685Y-105165683D01*
X169290540Y-105234740D01*
X169430535Y-105025223D01*
X169530989Y-104782705D01*
X169582200Y-104525250D01*
X169582200Y-104262750D01*
X169530989Y-104005295D01*
X169511512Y-103958272D01*
X169532979Y-103936805D01*
X169532983Y-103936800D01*
X169988434Y-103481350D01*
X170000186Y-103498938D01*
G37*
X170000186Y-103498938D02*
X170051526Y-103550278D01*
X170008262Y-103579186D01*
X169898586Y-103688862D01*
X169812415Y-103817826D01*
X169753059Y-103961124D01*
X169722800Y-104113248D01*
X169722800Y-104268352D01*
X169753059Y-104420476D01*
X169812415Y-104563774D01*
X169898586Y-104692738D01*
X170008262Y-104802414D01*
X170137226Y-104888585D01*
X170280524Y-104947941D01*
X170432648Y-104978200D01*
X170587752Y-104978200D01*
X170739876Y-104947941D01*
X170883174Y-104888585D01*
X171012138Y-104802414D01*
X171077652Y-104736900D01*
X172036599Y-104736900D01*
X173092099Y-105792400D01*
X173028222Y-105792400D01*
X172838386Y-105830161D01*
X172659565Y-105904232D01*
X172498629Y-106011765D01*
X172361765Y-106148629D01*
X172254232Y-106309565D01*
X172180161Y-106488386D01*
X172153079Y-106624533D01*
X172094476Y-106600259D01*
X171942352Y-106570000D01*
X171787248Y-106570000D01*
X171635124Y-106600259D01*
X171524600Y-106646040D01*
X171524600Y-106522598D01*
X171372202Y-106522598D01*
X171524600Y-106370200D01*
X171527550Y-105675000D01*
X171515780Y-105555497D01*
X171480922Y-105440587D01*
X171424317Y-105334685D01*
X171348138Y-105241862D01*
X171255315Y-105165683D01*
X171149413Y-105109078D01*
X171034503Y-105074220D01*
X170915000Y-105062450D01*
X170619800Y-105065400D01*
X170467400Y-105217800D01*
X170467400Y-106522600D01*
X170487400Y-106522600D01*
X170487400Y-106827400D01*
X170467400Y-106827400D01*
X170467400Y-108132200D01*
X170619800Y-108284600D01*
X170848810Y-108286889D01*
X170703098Y-108432600D01*
X170610448Y-108432600D01*
X170458324Y-108462859D01*
X170315026Y-108522215D01*
X170186062Y-108608386D01*
X170076386Y-108718062D01*
X170012282Y-108814000D01*
X170012282Y-108282518D01*
X170162600Y-108132200D01*
X170162600Y-106827400D01*
X169257800Y-106827400D01*
X169105400Y-106979800D01*
X169105352Y-106991003D01*
X167970200Y-105855851D01*
X167970200Y-105697131D01*
X168118350Y-105726600D01*
X168380850Y-105726600D01*
X168638305Y-105675389D01*
X168880823Y-105574935D01*
X169099083Y-105429098D01*
X169261462Y-105266719D01*
X169205683Y-105334685D01*
X169149078Y-105440587D01*
X169114220Y-105555497D01*
X169102450Y-105675000D01*
X169105400Y-106370200D01*
X169257800Y-106522600D01*
X170162600Y-106522600D01*
X170162600Y-105217800D01*
X170010200Y-105065400D01*
X169715000Y-105062450D01*
X169595497Y-105074220D01*
X169480587Y-105109078D01*
X169374685Y-105165683D01*
X169290540Y-105234740D01*
X169430535Y-105025223D01*
X169530989Y-104782705D01*
X169582200Y-104525250D01*
X169582200Y-104262750D01*
X169530989Y-104005295D01*
X169511512Y-103958272D01*
X169532979Y-103936805D01*
X169532983Y-103936800D01*
X169988434Y-103481350D01*
X170000186Y-103498938D01*
G36*
X149288665Y-102485223D02*
G01*
X149434502Y-102703483D01*
X149620117Y-102889098D01*
X149838377Y-103034935D01*
X150053399Y-103124000D01*
X149838377Y-103213065D01*
X149620117Y-103358902D01*
X149434502Y-103544517D01*
X149288665Y-103762777D01*
X149264535Y-103821032D01*
X149264535Y-103544000D01*
X149255217Y-103449394D01*
X149227622Y-103358423D01*
X149182809Y-103274585D01*
X149122501Y-103201099D01*
X149049015Y-103140791D01*
X148965177Y-103095978D01*
X148874206Y-103068383D01*
X148779600Y-103059065D01*
X148741732Y-103059065D01*
X148892114Y-102951276D01*
X149087687Y-102742415D01*
X149238756Y-102499413D01*
X149265309Y-102428837D01*
X149288665Y-102485223D01*
G37*
X149288665Y-102485223D02*
X149434502Y-102703483D01*
X149620117Y-102889098D01*
X149838377Y-103034935D01*
X150053399Y-103124000D01*
X149838377Y-103213065D01*
X149620117Y-103358902D01*
X149434502Y-103544517D01*
X149288665Y-103762777D01*
X149264535Y-103821032D01*
X149264535Y-103544000D01*
X149255217Y-103449394D01*
X149227622Y-103358423D01*
X149182809Y-103274585D01*
X149122501Y-103201099D01*
X149049015Y-103140791D01*
X148965177Y-103095978D01*
X148874206Y-103068383D01*
X148779600Y-103059065D01*
X148741732Y-103059065D01*
X148892114Y-102951276D01*
X149087687Y-102742415D01*
X149238756Y-102499413D01*
X149265309Y-102428837D01*
X149288665Y-102485223D01*
M02*
